<?xml version="1.0" standalone="no"?>
<!DOCTYPE svg PUBLIC "-//W3C//DTD SVG 1.1//EN" "http://www.w3.org/Graphics/SVG/1.1/DTD/svg11.dtd" >
<svg xmlns="http://www.w3.org/2000/svg" xmlns:xlink="http://www.w3.org/1999/xlink" version="1.1">
<metadata>
Created by FontForge 20230101 at Sat Aug  2 02:07:40 2014
 By Unknown
Mathieu Reguer for Nescafe
</metadata>
<defs>
<font id="NescafeSans-Bold" horiz-adv-x="583" >
  <font-face 
    font-family="Nescafe Sans"
    font-weight="700"
    font-stretch="normal"
    units-per-em="1000"
    panose-1="2 0 0 0 0 0 0 0 0 5"
    ascent="750"
    descent="-250"
    x-height="537"
    cap-height="700"
    bbox="-175 -250 3138 911"
    underline-thickness="98"
    underline-position="-244"
    unicode-range="U+0020-F6C3"
  />
<missing-glyph horiz-adv-x="530" 
d="M0 -250v1000h530v-1000h-530zM131 127h123v72q62 17 99 32.5t48.5 24t26.5 23.5q47 46 47 144t-48 146q-56 56 -193 56q-103 0 -175 -21v-114q92 18 160 18q81 0 105 -22q23 -25 23 -64q0 -46 -22 -68q-11 -10 -24 -17.5t-55 -22t-115 -32.5v-155zM192 49q-74 0 -74 -76
t74 -76q76 0 76 76t-76 76z" />
    <glyph glyph-name="f_b" unicode="fb" horiz-adv-x="1070" 
d="M803 -15q-106 0 -176 76v-61h-142v735h142v-259q70 76 175 76q107 0 156 -52q63 -62 65 -232q-2 -171 -64 -231q-49 -52 -156 -52zM761 108q60 0 89 27q29 30 29 133q0 104 -29 133q-27 27 -89 27q-58 0 -134 -45v-230q76 -45 134 -45zM383 421h-140v-420h-142v420h-81
v116h81v9q0 116 40 157q47 47 149 47q70 0 115 -15v-114q-30 10 -78 10t-70 -20q-14 -14 -14 -65v-9h140v-116z" />
    <glyph glyph-name="f_f" unicode="ff" horiz-adv-x="825" 
d="M801 421h-169v-421h-142v421h-69v116h69v9q0 62 9 98t32 59q47 47 151 47q81 0 141 -21v-115q-49 17 -105 17q-52 0 -71 -20q-15 -15 -15 -65v-9h169v-116zM358 421h-115v-421h-142v421h-81v116h81v9q0 116 40 157q47 47 149 47q72 0 115 -15v-114q-30 10 -78 10t-70 -20
q-14 -14 -14 -65v-9h115v-116z" />
    <glyph glyph-name="f_h" unicode="fh" horiz-adv-x="1069" 
d="M763 429q-64 0 -136 -47v-382h-142v735h142v-268q70 85 186 85q89 0 141 -50q46 -46 46 -139v-363h-142v301q0 87 -19 106q-22 22 -76 22zM383 421h-140v-421h-142v421h-81v116h81v9q0 116 40 157q47 47 149 47q72 0 115 -15v-114q-30 10 -78 10t-70 -20q-14 -14 -14 -65
v-9h140v-116z" />
    <glyph glyph-name="f_i" unicode="fi" horiz-adv-x="682" 
d="M612 678q0 -38 -16 -55t-59 -17t-60 17.5t-17 54.5t17 54.5t60 17.5t59 -17t16 -55zM465 0v537h142v-537h-142zM383 421h-140v-421h-142v421h-81v116h81v9q0 116 40 157q47 47 149 47q72 0 115 -15v-114q-30 10 -78 10t-70 -20q-14 -14 -14 -65v-9h140v-116z" />
    <glyph glyph-name="f_j" unicode="fj" horiz-adv-x="682" 
d="M612 678q0 -38 -16 -55t-59 -17t-60 17.5t-17 54.5t17 54.5t60 17.5t59 -17t16 -55zM383 421h-140v-421h-142v421h-81v116h81v9q0 116 40 157q47 47 149 47q72 0 115 -15v-114q-30 10 -78 10t-70 -20q-14 -14 -14 -65v-9h140v-116zM438 -210q-52 0 -105 17v107
q37 -13 73 -13q32 0 45 15q9 9 11.5 27.5t2.5 68.5v525h142v-526q0 -72 -9.5 -111.5t-33.5 -67.5q-35 -42 -126 -42z" />
    <glyph glyph-name="f_k" unicode="fk" horiz-adv-x="1023" 
d="M383 421h-140v-421h-142v421h-81v116h81v9q0 116 40 157q47 47 149 47q72 0 115 -15v-114q-30 10 -78 10t-70 -20q-14 -14 -14 -65v-9h140v-116zM835 0l-208 238v-238h-142v735h142v-397l203 199h170l-253 -243l261 -294h-173z" />
    <glyph glyph-name="f_l" unicode="fl" horiz-adv-x="798" 
d="M628 215q0 -54 2 -70.5t10 -24.5q16 -16 48 -16q35 0 84 17v-115q-56 -21 -119 -21q-85 0 -125 40q-25 25 -34 70t-9 124v516h143v-520zM383 421h-140v-421h-142v421h-81v116h81v9q0 116 40 157q47 47 149 47q72 0 115 -15v-114q-30 10 -78 10t-70 -20q-14 -14 -14 -65
v-9h140v-116z" />
    <glyph glyph-name="f_f_b" unicode="ffb" horiz-adv-x="1458" 
d="M1191 -15q-105 0 -175 76v-61h-142v735h142v-259q70 76 175 76t156 -52q64 -63 64 -232q0 -171 -63 -231q-51 -52 -157 -52zM1149 108q60 0 89 27q29 29 29 133q0 105 -29 133q-27 27 -89 27q-58 0 -133 -45v-230q75 -45 133 -45zM772 421h-141v-421h-141v421h-69v116h69
v9q0 62 8.5 98t31.5 59q47 47 149 47q70 0 115 -15v-114q-30 10 -79 10t-69 -20q-15 -15 -15 -65v-9h141v-116zM358 421h-115v-421h-142v421h-81v116h81v9q0 116 40 157q47 47 149 47q72 0 115 -15v-114q-30 10 -78 10t-70 -20q-14 -14 -14 -65v-9h115v-116z" />
    <glyph glyph-name="f_f_h" unicode="ffh" horiz-adv-x="1459" 
d="M1153 429q-65 0 -136 -47v-382h-142v735h142v-268q70 85 185 85q91 0 141 -50q46 -46 46 -139v-363h-141v301q0 87 -20 106q-21 22 -75 22zM772 421h-141v-421h-141v421h-69v116h69v9q0 62 8.5 98t31.5 59q47 47 149 47q70 0 115 -15v-114q-30 10 -79 10t-69 -20
q-15 -15 -15 -65v-9h141v-116zM358 421h-115v-421h-142v421h-81v116h81v9q0 116 40 157q47 47 149 47q72 0 115 -15v-114q-30 10 -78 10t-70 -20q-14 -14 -14 -65v-9h115v-116z" />
    <glyph glyph-name="f_f_i" unicode="ffi" horiz-adv-x="1070" 
d="M926 606q-43 0 -60 17t-17 55t17 55t60 17q42 0 58.5 -17t16.5 -55t-16.5 -55t-58.5 -17zM996 0h-142v537h142v-537zM772 421h-141v-421h-141v421h-69v116h69v9q0 62 8.5 98t31.5 59q47 47 149 47q70 0 115 -15v-114q-30 10 -79 10t-69 -20q-15 -15 -15 -65v-9h141v-116z
M358 421h-115v-421h-142v421h-81v116h81v9q0 116 40 157q47 47 149 47q72 0 115 -15v-114q-30 10 -78 10t-70 -20q-14 -14 -14 -65v-9h115v-116z" />
    <glyph glyph-name="f_f_j" unicode="ffj" horiz-adv-x="1071" 
d="M1001 678q0 -38 -16.5 -55t-58.5 -17q-43 0 -60 17t-17 55t17 55t60 17q42 0 58.5 -17t16.5 -55zM772 421h-141v-421h-141v421h-69v116h69v9q0 62 8.5 98t31.5 59q47 47 149 47q70 0 115 -15v-114q-30 10 -79 10t-69 -20q-15 -15 -15 -65v-9h141v-116zM358 421h-115v-421
h-142v421h-81v116h81v9q0 116 40 157q47 47 149 47q72 0 115 -15v-114q-30 10 -78 10t-70 -20q-14 -14 -14 -65v-9h115v-116zM827 -210q-52 0 -105 17v107q37 -13 73 -13q31 0 45 15q9 9 11.5 27.5t2.5 68.5v525h142v-526q0 -72 -9.5 -111.5t-33.5 -67.5q-35 -42 -126 -42z
" />
    <glyph glyph-name="f_f_k" unicode="ffk" horiz-adv-x="1411" 
d="M772 421h-141v-421h-141v421h-69v116h69v9q0 62 8.5 98t31.5 59q47 47 149 47q70 0 115 -15v-114q-30 10 -79 10t-69 -20q-15 -15 -15 -65v-9h141v-116zM358 421h-115v-421h-142v421h-81v116h81v9q0 116 40 157q47 47 149 47q72 0 115 -15v-114q-30 10 -78 10t-70 -20
q-14 -14 -14 -65v-9h115v-116zM1223 0l-207 238v-238h-142v735h142v-397l203 199h170l-253 -243l261 -294h-174z" />
    <glyph glyph-name="f_f_l" unicode="ffl" horiz-adv-x="1187" 
d="M1016 215q0 -52 2 -69t11 -26q15 -16 48 -16q36 0 83 17v-115q-54 -21 -119 -21q-84 0 -125 40q-25 25 -33.5 70t-8.5 124v516h142v-520zM772 421h-141v-421h-141v421h-69v116h69v9q0 62 8.5 98t31.5 59q47 47 149 47q70 0 115 -15v-114q-30 10 -79 10t-69 -20
q-15 -15 -15 -65v-9h141v-116zM358 421h-115v-421h-142v421h-81v116h81v9q0 116 40 157q47 47 149 47q72 0 115 -15v-114q-30 10 -78 10t-70 -20q-14 -14 -14 -65v-9h115v-116z" />
    <glyph glyph-name=".notdef" horiz-adv-x="530" 
d="M0 -250v1000h530v-1000h-530zM131 127h123v72q62 17 99 32.5t48.5 24t26.5 23.5q47 46 47 144t-48 146q-56 56 -193 56q-103 0 -175 -21v-114q92 18 160 18q81 0 105 -22q23 -25 23 -64q0 -46 -22 -68q-11 -10 -24 -17.5t-55 -22t-115 -32.5v-155zM192 49q-74 0 -74 -76
t74 -76q76 0 76 76t-76 76z" />
    <glyph glyph-name=".null" horiz-adv-x="0" 
 />
    <glyph glyph-name="nonmarkingreturn" horiz-adv-x="333" 
 />
    <glyph glyph-name="space" unicode=" " horiz-adv-x="291" 
 />
    <glyph glyph-name="exclam" unicode="!" horiz-adv-x="291" 
d="M87 233l-16 467h149l-17 -467h-116zM65 69q0 82 81 82t81 -82q0 -81 -81 -81t-81 81z" />
    <glyph glyph-name="quotedbl" unicode="&#x22;" horiz-adv-x="481" 
d="M103 438l-18 262h123l-17 -262h-88zM291 438l-18 262h123l-17 -262h-88z" />
    <glyph glyph-name="numbersign" unicode="#" 
d="M326 230l12 76h-82l-12 -76h82zM291 0l20 131h-82l-20 -131h-102l20 131h-60v99h75l12 76h-87v99h102l20 132h102l-20 -132h82l20 132h102l-20 -132h60v-99h-75l-12 -76h87v-99h-102l-20 -131h-102z" />
    <glyph glyph-name="dollar" unicode="$" 
d="M183 459q10 -10 57 -25v152q-43 -6 -57 -22q-12 -12 -12 -52t12 -53zM388 252q-8 8 -55 22v-160q41 8 54 21t13 60q0 45 -12 57zM223 -87v76q-126 8 -177 38v116q90 -25 177 -31v189q-124 30 -158 66q-36 37 -36 141q0 106 36 142q54 54 175 62v78h111v-80
q108 -9 156 -36v-116q-73 25 -156 30v-184q130 -35 154 -61q37 -41 37 -142q0 -112 -41 -153q-49 -50 -168 -59v-76h-110z" />
    <glyph glyph-name="percent" unicode="%" horiz-adv-x="907" 
d="M297 307q-37 -36 -119 -36t-119 36q-44 44 -44 184q0 138 44 182q37 36 119 36t119 -36q44 -44 44 -182q0 -140 -44 -184zM612 700h114l-431 -700h-114zM139 368q13 -13 39 -13q27 0 40 13q20 20 20 123q0 98 -20 116q-13 13 -40 13q-26 0 -39 -13q-20 -18 -20 -116
q0 -103 20 -123zM848 27q-37 -36 -119 -36t-119 36q-44 44 -44 184q0 138 44 182q37 36 119 36t119 -36q44 -44 44 -182q0 -140 -44 -184zM690 88q13 -13 39 -13q27 0 40 13q20 20 20 123q0 98 -20 116q-13 13 -40 13q-26 0 -39 -13q-20 -18 -20 -116q0 -103 20 -123z" />
    <glyph glyph-name="ampersand" unicode="&#x26;" horiz-adv-x="675" 
d="M256 419l5 -5q42 24 58 40q30 28 30 72t-18 60q-17 17 -56 17t-58 -18q-17 -17 -17 -59q0 -30 11 -51t45 -56zM279 97q53 0 89 32l-152 157q-6 -3 -10 -7q-32 -32 -32 -84q0 -51 23 -74q26 -24 82 -24zM493 0l-44 46q-68 -61 -186 -61q-125 0 -181 55q-48 48 -48 141
q0 85 43 128q26 26 69 49q-46 48 -64.5 86t-18.5 90q0 86 48 134q46 46 165 46q114 0 162 -46q40 -42 40 -117q0 -93 -46 -138q-38 -40 -99 -72l107 -109q41 72 67 138h134q-61 -142 -114 -227l141 -143h-175z" />
    <glyph glyph-name="quotesingle" unicode="'" horiz-adv-x="291" 
d="M103 438l-18 262h123l-17 -262h-88z" />
    <glyph glyph-name="parenleft" unicode="(" horiz-adv-x="389" 
d="M76 288q0 241 144 412h122q-143 -191 -143 -412q0 -232 143 -423h-122q-66 79 -105 187.5t-39 235.5z" />
    <glyph glyph-name="parenright" unicode=")" horiz-adv-x="389" 
d="M313 279q0 -242 -143 -414h-123q143 191 143 414q0 230 -143 421h123q143 -172 143 -421z" />
    <glyph glyph-name="asterisk" unicode="*" horiz-adv-x="327" 
d="M220 401l-56 96l-56 -96l-67 49l73 82l-107 23l26 80l100 -45l-11 110h83l-11 -110l101 45l26 -80l-107 -23l73 -82z" />
    <glyph glyph-name="plus" unicode="+" horiz-adv-x="584" 
d="M499 219h-158v-158h-99v158h-159v99h159v159h99v-159h158v-99z" />
    <glyph glyph-name="comma" unicode="," horiz-adv-x="291" 
d="M39 -113l63 253h146l-97 -253h-112z" />
    <glyph glyph-name="hyphen" unicode="-" horiz-adv-x="291" 
d="M19 323h253v-99h-253v99z" />
    <glyph glyph-name="period" unicode="." horiz-adv-x="291" 
d="M65 69q0 82 81 82t81 -82q0 -81 -81 -81t-81 81z" />
    <glyph glyph-name="slash" unicode="/" horiz-adv-x="441" 
d="M337 735h114l-347 -870h-114z" />
    <glyph glyph-name="zero" unicode="0" horiz-adv-x="582" 
d="M482 45q-60 -60 -191 -60t-191 60q-43 43 -57.5 119.5t-14.5 191.5q0 109 15 183t57 117q60 59 191 59t191 -59q42 -43 57 -117t15 -183q0 -116 -14.5 -192.5t-57.5 -118.5zM215 131q25 -25 76 -25t76 25q37 37 37 225q0 178 -37 213q-25 25 -76 25q-53 0 -76 -25
q-38 -36 -38 -213q0 -189 38 -225z" />
    <glyph glyph-name="one" unicode="1" 
d="M429 0h-146v515l-196 -147v169l221 163h121v-700z" />
    <glyph glyph-name="two" unicode="2" horiz-adv-x="584" 
d="M524 0h-474v96l246 231q52 51 66 82.5t14 78.5q0 53 -25 78q-25 27 -112 27q-77 0 -186 -35v120q79 37 206 37q156 0 219 -63q28 -28 36 -61t8 -93q0 -78 -23.5 -125t-90.5 -111l-154 -142h270v-120z" />
    <glyph glyph-name="three" unicode="3" 
d="M248 -15q-124 0 -192 33v117q87 -28 189 -28q98 0 126 28q22 22 22 68q0 38 -21 59q-17 17 -72 24t-185 7v100l204 187h-271v120h473v-96l-213 -202q136 -9 180 -53q52 -52 52 -146q0 -54 -11.5 -90.5t-42.5 -68.5q-59 -59 -238 -59z" />
    <glyph glyph-name="four" unicode="4" 
d="M335 286v204l-147 -204h147zM568 166h-87v-166h-146v166h-311v96l328 438h129v-414h87v-120z" />
    <glyph glyph-name="five" unicode="5" 
d="M250 -15q-124 0 -192 33v117q87 -28 190 -28q93 0 122 29q23 23 23 69q0 40 -21 61q-17 18 -78 24.5t-211 6.5v403h420v-120h-282v-160q129 -4 185 -19t87 -45q47 -48 47 -152q0 -55 -11.5 -91t-43.5 -68q-59 -60 -235 -60z" />
    <glyph glyph-name="six" unicode="6" 
d="M291 -15q-138 0 -195 58q-58 58 -58 182v2q0 73 29.5 145t115.5 167l143 161h178l-218 -239h5q138 0 195 -57q58 -58 58 -179q0 -124 -58 -182q-57 -58 -195 -58zM291 105q53 0 77 24t24 100q0 72 -26 98q-23 23 -75 23q-53 0 -74 -23q-26 -24 -26 -98q0 -76 24 -100
t76 -24z" />
    <glyph glyph-name="seven" unicode="7" 
d="M209 0h-163l319 580h-325v120h498v-96z" />
    <glyph glyph-name="eight" unicode="8" 
d="M291 -15q-147 0 -206 59q-51 51 -51 142q0 86 44 130q26 26 75 39q-37 12 -62 37q-42 42 -42 129q0 89 49 138q56 56 193 56q138 0 194 -56q49 -49 49 -138q0 -86 -43 -129q-23 -24 -61 -37q49 -13 75 -39q44 -42 44 -130q0 -90 -51 -142q-59 -59 -207 -59zM380 499
q0 56 -21 77q-20 20 -68 20t-68 -20q-21 -21 -21 -77q0 -53 21 -74q19 -19 68 -19t68 19q21 21 21 74zM395 202q0 52 -23 73q-22 22 -81 22t-81 -22q-23 -23 -23 -73t23 -75q22 -22 81 -22t81 22q23 23 23 75z" />
    <glyph glyph-name="nine" unicode="9" 
d="M257 0h-179l219 239h-6q-138 0 -195 57q-58 59 -58 179q0 124 58 182q57 58 195 58t195 -58q58 -58 58 -182v-2q0 -73 -29.5 -145t-114.5 -167zM291 595q-52 0 -76 -24t-24 -100q0 -74 26 -98q21 -23 74 -23q52 0 75 23q26 26 26 98q0 76 -24 100t-77 24z" />
    <glyph glyph-name="colon" unicode=":" horiz-adv-x="292" 
d="M65 415q0 82 81 82t81 -82t-81 -82t-81 82zM65 69q0 82 81 82t81 -82q0 -81 -81 -81t-81 81z" />
    <glyph glyph-name="semicolon" unicode=";" horiz-adv-x="292" 
d="M82 415q0 82 80 82q81 0 81 -82t-81 -82q-80 0 -80 82zM33 -113l63 253h146l-97 -253h-112z" />
    <glyph glyph-name="less" unicode="&#x3c;" horiz-adv-x="584" 
d="M499 61l-416 155v107l416 154v-107l-299 -101l299 -101v-107z" />
    <glyph glyph-name="equal" unicode="=" horiz-adv-x="584" 
d="M499 308h-416v99h416v-99zM499 131h-416v99h416v-99z" />
    <glyph glyph-name="greater" unicode="&#x3e;" 
d="M83 477l417 -154v-107l-417 -155v107l299 101l-299 101v107z" />
    <glyph glyph-name="question" unicode="?" horiz-adv-x="480" 
d="M232 217h-123v155q73 18 115 32.5t55.5 22t23.5 17.5q22 22 22 68q0 39 -23 64q-22 22 -105 22q-68 0 -160 -18v114q75 21 175 21q138 0 194 -56q47 -49 47 -146q0 -98 -47 -144q-14 -15 -26 -23.5t-49 -24t-99 -32.5v-72zM90 69q0 81 80 81q82 0 82 -81q0 -82 -82 -82
q-80 0 -80 82z" />
    <glyph glyph-name="at" unicode="@" horiz-adv-x="964" 
d="M494 -155q-225 0 -325 100q-110 110 -111 335q0 214 120 334q101 101 306 101t305 -101q52 -52 81 -116t29 -163q0 -158 -79 -239q-48 -50 -129 -50q-110 0 -141 69q-72 -69 -157 -69q-39 0 -72 15.5t-49 44.5q-32 62 -10 178q9 50 29 98t41 68q48 48 126 48t130 -55
l9 43h118l-57 -268q-10 -53 0 -73.5t41 -20.5q43 0 71 31q18 23 30 74.5t12 105.5q0 145 -83 228q-74 74 -245 74t-245 -74q-39 -38 -66.5 -114t-27.5 -169q0 -94 23.5 -168.5t60.5 -111.5q77 -77 260 -77q158 0 277 40v-69q-121 -49 -272 -49zM432 147q39 0 106 37
q1 19 6 44l29 139q-45 28 -89 28q-41 0 -61 -20q-26 -24 -41 -91q-21 -97 -2 -119q16 -18 52 -18z" />
    <glyph glyph-name="A" unicode="A" horiz-adv-x="773" 
d="M383 577q-44 -83 -106 -263h211q-63 181 -105 263zM577 0q-15 78 -50 191h-290q-36 -123 -49 -191h-148q38 175 111 366t147 334h176q75 -145 148 -334.5t111 -365.5h-156z" />
    <glyph glyph-name="B" unicode="B" horiz-adv-x="754" 
d="M100 0v700h337q141 0 188 -47q47 -49 47 -130q0 -77 -42 -119q-28 -28 -80 -43q69 -17 100 -48q41 -41 41 -126q0 -86 -49 -135q-51 -52 -246 -52h-296zM381 576h-131v-167h129q100 0 126 24q18 17 18 61q0 41 -19 59q-21 23 -123 23zM393 302h-143v-178h145
q103 0 128 25q18 18 18 63q0 47 -18 65q-25 25 -130 25z" />
    <glyph glyph-name="C" unicode="C" horiz-adv-x="679" 
d="M612 24q-78 -39 -208 -39q-72 0 -146 19t-114 59q-77 76 -77 287q0 210 77 287q40 40 114 59t146 19q119 0 197 -39v-116q-95 31 -180 31q-113 0 -155 -42q-46 -46 -46 -198q0 -153 46 -198q40 -41 155 -44q96 0 191 31v-116z" />
    <glyph glyph-name="D" unicode="D" horiz-adv-x="788" 
d="M100 0v700h284q184 0 264 -80q41 -41 57 -106.5t16 -163.5q0 -99 -15.5 -163.5t-57.5 -106.5q-80 -80 -264 -80h-284zM367 576h-117v-452h117q67 0 102.5 7.5t55.5 27.5q43 43 43 191t-43 191q-20 20 -55.5 27.5t-102.5 7.5z" />
    <glyph glyph-name="E" unicode="E" horiz-adv-x="697" 
d="M624 124v-124h-524v700h524v-124h-374v-159h342v-124h-342v-169h374z" />
    <glyph glyph-name="F" unicode="F" horiz-adv-x="639" 
d="M575 277h-325v-277h-150v700h508v-124h-358v-176h325v-123z" />
    <glyph glyph-name="G" unicode="G" horiz-adv-x="761" 
d="M669 16q-83 -31 -245 -31q-78 0 -156.5 18t-119.5 59q-81 82 -81 288q0 207 81 287q41 41 119 59.5t157 18.5q139 0 234 -44v-116q-116 36 -218 36q-128 0 -171 -42q-49 -50 -49 -198t49 -198q41 -41 171 -44q36 0 80 7v144h-151v124h300v-368z" />
    <glyph glyph-name="H" unicode="H" horiz-adv-x="836" 
d="M586 0v293h-336v-293h-150v700h150v-283h336v283h150v-700h-150z" />
    <glyph glyph-name="I" unicode="I" horiz-adv-x="367" 
d="M109 0v700h149v-700h-149z" />
    <glyph glyph-name="J" unicode="J" horiz-adv-x="567" 
d="M187 110q81 0 113 32q16 15 20.5 38.5t4.5 67.5v452h150v-446q0 -145 -56 -201q-68 -68 -202 -68q-103 0 -187 39v116q87 -30 157 -30z" />
    <glyph glyph-name="K" unicode="K" horiz-adv-x="744" 
d="M534 0l-284 299v-299h-150v700h150v-305l289 305h183l-338 -346l336 -354h-186z" />
    <glyph glyph-name="L" unicode="L" horiz-adv-x="633" 
d="M606 124v-124h-506v700h150v-576h356z" />
    <glyph glyph-name="M" unicode="M" horiz-adv-x="927" 
d="M464 181l-223 274v-455h-141v700h123l244 -300l237 300h123v-700h-149v451z" />
    <glyph glyph-name="N" unicode="N" horiz-adv-x="836" 
d="M613 0l-372 445v-445h-141v700h123l371 -445v445h142v-700h-123z" />
    <glyph glyph-name="O" unicode="O" horiz-adv-x="803" 
d="M402 -15q-72 0 -145 19t-113 59q-77 76 -77 287t77 287q40 40 113 59t145 19t144.5 -19t112.5 -59q78 -77 78 -287t-78 -287q-40 -40 -112.5 -59t-144.5 -19zM402 109q97 0 140 43q41 41 41 198t-41 198q-43 43 -140 43q-98 0 -141 -43q-41 -41 -41 -198t41 -198
q43 -43 141 -43z" />
    <glyph glyph-name="P" unicode="P" horiz-adv-x="716" 
d="M100 0v700h322q59 0 113.5 -15.5t83.5 -44.5q54 -54 54 -183q0 -130 -54 -184q-29 -29 -83.5 -44.5t-113.5 -15.5h-172v-213h-150zM370 576h-120v-239h120q98 0 126 28q23 23 23 92q0 68 -23 91q-28 28 -126 28z" />
    <glyph glyph-name="Q" unicode="Q" horiz-adv-x="803" 
d="M630 -158l-226 143h-2q-72 0 -145 19t-113 59q-77 76 -77 287t77 287q40 40 113 59t145 19t144.5 -19t112.5 -59q78 -77 78 -287t-78 -287q-32 -32 -91 -53l151 -90zM402 109q97 0 140 43q41 41 41 198t-41 198q-43 43 -140 43q-98 0 -141 -43q-41 -41 -41 -198t41 -198
q43 -43 141 -43z" />
    <glyph glyph-name="R" unicode="R" horiz-adv-x="754" 
d="M370 576h-120v-203h120q102 0 127 25q22 22 22 77t-22 77q-24 24 -127 24zM100 0v700h322q61 0 116.5 -13t82.5 -40q52 -52 52 -172q0 -102 -54 -154q-36 -36 -124 -51l216 -270h-180l-192 259h-89v-259h-150z" />
    <glyph glyph-name="S" unicode="S" horiz-adv-x="660" 
d="M309 -14q-78 0 -145 11.5t-99 27.5v116q130 -32 237 -32q117 0 144 27q11 11 11 56t-11 56q-12 11 -85.5 26.5t-154.5 38.5t-110 52q-39 39 -39 138q0 101 39 140q71 71 239 71q144 0 231 -39v-116q-102 32 -216 32q-110 0 -137 -27q-13 -13 -13 -51t13 -51
q15 -15 168 -53t180 -65q42 -42 42 -141q0 -47 -11.5 -88t-31.5 -61q-68 -68 -251 -68z" />
    <glyph glyph-name="T" unicode="T" horiz-adv-x="700" 
d="M673 576h-249v-576h-149v576h-248v124h646v-124z" />
    <glyph glyph-name="U" unicode="U" horiz-adv-x="798" 
d="M399 -15q-75 0 -143 18t-103 54q-37 36 -50 105t-13 179v359h150v-359q0 -99 5.5 -136.5t26.5 -59.5q36 -36 127 -36t127 36q21 22 26.5 59.5t5.5 136.5v359h150v-359q0 -110 -13 -179t-50 -105q-35 -36 -103 -54t-143 -18z" />
    <glyph glyph-name="V" unicode="V" horiz-adv-x="757" 
d="M466 0h-175q-75 143 -148 333.5t-111 366.5h158q23 -119 84 -301.5t110 -275.5q47 94 108 277t83 300h150q-38 -175 -111 -365t-148 -335z" />
    <glyph glyph-name="W" unicode="W" horiz-adv-x="1134" 
d="M410 0h-177q-98 232 -201 700h159q54 -284 130 -531l160 531h172l160 -531q76 247 130 531h159q-103 -468 -201 -700h-177l-157 518z" />
    <glyph glyph-name="X" unicode="X" horiz-adv-x="756" 
d="M202 0h-174l267 346l-253 354h182l162 -238l165 238h175l-263 -346l265 -354h-183l-173 239z" />
    <glyph glyph-name="Y" unicode="Y" horiz-adv-x="740" 
d="M295 0v237q-197 242 -271 463h158q25 -72 82 -171t112 -162q53 61 109.5 160.5t82.5 172.5h148q-75 -225 -271 -463v-237h-150z" />
    <glyph glyph-name="Z" unicode="Z" horiz-adv-x="718" 
d="M665 0h-611v101l405 472h-393v127h589v-101l-408 -472h418v-127z" />
    <glyph glyph-name="bracketleft" unicode="[" horiz-adv-x="381" 
d="M79 -135v835h272v-98h-157v-639h157v-98h-272z" />
    <glyph glyph-name="backslash" unicode="\" horiz-adv-x="441" 
d="M337 -135l-347 870h114l347 -870h-114z" />
    <glyph glyph-name="bracketright" unicode="]" horiz-adv-x="381" 
d="M30 -135v98h157v639h-157v98h273v-835h-273z" />
    <glyph glyph-name="asciicircum" unicode="^" horiz-adv-x="500" 
d="M163 365h-104l144 300h95l144 -300h-105l-87 186z" />
    <glyph glyph-name="underscore" unicode="_" horiz-adv-x="500" 
d="M0 -97h500v-98h-500v98z" />
    <glyph glyph-name="grave" unicode="`" horiz-adv-x="500" 
d="M282 735l107 -143h-123l-154 143h170z" />
    <glyph glyph-name="a" unicode="a" horiz-adv-x="628" 
d="M270 100q75 0 146 38v70q-76 25 -146 25q-51 0 -69 -16q-14 -14 -14 -50q0 -37 14 -51q16 -16 69 -16zM416 0v48q-66 -62 -184 -62q-96 0 -137 41q-45 45 -45 131q0 91 39 131q50 48 153 48q93 0 174 -44v19q0 38 -4.5 56.5t-17.5 31.5q-29 29 -137 29q-94 0 -172 -27
v119q28 14 87.5 22.5t112.5 8.5q158 0 224 -66q29 -29 39 -69.5t10 -105.5v-311h-142z" />
    <glyph glyph-name="b" unicode="b" horiz-adv-x="659" 
d="M392 -15q-106 0 -176 76v-61h-142v735h142v-259q70 76 175 76q107 0 156 -52q63 -62 65 -232q-2 -171 -64 -231q-51 -52 -156 -52zM350 108q61 0 88 27q29 29 29 133q0 105 -29 133q-25 27 -88 27q-59 0 -134 -45v-230q76 -45 134 -45z" />
    <glyph glyph-name="c" unicode="c" horiz-adv-x="538" 
d="M486 17q-61 -30 -170 -32q-150 0 -212 64q-59 60 -59 221q0 156 59 219q63 63 212 63q107 0 167 -29v-115q-77 24 -148 24q-86 0 -116 -29q-31 -30 -31 -133q0 -102 31 -133q32 -33 116 -33q68 0 151 27v-114z" />
    <glyph glyph-name="d" unicode="d" horiz-adv-x="659" 
d="M309 108q58 0 133 45v231q-75 44 -133 44q-62 0 -89 -27q-29 -29 -29 -133q0 -103 29 -133q29 -27 89 -27zM442 0v60q-71 -75 -175 -75q-107 0 -156 52q-64 61 -64 231q0 168 64 232q51 52 157 52q103 0 174 -75v258h142v-735h-142z" />
    <glyph glyph-name="e" unicode="e" horiz-adv-x="590" 
d="M214 416q-20 -21 -24 -76h217q-3 55 -24 76q-27 25 -85 25q-57 0 -84 -25zM520 16q-62 -30 -202 -30q-156 0 -214 62q-59 60 -59 220q0 156 59 219q64 65 197 65q126 0 190 -65q33 -33 44 -91t11 -156h-357q3 -80 30 -104q32 -32 130 -32q91 0 171 26v-114z" />
    <glyph glyph-name="f" unicode="f" horiz-adv-x="431" 
d="M411 421h-168v-421h-142v421h-81v116h81v9q0 116 40 157q48 47 151 47q83 0 141 -21v-115q-48 17 -105 17q-51 0 -71 -20q-14 -14 -14 -65v-9h168v-116z" />
    <glyph glyph-name="g" unicode="g" horiz-adv-x="659" 
d="M309 123q59 0 134 45v215q-75 45 -134 45q-62 0 -89 -27q-29 -29 -29 -126q0 -96 29 -125q29 -27 89 -27zM293 -210q-118 0 -200 40v114q109 -35 187 -35q102 0 134 32q29 29 29 122v13q-72 -76 -179 -76q-106 0 -157 52q-60 59 -60 223q0 168 60 225q49 52 156 52
q108 0 180 -76v61h142v-466q0 -148 -67 -217q-63 -64 -225 -64z" />
    <glyph glyph-name="h" unicode="h" horiz-adv-x="658" 
d="M352 429q-64 0 -136 -47v-382h-142v735h142v-268q70 85 186 85q89 0 141 -50q46 -46 46 -139v-363h-142v301q0 87 -20 106q-21 22 -75 22z" />
    <glyph glyph-name="i" unicode="i" horiz-adv-x="291" 
d="M221 678q0 -38 -16 -55t-59 -17t-60 17.5t-17 54.5t17 54.5t60 17.5t59 -17t16 -55zM74 0v537h142v-537h-142z" />
    <glyph glyph-name="j" unicode="j" horiz-adv-x="291" 
d="M221 678q0 -38 -16 -55t-59 -17t-60 17.5t-17 54.5t17 54.5t60 17.5t59 -17t16 -55zM47 -210q-52 0 -105 17v107q37 -13 73 -13q31 0 45 15q9 9 11.5 27.5t2.5 68.5v525h142v-526q0 -72 -9.5 -111.5t-33.5 -67.5q-35 -42 -126 -42z" />
    <glyph glyph-name="k" unicode="k" horiz-adv-x="611" 
d="M423 0l-207 238v-238h-142v735h142v-397l203 199h170l-253 -243l261 -294h-174z" />
    <glyph glyph-name="l" unicode="l" horiz-adv-x="383" 
d="M212 216q0 -50 2.5 -67.5t11.5 -27.5q18 -16 47 -16q36 0 83 17v-115q-59 -21 -119 -21q-84 0 -125 40q-25 26 -33.5 70.5t-8.5 124.5v514h142v-519z" />
    <glyph glyph-name="m" unicode="m" horiz-adv-x="979" 
d="M332 429q-52 0 -116 -46v-383h-142v537h142v-70q67 85 166 85q89 0 135 -46q21 -21 34 -55q70 101 178 101q89 0 135 -46t46 -143v-363h-142v301q0 87 -20 106q-21 22 -69 22q-51 0 -117 -46q1 -6 1 -20v-363h-142v301q0 87 -19 106q-22 22 -70 22z" />
    <glyph glyph-name="n" unicode="n" horiz-adv-x="658" 
d="M352 429q-64 0 -136 -47v-382h-142v537h142v-70q70 85 186 85q89 0 141 -50q46 -46 46 -139v-363h-142v301q0 87 -20 106q-21 22 -75 22z" />
    <glyph glyph-name="o" unicode="o" horiz-adv-x="632" 
d="M528 50q-64 -65 -212 -65t-212 65q-59 62 -59 219q0 155 59 217q64 66 212 66t212 -66q59 -62 59 -217q0 -157 -59 -219zM219 133q33 -31 97 -31t97 31q29 29 29 135q0 108 -29 137q-30 30 -97 30t-97 -30t-30 -137q0 -105 30 -135z" />
    <glyph glyph-name="p" unicode="p" horiz-adv-x="659" 
d="M350 108q61 0 88 27q29 29 29 133q0 105 -29 133q-25 27 -88 27q-60 0 -134 -45v-230q75 -45 134 -45zM391 -15q-105 0 -175 76v-256h-142v732h142v-61q70 76 176 76q105 0 156 -52q62 -61 64 -232q-2 -171 -65 -231q-49 -52 -156 -52z" />
    <glyph glyph-name="q" unicode="q" horiz-adv-x="660" 
d="M586 -195h-142v256q-70 -76 -174 -76q-106 0 -157 52q-64 61 -64 231q0 169 63 232q51 52 157 52q105 0 175 -76v61h142v-732zM311 108q58 0 133 45v231q-73 44 -133 44q-62 0 -89 -27q-29 -28 -29 -133q0 -104 29 -133q29 -27 89 -27z" />
    <glyph glyph-name="r" unicode="r" horiz-adv-x="472" 
d="M373 427q-89 0 -157 -69v-358h-142v537h142v-74q71 89 178 89q34 0 57 -9v-126q-32 10 -78 10z" />
    <glyph glyph-name="s" unicode="s" horiz-adv-x="546" 
d="M255 -14q-63 0 -117.5 9t-78.5 22v111q97 -28 189 -28q85 0 103 18q10 10 10 35q0 22 -8 30q-7 7 -123 36t-146 59q-29 29 -29 107q0 81 31 114q32 32 77.5 42t112.5 10q129 0 193 -31v-110q-106 27 -182 27q-73 0 -91 -18q-6 -6 -6 -26q0 -22 6 -29q14 -12 131 -40
t139 -50q30 -30 30 -112q0 -90 -33 -123q-53 -53 -208 -53z" />
    <glyph glyph-name="t" unicode="t" horiz-adv-x="469" 
d="M423 7q-63 -21 -133 -21q-105 0 -141 43q-23 27 -32 66.5t-9 111.5v214h-80v116h80v134h142v-134h150v-116h-150v-205q0 -77 18 -95q16 -16 58 -16q46 0 97 17v-115z" />
    <glyph glyph-name="u" unicode="u" horiz-adv-x="658" 
d="M442 0v69q-69 -84 -185 -84q-92 0 -141 49q-47 49 -47 140v363h142v-301q0 -87 20 -107q22 -22 75 -22q65 0 136 47v383h142v-537h-142z" />
    <glyph glyph-name="v" unicode="v" horiz-adv-x="596" 
d="M225 0q-153 299 -207 537h150q16 -77 55 -194.5t80 -209.5q39 92 78 209.5t55 194.5h142q-54 -239 -208 -537h-145z" />
    <glyph glyph-name="w" unicode="w" horiz-adv-x="895" 
d="M340 0h-153q-43 100 -90 249t-77 288h150q34 -177 94 -372l112 372h143l112 -372q60 195 94 372h150q-31 -139 -78 -288t-89 -249h-154l-107 336z" />
    <glyph glyph-name="x" unicode="x" horiz-adv-x="623" 
d="M186 0h-165l213 270l-193 267h171l112 -163l112 163h164l-203 -265l203 -272h-171l-122 169z" />
    <glyph glyph-name="y" unicode="y" horiz-adv-x="601" 
d="M134 -209q-34 0 -64 9v118q31 -7 59 -7q37 0 61.5 17.5t54.5 72.5q-150 291 -227 536h150q51 -167 149 -378q65 163 124 378h142q-93 -333 -209 -555q-25 -49 -40 -74.5t-36 -52.5t-42 -38t-51 -18.5t-71 -7.5z" />
    <glyph glyph-name="z" unicode="z" horiz-adv-x="570" 
d="M524 0h-478v90l282 331h-272v116h458v-91h-1l1 -1l-284 -329h294v-116z" />
    <glyph glyph-name="braceleft" unicode="{" horiz-adv-x="389" 
d="M14 233v98q65 0 79 14q16 16 16 98v33q0 71 11 111t37 67q46 46 202 46v-98q-95 0 -116 -20q-19 -19 -19 -106v-32q0 -76 -19 -109q-12 -24 -59 -52q47 -30 60 -54q18 -34 18 -107v-33q0 -85 20 -105q22 -22 115 -20v-98q-152 -3 -201 46t-49 177v34q0 82 -16 98
q-12 12 -79 12z" />
    <glyph glyph-name="bar" unicode="|" horiz-adv-x="300" 
d="M203 735v-870h-106v870h106z" />
    <glyph glyph-name="braceright" unicode="}" horiz-adv-x="389" 
d="M375 331v-98q-65 0 -79 -14q-16 -16 -16 -97v-34q0 -71 -11 -111t-37 -67q-46 -46 -202 -46v99q96 0 116 20q19 19 19 105v33q0 75 19 108q12 24 59 52q-47 30 -60 54q-18 34 -18 107v33q0 85 -20 105q-23 23 -115 20v98q152 3 201 -46t49 -177v-34q0 -82 16 -98
q12 -12 79 -12z" />
    <glyph glyph-name="asciitilde" unicode="~" horiz-adv-x="500" 
d="M61 207q0 122 26 146q23 23 70 23q43 0 68 -14q11 -7 46 -39.5t39 -35.5q9 -5 23 -5q13 0 20 6q10 12 10 77h77q0 -121 -26 -147q-22 -22 -69 -22q-46 0 -69 13q-11 7 -46 39t-39 35q-10 7 -23 7t-20 -7q-10 -10 -10 -76h-77z" />
    <glyph glyph-name="exclamdown" unicode="&#xa1;" horiz-adv-x="291" 
d="M225 470q0 -82 -80 -82q-81 0 -81 82t81 82q80 0 80 -82zM203 306l17 -467h-149l17 467h115z" />
    <glyph glyph-name="cent" unicode="&#xa2;" 
d="M526 101q-42 -23 -123 -29v-159h-110v157q-139 10 -190 64q-59 60 -59 219q0 156 59 219q51 52 190 62v156h110v-156q76 -6 120 -28v-119q-57 19 -120 23v-314q59 4 123 25v-120zM221 225q20 -20 72 -27v310q-51 -5 -72 -26q-31 -31 -31 -129t31 -128z" />
    <glyph glyph-name="sterling" unicode="&#xa3;" 
d="M537 0h-503v120h105v178h-102v104h102v69q0 137 46 183q61 61 182 61q91 0 156 -28v-119q-66 19 -127 19q-70 0 -91 -21q-20 -20 -20 -97v-67h209v-104h-209v-178h252v-120z" />
    <glyph glyph-name="currency" unicode="&#xa4;" 
d="M425 145l-48 48q-38 -13 -85 -13q-50 0 -87 14l-48 -48l-70 70l50 50q-11 33 -11 84t11 84l-50 50l69 70l48 -48q38 14 88 14q48 0 86 -13l47 47l70 -70l-48 -48q11 -34 11 -86q0 -53 -11 -87l48 -48zM292 258q35 0 51 18q18 17 18 74q0 59 -18 76q-14 16 -51 16t-51 -16
q-18 -17 -18 -76q0 -57 18 -74q16 -18 51 -18z" />
    <glyph glyph-name="yen" unicode="&#xa5;" 
d="M218 0v218h-175v103h175v58h-175v104h100q-56 85 -126 217h157q70 -141 123 -212q56 74 121 212h147q-69 -132 -126 -217h101v-104h-176v-58h176v-103h-176v-218h-146z" />
    <glyph glyph-name="brokenbar" unicode="&#xa6;" horiz-adv-x="300" 
d="M203 412h-106v323h106v-323zM203 188v-323h-106v323h106z" />
    <glyph glyph-name="section" unicode="&#xa7;" horiz-adv-x="549" 
d="M191 262q10 -9 31.5 -17.5t59 -20t56.5 -17.5q8 6 13 14q13 18 13 54q0 31 -12 43q-9 9 -30 17.5t-59.5 20t-56.5 17.5q-9 -7 -14 -15q-12 -19 -12 -53q0 -30 11 -43zM253 -135q-91 0 -158 29v108q86 -27 147 -27q67 0 84 17q12 12 12 50q0 31 -9 40q-15 15 -108.5 47
t-119.5 57q-29 29 -29 96q0 68 31 100q14 14 31 24q-2 2 -6 5t-7 5.5t-5 4.5q-30 30 -30 112q0 96 37 133q49 49 168 49q94 0 158 -30v-107q-92 27 -147 27q-67 0 -84 -17q-13 -13 -13 -50q0 -31 10 -41q15 -15 108.5 -46.5t119.5 -57.5q29 -29 29 -95q0 -69 -31 -100
q-15 -15 -32 -24q10 -7 19 -16q30 -30 30 -111q0 -96 -37 -133q-49 -49 -168 -49z" />
    <glyph glyph-name="dieresis" unicode="&#xa8;" horiz-adv-x="500" 
d="M217 678q0 -37 -16.5 -54.5t-54.5 -17.5t-55 18t-17 56q0 36 17 53t55 17t54.5 -17.5t16.5 -54.5zM426 678q0 -37 -16.5 -54.5t-53.5 -17.5q-38 0 -55 18t-17 55q0 36 17 53.5t55 17.5q37 0 53.5 -17.5t16.5 -54.5z" />
    <glyph glyph-name="copyright" unicode="&#xa9;" horiz-adv-x="840" 
d="M420 -15q-179 0 -272 93q-88 86 -88 272q0 185 88 273q93 92 272 92q180 0 272 -92q88 -88 88 -273q0 -186 -88 -272q-92 -93 -272 -93zM420 636q-145 0 -213 -65q-28 -29 -46.5 -88t-18.5 -133q0 -76 18 -135t47 -86q65 -65 213 -65t213 65q28 29 46.5 88t18.5 133
t-18.5 133t-46.5 88q-68 65 -213 65zM560 156q-39 -20 -126 -20q-116 0 -159 43q-47 48 -47 172t47 171q25 25 70.5 36.5t88.5 11.5q72 0 120 -24v-78q-57 19 -108 19q-65 0 -89 -24q-26 -26 -26 -112q0 -85 26 -111q22 -23 89 -25q51 0 114 18v-77z" />
    <glyph glyph-name="ordfeminine" unicode="&#xaa;" horiz-adv-x="437" 
d="M194 433q39 0 80 20v39q-43 12 -80 12q-30 0 -37 -8q-8 -8 -8 -27q0 -20 8 -27q7 -9 37 -9zM274 370v32q-42 -40 -111 -40q-57 0 -80 23q-26 26 -26 78q0 56 23 79q27 27 94 27q52 0 100 -24v11q0 35 -12 47q-16 17 -80 17q-51 0 -104 -17v80q36 19 122 19q98 0 139 -41
q31 -31 31 -105v-186h-96zM68 308h302v-82h-302v82z" />
    <glyph glyph-name="guillemotleft" unicode="&#xab;" horiz-adv-x="503" 
d="M142 65l-118 207l118 206h123l-109 -206l109 -207h-123zM353 65l-118 207l118 206h123l-109 -206l109 -207h-123z" />
    <glyph glyph-name="logicalnot" unicode="&#xac;" 
d="M499 131h-99v177h-317v99h416v-276z" />
    <glyph glyph-name="registered" unicode="&#xae;" horiz-adv-x="840" 
d="M420 -15q-179 0 -272 93q-88 86 -88 272q0 185 88 273q93 92 272 92q180 0 272 -92q88 -88 88 -273q0 -186 -88 -272q-92 -93 -272 -93zM420 636q-145 0 -213 -65q-28 -29 -46.5 -88t-18.5 -133q0 -76 18 -135t47 -86q65 -65 213 -65t213 65q28 29 46.5 88t18.5 133
t-18.5 133t-46.5 88q-68 65 -213 65zM420 477h-65v-109h65q58 0 70 13q13 12 13 42q0 29 -13 42q-12 12 -70 12zM254 140v420h202q86 0 118 -32t32 -105q0 -59 -33 -94q-20 -20 -73 -30l112 -159h-116l-95 151h-46v-151h-101z" />
    <glyph glyph-name="macron" unicode="&#xaf;" horiz-adv-x="500" 
d="M105 711h291v-86h-291v86z" />
    <glyph glyph-name="degree" unicode="&#xb0;" horiz-adv-x="440" 
d="M350 401q-39 -40 -130 -40t-130 40q-36 37 -36 131q0 93 36 130q39 40 130 40t130 -40q36 -37 36 -130q0 -94 -36 -131zM169 457q15 -17 51 -17t51 17q18 17 18 75t-18 76q-16 16 -51 16t-51 -16q-18 -18 -18 -76t18 -75z" />
    <glyph glyph-name="plusminus" unicode="&#xb1;" horiz-adv-x="584" 
d="M499 290h-158v-86h-99v86h-159v99h159v88h99v-88h158v-99zM499 61h-416v99h416v-99z" />
    <glyph glyph-name="twosuperior" unicode="&#xb2;" horiz-adv-x="357" 
d="M321 370h-291v65l151 137q25 25 32 42.5t7 43.5q0 27 -13 40q-16 16 -61 16q-52 0 -115 -22v84q46 23 128 23q95 0 135 -40q27 -27 27 -95q0 -46 -13.5 -74t-48.5 -61l-82 -75h144v-84z" />
    <glyph glyph-name="threesuperior" unicode="&#xb3;" horiz-adv-x="356" 
d="M152 361q-78 0 -117 21v81q54 -17 115 -17q54 0 68 14q12 12 12 33q0 19 -11 30q-16 17 -151 17v70l107 96h-146v84h290v-65l-120 -109q75 -8 101 -35q31 -31 31 -88q0 -62 -33 -96q-36 -36 -146 -36z" />
    <glyph glyph-name="acute" unicode="&#xb4;" horiz-adv-x="500" 
d="M235 592h-123l107 143h170z" />
    <glyph glyph-name="paragraph" unicode="&#xb6;" horiz-adv-x="721" 
d="M620 700v-700h-107v700h107zM421 0h-107v257q-164 0 -218 53q-52 52 -52 170q0 116 51 165q54 55 219 55h107v-700z" />
    <glyph glyph-name="periodcentered" unicode="&#xb7;" horiz-adv-x="291" 
d="M65 279q0 82 81 82t81 -82q0 -81 -81 -81t-81 81z" />
    <glyph glyph-name="cedilla" unicode="&#xb8;" horiz-adv-x="500" 
d="M242 -210q-59 0 -101 14v64q41 -12 85 -12q33 0 43 8q6 5 6 17q0 10 -6 16q-10 8 -43 8q-20 0 -60 -5v28l46 80h76l-28 -48q69 -4 90 -25q19 -19 19 -60q0 -40 -20 -60q-24 -25 -107 -25z" />
    <glyph glyph-name="onesuperior" unicode="&#xb9;" horiz-adv-x="356" 
d="M270 370h-101v293l-117 -87v116l133 98h85v-420z" />
    <glyph glyph-name="ordmasculine" unicode="&#xba;" horiz-adv-x="440" 
d="M350 401q-39 -40 -130 -40t-130 40q-36 37 -36 131q0 93 36 130q39 40 130 40t130 -40q36 -37 36 -130q0 -94 -36 -131zM169 457q15 -17 51 -17t51 17q18 17 18 75t-18 76q-16 16 -51 16t-51 -16q-18 -18 -18 -76t18 -75zM69 308h302v-82h-302v82z" />
    <glyph glyph-name="guillemotright" unicode="&#xbb;" horiz-adv-x="501" 
d="M148 478l119 -207l-119 -206h-123l109 206l-109 207h123zM358 478l119 -207l-119 -206h-123l109 206l-109 207h123z" />
    <glyph glyph-name="onequarter" unicode="&#xbc;" horiz-adv-x="907" 
d="M648 700h114l-431 -700h-114zM270 280h-101v293l-117 -87v116l133 98h85v-420zM750 180v104l-73 -104h73zM898 97h-47v-97h-101v97h-182v64l189 259h94v-240h47v-83z" />
    <glyph glyph-name="onehalf" unicode="&#xbd;" horiz-adv-x="908" 
d="M612 700h114l-431 -700h-114zM270 280h-101v293l-117 -87v116l133 98h85v-420zM872 0h-291v65l151 137q25 25 32 42.5t7 43.5q0 27 -13 40q-16 16 -61 16q-52 0 -115 -22v84q46 23 128 23q95 0 135 -40q27 -27 27 -95q0 -46 -13.5 -74t-48.5 -61l-82 -75h144v-84z" />
    <glyph glyph-name="threequarters" unicode="&#xbe;" horiz-adv-x="907" 
d="M648 700h114l-431 -700h-114zM152 271q-78 0 -117 21v81q54 -17 115 -17q54 0 68 14q12 12 12 33q0 19 -11 30q-16 17 -151 17v70l107 96h-146v84h290v-65l-120 -109q75 -8 101 -35q31 -31 31 -88q0 -62 -33 -96q-36 -36 -146 -36zM750 180v104l-73 -104h73zM898 97h-47
v-97h-101v97h-182v64l189 259h94v-240h47v-83z" />
    <glyph glyph-name="questiondown" unicode="&#xbf;" horiz-adv-x="480" 
d="M390 470q0 -82 -80 -82q-82 0 -82 82t82 82q80 0 80 -82zM248 322h123v-156q-73 -18 -115 -32.5t-55.5 -22t-23.5 -17.5q-22 -22 -22 -67q0 -43 22 -65q24 -22 106 -22q63 0 160 19v-115q-72 -21 -175 -21q-138 0 -194 56q-47 47 -47 146q0 98 47 144q14 15 25.5 23.5
t49 24.5t99.5 33v72z" />
    <glyph glyph-name="Agrave" unicode="&#xc0;" horiz-adv-x="773" 
d="M318 876l132 -131h-138l-183 131h189zM383 577q-44 -83 -106 -263h211q-63 181 -105 263zM577 0q-15 78 -50 191h-290q-36 -123 -49 -191h-148q38 175 111 366t147 334h176q75 -145 148 -334.5t111 -365.5h-156z" />
    <glyph glyph-name="Aacute" unicode="&#xc1;" horiz-adv-x="773" 
d="M459 745h-138l132 131h189zM383 577q-44 -83 -106 -263h211q-63 181 -105 263zM577 0q-15 78 -50 191h-290q-36 -123 -49 -191h-148q38 175 111 366t147 334h176q75 -145 148 -334.5t111 -365.5h-156z" />
    <glyph glyph-name="Acircumflex" unicode="&#xc2;" horiz-adv-x="773" 
d="M309 745h-113l110 130h163l110 -130h-113l-78 66zM383 577q-44 -83 -106 -263h211q-63 181 -105 263zM577 0q-15 78 -50 191h-290q-36 -123 -49 -191h-148q38 175 111 366t147 334h176q75 -145 148 -334.5t111 -365.5h-156z" />
    <glyph glyph-name="Atilde" unicode="&#xc3;" horiz-adv-x="773" 
d="M213 749q0 76 27 105q22 22 63 22q38 0 89 -18t60 -18q15 0 20 8q7 7 7 27h82q0 -78 -27 -105q-22 -22 -63 -22q-37 0 -87.5 18t-59.5 18q-15 0 -22 -8q-7 -7 -7 -27h-82zM383 577q-44 -83 -106 -263h211q-63 181 -105 263zM577 0q-15 78 -50 191h-290q-36 -123 -49 -191
h-148q38 175 111 366t147 334h176q75 -145 148 -334.5t111 -365.5h-156z" />
    <glyph glyph-name="Adieresis" unicode="&#xc4;" horiz-adv-x="773" 
d="M354 819q0 -37 -16.5 -54.5t-54.5 -17.5q-72 0 -72 73q0 37 17 54t55 17t54.5 -17.5t16.5 -54.5zM563 819q0 -37 -16.5 -54.5t-53.5 -17.5q-38 0 -55 18t-17 55q0 36 17 53.5t55 17.5q37 0 53.5 -17.5t16.5 -54.5zM383 577q-44 -83 -106 -263h211q-63 181 -105 263z
M577 0q-15 78 -50 191h-290q-36 -123 -49 -191h-148q38 175 111 366t147 334h176q75 -145 148 -334.5t111 -365.5h-156z" />
    <glyph glyph-name="Aring" unicode="&#xc5;" horiz-adv-x="773" 
d="M387 911q65 0 89 -25q21 -20 21 -63t-21 -63q-24 -25 -89 -25t-89 25q-20 19 -20 63t20 63q24 25 89 25zM387 786q26 0 34 9q8 7 8 28t-8 28q-8 9 -34 9t-34 -9q-8 -7 -8 -28t8 -28q8 -9 34 -9zM383 577q-44 -83 -106 -263h211q-63 181 -105 263zM577 0q-15 78 -50 191
h-290q-36 -123 -49 -191h-148q38 175 111 366t147 334h176q75 -145 148 -334.5t111 -365.5h-156z" />
    <glyph glyph-name="AE" unicode="&#xc6;" horiz-adv-x="1111" 
d="M514 306v281q-94 -134 -178 -281h178zM514 0v183h-244q-53 -104 -85 -183h-163q91 199 208.5 393.5t213.5 306.5h594v-124h-374v-159h342v-124h-342v-169h374v-124h-524z" />
    <glyph glyph-name="Ccedilla" unicode="&#xc7;" horiz-adv-x="679" 
d="M377 -210q-59 0 -101 14v64q40 -12 85 -12q33 0 43 8q6 5 6 17q0 10 -6 16q-10 8 -43 8q-20 0 -60 -5v28l35 61q-135 15 -192 74q-77 76 -77 287q0 210 77 287q40 40 114 59t146 19q119 0 197 -39v-116q-95 31 -180 31q-113 0 -155 -42q-46 -46 -46 -198q0 -153 46 -198
q40 -41 155 -44q96 0 191 31v-116q-77 -37 -202 -39l-15 -25q69 -4 90 -25q19 -19 19 -60q0 -40 -20 -60q-24 -25 -107 -25z" />
    <glyph glyph-name="Egrave" unicode="&#xc8;" horiz-adv-x="697" 
d="M309 876l132 -131h-138l-183 131h189zM624 124v-124h-524v700h524v-124h-374v-159h342v-124h-342v-169h374z" />
    <glyph glyph-name="Eacute" unicode="&#xc9;" horiz-adv-x="697" 
d="M436 745h-138l132 131h189zM624 124v-124h-524v700h524v-124h-374v-159h342v-124h-342v-169h374z" />
    <glyph glyph-name="Ecircumflex" unicode="&#xca;" horiz-adv-x="697" 
d="M290 745h-113l110 130h163l110 -130h-113l-78 66zM624 124v-124h-524v700h524v-124h-374v-159h342v-124h-342v-169h374z" />
    <glyph glyph-name="Edieresis" unicode="&#xcb;" horiz-adv-x="697" 
d="M335 819q0 -37 -16.5 -54.5t-54.5 -17.5q-72 0 -72 73q0 37 17 54t55 17t54.5 -17.5t16.5 -54.5zM544 819q0 -37 -16.5 -54.5t-53.5 -17.5q-38 0 -55 18t-17 55q0 36 17 53.5t55 17.5q37 0 53.5 -17.5t16.5 -54.5zM624 124v-124h-524v700h524v-124h-374v-159h342v-124
h-342v-169h374z" />
    <glyph glyph-name="Igrave" unicode="&#xcc;" horiz-adv-x="367" 
d="M121 876l132 -131h-138l-183 131h189zM109 0v700h149v-700h-149z" />
    <glyph glyph-name="Iacute" unicode="&#xcd;" horiz-adv-x="367" 
d="M255 745h-138l132 131h189zM109 0v700h149v-700h-149z" />
    <glyph glyph-name="Icircumflex" unicode="&#xce;" horiz-adv-x="367" 
d="M106 745h-113l110 130h163l110 -130h-113l-78 66zM109 0v700h149v-700h-149z" />
    <glyph glyph-name="Idieresis" unicode="&#xcf;" horiz-adv-x="367" 
d="M151 819q0 -37 -16.5 -54.5t-54.5 -17.5q-72 0 -72 73q0 37 17 54t55 17t54.5 -17.5t16.5 -54.5zM360 819q0 -37 -16.5 -54.5t-53.5 -17.5q-38 0 -55 18t-17 55q0 36 17 53.5t55 17.5q37 0 53.5 -17.5t16.5 -54.5zM109 0v700h149v-700h-149z" />
    <glyph glyph-name="Eth" unicode="&#xd0;" horiz-adv-x="785" 
d="M408 312h-158v-188h117q67 0 102.5 7.5t55.5 27.5q43 43 43 191t-43 191q-20 20 -55.5 27.5t-102.5 7.5h-117v-166h158v-98zM100 0v312h-80v98h80v290h284q184 0 264 -80q41 -41 57 -106.5t16 -163.5q0 -99 -15.5 -163.5t-57.5 -106.5q-80 -80 -264 -80h-284z" />
    <glyph glyph-name="Ntilde" unicode="&#xd1;" horiz-adv-x="836" 
d="M245 749q0 76 27 105q22 22 63 22q38 0 89 -18t60 -18q15 0 20 8q7 7 7 27h82q0 -78 -27 -105q-22 -22 -63 -22q-37 0 -87.5 18t-59.5 18q-15 0 -22 -8q-7 -7 -7 -27h-82zM613 0l-372 445v-445h-141v700h123l371 -445v445h142v-700h-123z" />
    <glyph glyph-name="Ograve" unicode="&#xd2;" horiz-adv-x="803" 
d="M343 876l132 -131h-138l-183 131h189zM402 -15q-72 0 -145 19t-113 59q-77 76 -77 287t77 287q40 40 113 59t145 19t144.5 -19t112.5 -59q78 -77 78 -287t-78 -287q-40 -40 -112.5 -59t-144.5 -19zM402 109q97 0 140 43q41 41 41 198t-41 198q-43 43 -140 43
q-98 0 -141 -43q-41 -41 -41 -198t41 -198q43 -43 141 -43z" />
    <glyph glyph-name="Oacute" unicode="&#xd3;" horiz-adv-x="803" 
d="M473 745h-138l132 131h189zM402 -15q-72 0 -145 19t-113 59q-77 76 -77 287t77 287q40 40 113 59t145 19t144.5 -19t112.5 -59q78 -77 78 -287t-78 -287q-40 -40 -112.5 -59t-144.5 -19zM402 109q97 0 140 43q41 41 41 198t-41 198q-43 43 -140 43q-98 0 -141 -43
q-41 -41 -41 -198t41 -198q43 -43 141 -43z" />
    <glyph glyph-name="Ocircumflex" unicode="&#xd4;" horiz-adv-x="803" 
d="M324 745h-113l110 130h163l110 -130h-113l-78 66zM402 -15q-72 0 -145 19t-113 59q-77 76 -77 287t77 287q40 40 113 59t145 19t144.5 -19t112.5 -59q78 -77 78 -287t-78 -287q-40 -40 -112.5 -59t-144.5 -19zM402 109q97 0 140 43q41 41 41 198t-41 198q-43 43 -140 43
q-98 0 -141 -43q-41 -41 -41 -198t41 -198q43 -43 141 -43z" />
    <glyph glyph-name="Otilde" unicode="&#xd5;" horiz-adv-x="803" 
d="M228 749q0 76 27 105q22 22 63 22q38 0 89 -18t60 -18q15 0 20 8q7 7 7 27h82q0 -78 -27 -105q-22 -22 -63 -22q-37 0 -87.5 18t-59.5 18q-15 0 -22 -8q-7 -7 -7 -27h-82zM402 -15q-72 0 -145 19t-113 59q-77 76 -77 287t77 287q40 40 113 59t145 19t144.5 -19t112.5 -59
q78 -77 78 -287t-78 -287q-40 -40 -112.5 -59t-144.5 -19zM402 109q97 0 140 43q41 41 41 198t-41 198q-43 43 -140 43q-98 0 -141 -43q-41 -41 -41 -198t41 -198q43 -43 141 -43z" />
    <glyph glyph-name="Odieresis" unicode="&#xd6;" horiz-adv-x="803" 
d="M369 819q0 -37 -16.5 -54.5t-54.5 -17.5q-72 0 -72 73q0 37 17 54t55 17t54.5 -17.5t16.5 -54.5zM578 819q0 -37 -16.5 -54.5t-53.5 -17.5q-38 0 -55 18t-17 55q0 36 17 53.5t55 17.5q37 0 53.5 -17.5t16.5 -54.5zM402 -15q-72 0 -145 19t-113 59q-77 76 -77 287t77 287
q40 40 113 59t145 19t144.5 -19t112.5 -59q78 -77 78 -287t-78 -287q-40 -40 -112.5 -59t-144.5 -19zM402 109q97 0 140 43q41 41 41 198t-41 198q-43 43 -140 43q-98 0 -141 -43q-41 -41 -41 -198t41 -198q43 -43 141 -43z" />
    <glyph glyph-name="multiply" unicode="&#xd7;" 
d="M425 64l-134 134l-134 -134l-70 70l134 134l-134 134l69 70l135 -134l134 134l70 -69l-135 -135l135 -135z" />
    <glyph glyph-name="Oslash" unicode="&#xd8;" horiz-adv-x="803" 
d="M220 350q0 -92 13 -143l272 366q-39 18 -103 18q-98 0 -141 -43q-41 -41 -41 -198zM402 109q97 0 140 43q41 41 41 198q0 93 -13 142l-272 -365q41 -18 104 -18zM402 -15q-103 0 -185 32l-24 -32h-126l67 89q-67 78 -67 276q0 211 77 287q40 40 113 59t145 19
q103 0 185 -32l24 32h125l-66 -89q67 -80 67 -276q0 -210 -78 -287q-40 -40 -112.5 -59t-144.5 -19z" />
    <glyph glyph-name="Ugrave" unicode="&#xd9;" horiz-adv-x="798" 
d="M332 876l132 -131h-138l-183 131h189zM399 -15q-75 0 -143 18t-103 54q-37 36 -50 105t-13 179v359h150v-359q0 -99 5.5 -136.5t26.5 -59.5q36 -36 127 -36t127 36q21 22 26.5 59.5t5.5 136.5v359h150v-359q0 -110 -13 -179t-50 -105q-35 -36 -103 -54t-143 -18z" />
    <glyph glyph-name="Uacute" unicode="&#xda;" horiz-adv-x="798" 
d="M462 745h-138l132 131h189zM399 -15q-75 0 -143 18t-103 54q-37 36 -50 105t-13 179v359h150v-359q0 -99 5.5 -136.5t26.5 -59.5q36 -36 127 -36t127 36q21 22 26.5 59.5t5.5 136.5v359h150v-359q0 -110 -13 -179t-50 -105q-35 -36 -103 -54t-143 -18z" />
    <glyph glyph-name="Ucircumflex" unicode="&#xdb;" horiz-adv-x="798" 
d="M321 745h-113l110 130h163l110 -130h-113l-78 66zM399 -15q-75 0 -143 18t-103 54q-37 36 -50 105t-13 179v359h150v-359q0 -99 5.5 -136.5t26.5 -59.5q36 -36 127 -36t127 36q21 22 26.5 59.5t5.5 136.5v359h150v-359q0 -110 -13 -179t-50 -105q-35 -36 -103 -54
t-143 -18z" />
    <glyph glyph-name="Udieresis" unicode="&#xdc;" horiz-adv-x="798" 
d="M366 819q0 -37 -16.5 -54.5t-54.5 -17.5q-72 0 -72 73q0 37 17 54t55 17t54.5 -17.5t16.5 -54.5zM575 819q0 -37 -16.5 -54.5t-53.5 -17.5q-38 0 -55 18t-17 55q0 36 17 53.5t55 17.5q37 0 53.5 -17.5t16.5 -54.5zM399 -15q-75 0 -143 18t-103 54q-37 36 -50 105t-13 179
v359h150v-359q0 -99 5.5 -136.5t26.5 -59.5q36 -36 127 -36t127 36q21 22 26.5 59.5t5.5 136.5v359h150v-359q0 -110 -13 -179t-50 -105q-35 -36 -103 -54t-143 -18z" />
    <glyph glyph-name="Yacute" unicode="&#xdd;" horiz-adv-x="740" 
d="M441 745h-138l132 131h189zM295 0v237q-197 242 -271 463h158q25 -72 82 -171t112 -162q53 61 109.5 160.5t82.5 172.5h148q-75 -225 -271 -463v-237h-150z" />
    <glyph glyph-name="Thorn" unicode="&#xde;" horiz-adv-x="716" 
d="M100 0v700h150v-85h172q60 0 114 -16t83 -45q54 -52 54 -183q0 -129 -54 -183q-29 -29 -83 -44.5t-114 -15.5h-172v-128h-150zM370 491h-120v-240h120q97 0 126 28q23 24 23 92t-23 92q-28 28 -126 28z" />
    <glyph glyph-name="germandbls" unicode="&#xdf;" horiz-adv-x="707" 
d="M477 -14q-94 0 -150 29v111q89 -26 143 -26t70 16q12 12 12 39q0 25 -9 34q-6 6 -81.5 35.5t-101.5 55.5q-30 30 -30 96q0 67 29 102q5 6 35.5 40t41.5 49q6 8 6 24q0 17 -8 26q-14 14 -82 14q-72 0 -93 -21q-16 -16 -16 -64v-546h-142v421h-81v116h81v9q0 107 46 153
q30 30 79 40.5t128 10.5q69 0 124 -13t79 -37q28 -28 28 -84t-22 -90q-9 -13 -46 -53t-49 -58q-8 -11 -8 -28t12 -28q11 -9 86.5 -38t96.5 -51q30 -29 30 -111q0 -89 -33 -122q-51 -51 -175 -51z" />
    <glyph glyph-name="agrave" unicode="&#xe0;" horiz-adv-x="628" 
d="M271 735l107 -143h-123l-154 143h170zM270 100q75 0 146 38v70q-76 25 -146 25q-51 0 -69 -16q-14 -14 -14 -50q0 -37 14 -51q16 -16 69 -16zM416 0v48q-66 -62 -184 -62q-96 0 -137 41q-45 45 -45 131q0 91 39 131q50 48 153 48q93 0 174 -44v19q0 38 -4.5 56.5
t-17.5 31.5q-29 29 -137 29q-94 0 -172 -27v119q28 14 87.5 22.5t112.5 8.5q158 0 224 -66q29 -29 39 -69.5t10 -105.5v-311h-142z" />
    <glyph glyph-name="aacute" unicode="&#xe1;" horiz-adv-x="628" 
d="M374 592h-123l107 143h170zM270 100q75 0 146 38v70q-76 25 -146 25q-51 0 -69 -16q-14 -14 -14 -50q0 -37 14 -51q16 -16 69 -16zM416 0v48q-66 -62 -184 -62q-96 0 -137 41q-45 45 -45 131q0 91 39 131q50 48 153 48q93 0 174 -44v19q0 38 -4.5 56.5t-17.5 31.5
q-29 29 -137 29q-94 0 -172 -27v119q28 14 87.5 22.5t112.5 8.5q158 0 224 -66q29 -29 39 -69.5t10 -105.5v-311h-142z" />
    <glyph glyph-name="acircumflex" unicode="&#xe2;" horiz-adv-x="628" 
d="M236 592h-113l110 143h163l110 -143h-113l-79 75zM270 100q75 0 146 38v70q-76 25 -146 25q-51 0 -69 -16q-14 -14 -14 -50q0 -37 14 -51q16 -16 69 -16zM416 0v48q-66 -62 -184 -62q-96 0 -137 41q-45 45 -45 131q0 91 39 131q50 48 153 48q93 0 174 -44v19
q0 38 -4.5 56.5t-17.5 31.5q-29 29 -137 29q-94 0 -172 -27v119q28 14 87.5 22.5t112.5 8.5q158 0 224 -66q29 -29 39 -69.5t10 -105.5v-311h-142z" />
    <glyph glyph-name="atilde" unicode="&#xe3;" horiz-adv-x="628" 
d="M140 597q0 86 27 113q22 22 63 22q38 0 90 -21.5t60 -21.5q14 0 19 7q7 7 7 35h82q0 -86 -27 -113q-22 -22 -63 -22q-37 0 -89 21.5t-60 21.5q-14 0 -20 -7q-7 -7 -7 -35h-82zM270 100q75 0 146 38v70q-76 25 -146 25q-51 0 -69 -16q-14 -14 -14 -50q0 -37 14 -51
q16 -16 69 -16zM416 0v48q-66 -62 -184 -62q-96 0 -137 41q-45 45 -45 131q0 91 39 131q50 48 153 48q93 0 174 -44v19q0 38 -4.5 56.5t-17.5 31.5q-29 29 -137 29q-94 0 -172 -27v119q28 14 87.5 22.5t112.5 8.5q158 0 224 -66q29 -29 39 -69.5t10 -105.5v-311h-142z" />
    <glyph glyph-name="adieresis" unicode="&#xe4;" horiz-adv-x="628" 
d="M281 678q0 -37 -16.5 -54.5t-54.5 -17.5t-55 18t-17 56q0 36 17 53t55 17t54.5 -17.5t16.5 -54.5zM490 678q0 -37 -16.5 -54.5t-53.5 -17.5q-38 0 -55 18t-17 55q0 36 17 53.5t55 17.5q37 0 53.5 -17.5t16.5 -54.5zM270 100q75 0 146 38v70q-76 25 -146 25q-51 0 -69 -16
q-14 -14 -14 -50q0 -37 14 -51q16 -16 69 -16zM416 0v48q-66 -62 -184 -62q-96 0 -137 41q-45 45 -45 131q0 91 39 131q50 48 153 48q93 0 174 -44v19q0 38 -4.5 56.5t-17.5 31.5q-29 29 -137 29q-94 0 -172 -27v119q28 14 87.5 22.5t112.5 8.5q158 0 224 -66
q29 -29 39 -69.5t10 -105.5v-311h-142z" />
    <glyph glyph-name="aring" unicode="&#xe5;" horiz-adv-x="628" 
d="M314 758q64 0 89 -25q21 -21 21 -64t-21 -63q-24 -25 -89 -25t-89 25q-20 19 -20 63t20 64q25 25 89 25zM314 631q25 0 34 10q8 7 8 28q0 22 -8 29q-8 9 -34 9t-34 -9q-8 -7 -8 -29q0 -21 8 -28q9 -10 34 -10zM270 100q75 0 146 38v70q-76 25 -146 25q-51 0 -69 -16
q-14 -14 -14 -50q0 -37 14 -51q16 -16 69 -16zM416 0v48q-66 -62 -184 -62q-96 0 -137 41q-45 45 -45 131q0 91 39 131q50 48 153 48q93 0 174 -44v19q0 38 -4.5 56.5t-17.5 31.5q-29 29 -137 29q-94 0 -172 -27v119q28 14 87.5 22.5t112.5 8.5q158 0 224 -66
q29 -29 39 -69.5t10 -105.5v-311h-142z" />
    <glyph glyph-name="ae" unicode="&#xe6;" horiz-adv-x="961" 
d="M585 416q-21 -21 -25 -76h217q-3 55 -24 76q-25 25 -84 25t-84 -25zM688 -14q-152 -2 -214 62q-14 16 -20 26q-94 -88 -222 -88q-96 0 -137 41q-45 45 -45 131q0 91 39 131q50 48 153 48q93 0 174 -44v19q0 38 -5 56t-18 31q-30 30 -136 30q-94 0 -172 -27v119
q28 14 87.5 22.5t112.5 8.5q145 0 213 -59q67 59 173 59q126 0 190 -65q34 -33 44.5 -90.5t10.5 -156.5h-357q3 -78 30 -104q33 -32 130 -32q91 0 172 26v-114q-63 -30 -203 -30zM270 100q77 0 157 47q-6 29 -9 60q-77 26 -148 26q-51 0 -69 -16q-14 -14 -14 -50
q0 -37 14 -51q16 -16 69 -16z" />
    <glyph glyph-name="ccedilla" unicode="&#xe7;" horiz-adv-x="530" 
d="M293 -210q-59 0 -101 14v64q40 -12 85 -12q33 0 43 8q6 5 6 17q0 10 -6 16q-10 8 -43 8q-20 0 -60 -5v28l35 61q-100 11 -148 60q-59 60 -59 221q0 156 59 219q63 63 212 63q107 0 167 -29v-115q-77 24 -148 24q-86 0 -116 -29q-31 -30 -31 -133q0 -102 31 -133
q32 -33 116 -33q68 0 151 27v-114q-58 -29 -160 -32l-15 -25q69 -4 90 -25q19 -19 19 -60q0 -40 -20 -60q-24 -25 -107 -25z" />
    <glyph glyph-name="egrave" unicode="&#xe8;" horiz-adv-x="590" 
d="M258 735l107 -143h-123l-154 143h170zM214 416q-20 -21 -24 -76h217q-3 55 -24 76q-27 25 -85 25q-57 0 -84 -25zM520 16q-62 -30 -202 -30q-156 0 -214 62q-59 60 -59 220q0 156 59 219q64 65 197 65q126 0 190 -65q33 -33 44 -91t11 -156h-357q3 -80 30 -104
q32 -32 130 -32q91 0 171 26v-114z" />
    <glyph glyph-name="eacute" unicode="&#xe9;" horiz-adv-x="590" 
d="M359 592h-123l107 143h170zM214 416q-20 -21 -24 -76h217q-3 55 -24 76q-27 25 -85 25q-57 0 -84 -25zM520 16q-62 -30 -202 -30q-156 0 -214 62q-59 60 -59 220q0 156 59 219q64 65 197 65q126 0 190 -65q33 -33 44 -91t11 -156h-357q3 -80 30 -104q32 -32 130 -32
q91 0 171 26v-114z" />
    <glyph glyph-name="ecircumflex" unicode="&#xea;" horiz-adv-x="590" 
d="M222 592h-113l110 143h163l110 -143h-113l-79 75zM214 416q-20 -21 -24 -76h217q-3 55 -24 76q-27 25 -85 25q-57 0 -84 -25zM520 16q-62 -30 -202 -30q-156 0 -214 62q-59 60 -59 220q0 156 59 219q64 65 197 65q126 0 190 -65q33 -33 44 -91t11 -156h-357
q3 -80 30 -104q32 -32 130 -32q91 0 171 26v-114z" />
    <glyph glyph-name="edieresis" unicode="&#xeb;" horiz-adv-x="590" 
d="M267 678q0 -37 -16.5 -54.5t-54.5 -17.5t-55 18t-17 56q0 36 17 53t55 17t54.5 -17.5t16.5 -54.5zM476 678q0 -37 -16.5 -54.5t-53.5 -17.5q-38 0 -55 18t-17 55q0 36 17 53.5t55 17.5q37 0 53.5 -17.5t16.5 -54.5zM214 416q-20 -21 -24 -76h217q-3 55 -24 76
q-27 25 -85 25q-57 0 -84 -25zM520 16q-62 -30 -202 -30q-156 0 -214 62q-59 60 -59 220q0 156 59 219q64 65 197 65q126 0 190 -65q33 -33 44 -91t11 -156h-357q3 -80 30 -104q32 -32 130 -32q91 0 171 26v-114z" />
    <glyph glyph-name="igrave" unicode="&#xec;" horiz-adv-x="291" 
d="M102 735l107 -143h-123l-154 143h170zM74 0v537h142v-537h-142z" />
    <glyph glyph-name="iacute" unicode="&#xed;" horiz-adv-x="291" 
d="M205 592h-123l107 143h170zM74 0v537h142v-537h-142z" />
    <glyph glyph-name="icircumflex" unicode="&#xee;" horiz-adv-x="291" 
d="M67 592h-113l110 143h163l110 -143h-113l-79 75zM74 0v537h142v-537h-142z" />
    <glyph glyph-name="idieresis" unicode="&#xef;" horiz-adv-x="291" 
d="M112 678q0 -37 -16.5 -54.5t-54.5 -17.5t-55 18t-17 56q0 36 17 53t55 17t54.5 -17.5t16.5 -54.5zM321 678q0 -37 -16.5 -54.5t-53.5 -17.5q-38 0 -55 18t-17 55q0 36 17 53.5t55 17.5q37 0 53.5 -17.5t16.5 -54.5zM74 0v537h142v-537h-142z" />
    <glyph glyph-name="eth" unicode="&#xf0;" horiz-adv-x="620" 
d="M310 102q62 0 90 30q33 33 33 120q0 86 -33 121q-29 29 -90 29q-62 0 -91 -29q-32 -34 -32 -121q0 -86 32 -120q30 -30 91 -30zM514 53q-67 -68 -204 -68t-204 68q-61 60 -61 199q0 141 61 201q55 55 160 55q55 0 97 -19q-25 32 -73 81l-15 15l-167 -48v80l107 31l-81 85
h179l40 -45l143 41v-80l-87 -25l3 -3q89 -102 126 -182.5t37 -183.5v-3q0 -138 -61 -199z" />
    <glyph glyph-name="ntilde" unicode="&#xf1;" horiz-adv-x="658" 
d="M164 597q0 86 27 113q22 22 63 22q38 0 90 -21.5t60 -21.5q14 0 19 7q7 7 7 35h82q0 -86 -27 -113q-22 -22 -63 -22q-37 0 -89 21.5t-60 21.5q-14 0 -20 -7q-7 -7 -7 -35h-82zM352 429q-64 0 -136 -47v-382h-142v537h142v-70q70 85 186 85q89 0 141 -50q46 -46 46 -139
v-363h-142v301q0 87 -20 106q-21 22 -75 22z" />
    <glyph glyph-name="ograve" unicode="&#xf2;" horiz-adv-x="632" 
d="M272 735l107 -143h-123l-154 143h170zM528 50q-64 -65 -212 -65t-212 65q-59 62 -59 219q0 155 59 217q64 66 212 66t212 -66q59 -62 59 -217q0 -157 -59 -219zM219 133q33 -31 97 -31t97 31q29 29 29 135q0 108 -29 137q-30 30 -97 30t-97 -30t-30 -137q0 -105 30 -135z
" />
    <glyph glyph-name="oacute" unicode="&#xf3;" horiz-adv-x="632" 
d="M376 592h-123l107 143h170zM528 50q-64 -65 -212 -65t-212 65q-59 62 -59 219q0 155 59 217q64 66 212 66t212 -66q59 -62 59 -217q0 -157 -59 -219zM219 133q33 -31 97 -31t97 31q29 29 29 135q0 108 -29 137q-30 30 -97 30t-97 -30t-30 -137q0 -105 30 -135z" />
    <glyph glyph-name="ocircumflex" unicode="&#xf4;" horiz-adv-x="632" 
d="M238 592h-113l110 143h163l110 -143h-113l-79 75zM528 50q-64 -65 -212 -65t-212 65q-59 62 -59 219q0 155 59 217q64 66 212 66t212 -66q59 -62 59 -217q0 -157 -59 -219zM219 133q33 -31 97 -31t97 31q29 29 29 135q0 108 -29 137q-30 30 -97 30t-97 -30t-30 -137
q0 -105 30 -135z" />
    <glyph glyph-name="otilde" unicode="&#xf5;" horiz-adv-x="632" 
d="M142 597q0 86 27 113q22 22 63 22q38 0 90 -21.5t60 -21.5q14 0 19 7q7 7 7 35h82q0 -86 -27 -113q-22 -22 -63 -22q-37 0 -89 21.5t-60 21.5q-14 0 -20 -7q-7 -7 -7 -35h-82zM528 50q-64 -65 -212 -65t-212 65q-59 62 -59 219q0 155 59 217q64 66 212 66t212 -66
q59 -62 59 -217q0 -157 -59 -219zM219 133q33 -31 97 -31t97 31q29 29 29 135q0 108 -29 137q-30 30 -97 30t-97 -30t-30 -137q0 -105 30 -135z" />
    <glyph glyph-name="odieresis" unicode="&#xf6;" horiz-adv-x="632" 
d="M283 678q0 -37 -16.5 -54.5t-54.5 -17.5t-55 18t-17 56q0 36 17 53t55 17t54.5 -17.5t16.5 -54.5zM492 678q0 -37 -16.5 -54.5t-53.5 -17.5q-38 0 -55 18t-17 55q0 36 17 53.5t55 17.5q37 0 53.5 -17.5t16.5 -54.5zM528 50q-64 -65 -212 -65t-212 65q-59 62 -59 219
q0 155 59 217q64 66 212 66t212 -66q59 -62 59 -217q0 -157 -59 -219zM219 133q33 -31 97 -31t97 31q29 29 29 135q0 108 -29 137q-30 30 -97 30t-97 -30t-30 -137q0 -105 30 -135z" />
    <glyph glyph-name="divide" unicode="&#xf7;" horiz-adv-x="584" 
d="M237 421q0 56 54 56q55 0 55 -56q0 -55 -55 -55q-54 0 -54 55zM499 219h-416v99h416v-99zM237 116q0 56 54 56q55 0 55 -56q0 -55 -55 -55q-54 0 -54 55z" />
    <glyph glyph-name="oslash" unicode="&#xf8;" horiz-adv-x="632" 
d="M189 268q0 -56 7 -87l187 243q-28 11 -67 11q-67 0 -97 -30t-30 -137zM316 102q64 0 97 31q29 29 29 135q0 61 -6 87l-185 -242q27 -11 65 -11zM153 -15h-108l54 70q-54 64 -54 214q0 155 59 217q64 66 212 66q82 0 146 -24l19 24h106l-54 -71q54 -64 54 -212
q0 -157 -59 -219q-64 -65 -212 -65q-84 0 -145 24z" />
    <glyph glyph-name="ugrave" unicode="&#xf9;" horiz-adv-x="658" 
d="M286 735l107 -143h-123l-154 143h170zM442 0v69q-69 -84 -185 -84q-92 0 -141 49q-47 49 -47 140v363h142v-301q0 -87 20 -107q22 -22 75 -22q65 0 136 47v383h142v-537h-142z" />
    <glyph glyph-name="uacute" unicode="&#xfa;" horiz-adv-x="658" 
d="M389 592h-123l107 143h170zM442 0v69q-69 -84 -185 -84q-92 0 -141 49q-47 49 -47 140v363h142v-301q0 -87 20 -107q22 -22 75 -22q65 0 136 47v383h142v-537h-142z" />
    <glyph glyph-name="ucircumflex" unicode="&#xfb;" horiz-adv-x="658" 
d="M251 592h-113l110 143h163l110 -143h-113l-79 75zM442 0v69q-69 -84 -185 -84q-92 0 -141 49q-47 49 -47 140v363h142v-301q0 -87 20 -107q22 -22 75 -22q65 0 136 47v383h142v-537h-142z" />
    <glyph glyph-name="udieresis" unicode="&#xfc;" horiz-adv-x="658" 
d="M296 678q0 -37 -16.5 -54.5t-54.5 -17.5t-55 18t-17 56q0 36 17 53t55 17t54.5 -17.5t16.5 -54.5zM505 678q0 -37 -16.5 -54.5t-53.5 -17.5q-38 0 -55 18t-17 55q0 36 17 53.5t55 17.5q37 0 53.5 -17.5t16.5 -54.5zM442 0v69q-69 -84 -185 -84q-92 0 -141 49
q-47 49 -47 140v363h142v-301q0 -87 20 -107q22 -22 75 -22q65 0 136 47v383h142v-537h-142z" />
    <glyph glyph-name="yacute" unicode="&#xfd;" horiz-adv-x="601" 
d="M365 592h-123l107 143h170zM134 -209q-34 0 -64 9v118q31 -7 59 -7q37 0 61.5 17.5t54.5 72.5q-150 291 -227 536h150q51 -167 149 -378q65 163 124 378h142q-93 -333 -209 -555q-25 -49 -40 -74.5t-36 -52.5t-42 -38t-51 -18.5t-71 -7.5z" />
    <glyph glyph-name="thorn" unicode="&#xfe;" horiz-adv-x="659" 
d="M350 108q61 0 88 27q29 29 29 133q0 105 -29 133q-25 27 -88 27q-60 0 -134 -45v-230q75 -45 134 -45zM391 -15q-105 0 -175 76v-256h-142v930h142v-259q70 76 176 76q105 0 156 -52q62 -61 64 -232q-2 -171 -65 -231q-49 -52 -156 -52z" />
    <glyph glyph-name="ydieresis" unicode="&#xff;" horiz-adv-x="601" 
d="M272 678q0 -37 -16.5 -54.5t-54.5 -17.5t-55 18t-17 56q0 36 17 53t55 17t54.5 -17.5t16.5 -54.5zM481 678q0 -37 -16.5 -54.5t-53.5 -17.5q-38 0 -55 18t-17 55q0 36 17 53.5t55 17.5q37 0 53.5 -17.5t16.5 -54.5zM134 -209q-34 0 -64 9v118q31 -7 59 -7q37 0 61.5 17.5
t54.5 72.5q-150 291 -227 536h150q51 -167 149 -378q65 163 124 378h142q-93 -333 -209 -555q-25 -49 -40 -74.5t-36 -52.5t-42 -38t-51 -18.5t-71 -7.5z" />
    <glyph glyph-name="Amacron" unicode="&#x100;" horiz-adv-x="773" 
d="M242 861h291v-86h-291v86zM383 577q-44 -83 -106 -263h211q-63 181 -105 263zM577 0q-15 78 -50 191h-290q-36 -123 -49 -191h-148q38 175 111 366t147 334h176q75 -145 148 -334.5t111 -365.5h-156z" />
    <glyph glyph-name="amacron" unicode="&#x101;" horiz-adv-x="628" 
d="M169 711h291v-86h-291v86zM270 100q75 0 146 38v70q-76 25 -146 25q-51 0 -69 -16q-14 -14 -14 -50q0 -37 14 -51q16 -16 69 -16zM416 0v48q-66 -62 -184 -62q-96 0 -137 41q-45 45 -45 131q0 91 39 131q50 48 153 48q93 0 174 -44v19q0 38 -4.5 56.5t-17.5 31.5
q-29 29 -137 29q-94 0 -172 -27v119q28 14 87.5 22.5t112.5 8.5q158 0 224 -66q29 -29 39 -69.5t10 -105.5v-311h-142z" />
    <glyph glyph-name="Abreve" unicode="&#x102;" horiz-adv-x="773" 
d="M387 807q32 0 46 14q13 13 13 55h102q0 -74 -30 -105q-36 -36 -131 -36t-131 36q-30 31 -30 105h102q0 -42 13 -55q14 -14 46 -14zM383 577q-44 -83 -106 -263h211q-63 181 -105 263zM577 0q-15 78 -50 191h-290q-36 -123 -49 -191h-148q38 175 111 366t147 334h176
q75 -145 148 -334.5t111 -365.5h-156z" />
    <glyph glyph-name="abreve" unicode="&#x103;" horiz-adv-x="628" 
d="M314 653q32 0 46 15q3 3 5 6t3.5 5.5t2.5 7.5l1.5 7.5t0.5 9v9.5v11v11h102q0 -46 -6 -72.5t-24 -44.5q-37 -37 -131 -37t-131 37q-18 18 -24 44.5t-6 72.5h102v-11v-11v-9.5t0.5 -9l1.5 -7.5t2.5 -7.5t3.5 -5.5t5 -6q14 -15 46 -15zM270 100q75 0 146 38v70
q-76 25 -146 25q-51 0 -69 -16q-14 -14 -14 -50q0 -37 14 -51q16 -16 69 -16zM416 0v48q-66 -62 -184 -62q-96 0 -137 41q-45 45 -45 131q0 91 39 131q50 48 153 48q93 0 174 -44v19q0 38 -4.5 56.5t-17.5 31.5q-29 29 -137 29q-94 0 -172 -27v119q28 14 87.5 22.5
t112.5 8.5q158 0 224 -66q29 -29 39 -69.5t10 -105.5v-311h-142z" />
    <glyph glyph-name="Aogonek" unicode="&#x104;" horiz-adv-x="773" 
d="M383 577q-44 -83 -106 -263h211q-63 181 -105 263zM689 -190q-36 -20 -88 -20q-59 0 -80 21q-22 22 -22 61q0 32 13.5 58t64.5 71q-19 90 -50 190h-290q-36 -123 -49 -191h-148q38 175 111 366t147 334h176q75 -145 148 -334.5t111 -365.5h-65q-47 -50 -59.5 -67.5
t-12.5 -34.5q0 -16 7 -23q6 -6 24 -6q27 0 62 19v-78z" />
    <glyph glyph-name="aogonek" unicode="&#x105;" horiz-adv-x="628" 
d="M270 100q75 0 146 38v70q-76 25 -146 25q-51 0 -69 -16q-14 -14 -14 -50q0 -37 14 -51q16 -16 69 -16zM529 -190q-36 -20 -88 -20q-59 0 -80 21q-22 22 -22 61q0 32 13.5 57.5t63.5 70.5v48q-66 -62 -184 -62q-96 0 -137 41q-45 45 -45 131q0 91 39 131q50 48 153 48
q93 0 174 -44v19q0 38 -4.5 56.5t-17.5 31.5q-29 29 -137 29q-94 0 -172 -27v119q28 14 87.5 22.5t112.5 8.5q158 0 224 -66q29 -29 39 -69.5t10 -105.5v-311h-50q-47 -50 -59.5 -67.5t-12.5 -34.5q0 -16 7 -23q6 -6 24 -6q27 0 62 19v-78z" />
    <glyph glyph-name="Cacute" unicode="&#x106;" horiz-adv-x="679" 
d="M443 745h-138l132 131h189zM612 24q-78 -39 -208 -39q-72 0 -146 19t-114 59q-77 76 -77 287q0 210 77 287q40 40 114 59t146 19q119 0 197 -39v-116q-95 31 -180 31q-113 0 -155 -42q-46 -46 -46 -198q0 -153 46 -198q40 -41 155 -44q96 0 191 31v-116z" />
    <glyph glyph-name="cacute" unicode="&#x107;" horiz-adv-x="530" 
d="M356 592h-123l107 143h170zM486 17q-61 -30 -170 -32q-150 0 -212 64q-59 60 -59 221q0 156 59 219q63 63 212 63q107 0 167 -29v-115q-77 24 -148 24q-86 0 -116 -29q-31 -30 -31 -133q0 -102 31 -133q32 -33 116 -33q68 0 151 27v-114z" />
    <glyph glyph-name="Ccircumflex" unicode="&#x108;" horiz-adv-x="679" 
d="M294 745h-113l110 130h163l110 -130h-113l-78 66zM612 24q-78 -39 -208 -39q-72 0 -146 19t-114 59q-77 76 -77 287q0 210 77 287q40 40 114 59t146 19q119 0 197 -39v-116q-95 31 -180 31q-113 0 -155 -42q-46 -46 -46 -198q0 -153 46 -198q40 -41 155 -44q96 0 191 31
v-116z" />
    <glyph glyph-name="ccircumflex" unicode="&#x109;" horiz-adv-x="530" 
d="M218 592h-113l110 143h163l110 -143h-113l-79 75zM486 17q-61 -30 -170 -32q-150 0 -212 64q-59 60 -59 221q0 156 59 219q63 63 212 63q107 0 167 -29v-115q-77 24 -148 24q-86 0 -116 -29q-31 -30 -31 -133q0 -102 31 -133q32 -33 116 -33q68 0 151 27v-114z" />
    <glyph glyph-name="Cdotaccent" unicode="&#x10a;" horiz-adv-x="679" 
d="M456 819q0 -38 -16 -55t-59 -17t-60 17.5t-17 54.5t17 54.5t60 17.5t59 -17t16 -55zM612 24q-78 -39 -208 -39q-72 0 -146 19t-114 59q-77 76 -77 287q0 210 77 287q40 40 114 59t146 19q119 0 197 -39v-116q-95 31 -180 31q-113 0 -155 -42q-46 -46 -46 -198
q0 -153 46 -198q40 -41 155 -44q96 0 191 31v-116z" />
    <glyph glyph-name="cdotaccent" unicode="&#x10b;" horiz-adv-x="530" 
d="M370 678q0 -38 -16.5 -55t-58.5 -17q-43 0 -60 17t-17 55t17 55t60 17q42 0 58.5 -17t16.5 -55zM486 17q-61 -30 -170 -32q-150 0 -212 64q-59 60 -59 221q0 156 59 219q63 63 212 63q107 0 167 -29v-115q-77 24 -148 24q-86 0 -116 -29q-31 -30 -31 -133q0 -102 31 -133
q32 -33 116 -33q68 0 151 27v-114z" />
    <glyph glyph-name="Ccaron" unicode="&#x10c;" horiz-adv-x="679" 
d="M298 745l-110 130h113l79 -66l78 66h113l-110 -130h-163zM612 24q-78 -39 -208 -39q-72 0 -146 19t-114 59q-77 76 -77 287q0 210 77 287q40 40 114 59t146 19q119 0 197 -39v-116q-95 31 -180 31q-113 0 -155 -42q-46 -46 -46 -198q0 -153 46 -198q40 -41 155 -44
q96 0 191 31v-116z" />
    <glyph glyph-name="ccaron" unicode="&#x10d;" horiz-adv-x="530" 
d="M215 592l-109 143h112l78 -76l79 76h113l-110 -143h-163zM486 17q-61 -30 -170 -32q-150 0 -212 64q-59 60 -59 221q0 156 59 219q63 63 212 63q107 0 167 -29v-115q-77 24 -148 24q-86 0 -116 -29q-31 -30 -31 -133q0 -102 31 -133q32 -33 116 -33q68 0 151 27v-114z
" />
    <glyph glyph-name="Dcaron" unicode="&#x10e;" horiz-adv-x="788" 
d="M291 745l-110 130h113l79 -66l78 66h113l-110 -130h-163zM100 0v700h284q184 0 264 -80q41 -41 57 -106.5t16 -163.5q0 -99 -15.5 -163.5t-57.5 -106.5q-80 -80 -264 -80h-284zM367 576h-117v-452h117q67 0 102.5 7.5t55.5 27.5q43 43 43 191t-43 191q-20 20 -55.5 27.5
t-102.5 7.5z" />
    <glyph glyph-name="dcaron" unicode="&#x10f;" horiz-adv-x="659" 
d="M709 592h-102l68 143h148zM309 108q58 0 133 45v231q-75 44 -133 44q-62 0 -89 -27q-29 -29 -29 -133q0 -103 29 -133q29 -27 89 -27zM442 0v60q-71 -75 -175 -75q-107 0 -156 52q-64 61 -64 231q0 168 64 232q51 52 157 52q103 0 174 -75v258h142v-735h-142z" />
    <glyph glyph-name="Dcroat" unicode="&#x110;" horiz-adv-x="788" 
d="M408 312h-158v-188h117q67 0 102.5 7.5t55.5 27.5q43 43 43 191t-43 191q-20 20 -55.5 27.5t-102.5 7.5h-117v-166h158v-98zM100 0v312h-80v98h80v290h284q184 0 264 -80q41 -41 57 -106.5t16 -163.5q0 -99 -15.5 -163.5t-57.5 -106.5q-80 -80 -264 -80h-284z" />
    <glyph glyph-name="dcroat" unicode="&#x111;" horiz-adv-x="659" 
d="M307 108q58 0 133 45v231q-75 44 -133 44q-62 0 -89 -27q-29 -29 -29 -133q0 -103 29 -133q29 -27 89 -27zM440 0v60q-71 -75 -175 -75q-107 0 -156 52q-64 61 -64 231q0 168 64 232q51 52 157 52q103 0 174 -75v112h-171v82h171v64h142v-64h69v-82h-69v-589h-142z" />
    <glyph glyph-name="Emacron" unicode="&#x112;" horiz-adv-x="697" 
d="M223 861h291v-86h-291v86zM624 124v-124h-524v700h524v-124h-374v-159h342v-124h-342v-169h374z" />
    <glyph glyph-name="emacron" unicode="&#x113;" horiz-adv-x="590" 
d="M155 711h291v-86h-291v86zM214 416q-20 -21 -24 -76h217q-3 55 -24 76q-27 25 -85 25q-57 0 -84 -25zM520 16q-62 -30 -202 -30q-156 0 -214 62q-59 60 -59 220q0 156 59 219q64 65 197 65q126 0 190 -65q33 -33 44 -91t11 -156h-357q3 -80 30 -104q32 -32 130 -32
q91 0 171 26v-114z" />
    <glyph glyph-name="Ebreve" unicode="&#x114;" horiz-adv-x="697" 
d="M368 807q32 0 46 14q13 13 13 55h102q0 -74 -30 -105q-36 -36 -131 -36t-131 36q-30 31 -30 105h102q0 -42 13 -55q14 -14 46 -14zM624 124v-124h-524v700h524v-124h-374v-159h342v-124h-342v-169h374z" />
    <glyph glyph-name="ebreve" unicode="&#x115;" horiz-adv-x="590" 
d="M300 653q32 0 46 15q3 3 5 6t3.5 5.5t2.5 7.5l1.5 7.5t0.5 9v9.5v11v11h102q0 -46 -6 -72.5t-24 -44.5q-37 -37 -131 -37t-131 37q-18 18 -24 44.5t-6 72.5h102v-11v-11v-9.5t0.5 -9l1.5 -7.5t2.5 -7.5t3.5 -5.5t5 -6q14 -15 46 -15zM214 416q-20 -21 -24 -76h217
q-3 55 -24 76q-27 25 -85 25q-57 0 -84 -25zM520 16q-62 -30 -202 -30q-156 0 -214 62q-59 60 -59 220q0 156 59 219q64 65 197 65q126 0 190 -65q33 -33 44 -91t11 -156h-357q3 -80 30 -104q32 -32 130 -32q91 0 171 26v-114z" />
    <glyph glyph-name="Edotaccent" unicode="&#x116;" horiz-adv-x="697" 
d="M444 819q0 -38 -16 -55t-59 -17t-60 17.5t-17 54.5t17 54.5t60 17.5t59 -17t16 -55zM624 124v-124h-524v700h524v-124h-374v-159h342v-124h-342v-169h374z" />
    <glyph glyph-name="edotaccent" unicode="&#x117;" horiz-adv-x="590" 
d="M374 678q0 -38 -16.5 -55t-58.5 -17q-43 0 -60 17t-17 55t17 55t60 17q42 0 58.5 -17t16.5 -55zM214 416q-20 -21 -24 -76h217q-3 55 -24 76q-27 25 -85 25q-57 0 -84 -25zM520 16q-62 -30 -202 -30q-156 0 -214 62q-59 60 -59 220q0 156 59 219q64 65 197 65
q126 0 190 -65q33 -33 44 -91t11 -156h-357q3 -80 30 -104q32 -32 130 -32q91 0 171 26v-114z" />
    <glyph glyph-name="Eogonek" unicode="&#x118;" horiz-adv-x="697" 
d="M624 -190q-36 -20 -88 -20q-59 0 -80 21q-22 22 -22 61q0 32 13.5 57.5t62.5 70.5h-410v700h524v-124h-374v-159h342v-124h-342v-169h374v-124h-21q-47 -50 -59.5 -67.5t-12.5 -34.5q0 -16 7 -23q6 -6 24 -6q27 0 62 19v-78z" />
    <glyph glyph-name="eogonek" unicode="&#x119;" horiz-adv-x="590" 
d="M214 416q-20 -21 -24 -76h217q-3 55 -24 76q-27 25 -85 25q-57 0 -84 -25zM521 -190q-36 -20 -88 -20q-59 0 -80 21q-22 22 -22 61q0 30 11.5 54t53.5 64q-35 -4 -78 -4q-156 0 -214 62q-59 60 -59 220q0 156 59 219q64 65 197 65q126 0 190 -65q33 -33 44 -91t11 -156
h-357q3 -80 30 -104q32 -32 130 -32q91 0 171 26v-114q-2 -1 -6 -2.5t-6 -2.5h2q-55 -59 -68.5 -77t-13.5 -36q0 -16 7 -23q6 -6 24 -6q27 0 62 19v-78z" />
    <glyph glyph-name="Ecaron" unicode="&#x11a;" horiz-adv-x="697" 
d="M286 745l-110 130h113l79 -66l78 66h113l-110 -130h-163zM624 124v-124h-524v700h524v-124h-374v-159h342v-124h-342v-169h374z" />
    <glyph glyph-name="ecaron" unicode="&#x11b;" horiz-adv-x="590" 
d="M219 592l-109 143h112l78 -76l79 76h113l-110 -143h-163zM214 416q-20 -21 -24 -76h217q-3 55 -24 76q-27 25 -85 25q-57 0 -84 -25zM520 16q-62 -30 -202 -30q-156 0 -214 62q-59 60 -59 220q0 156 59 219q64 65 197 65q126 0 190 -65q33 -33 44 -91t11 -156h-357
q3 -80 30 -104q32 -32 130 -32q91 0 171 26v-114z" />
    <glyph glyph-name="Gcircumflex" unicode="&#x11c;" horiz-adv-x="761" 
d="M321 745h-113l110 130h163l110 -130h-113l-78 66zM669 16q-83 -31 -245 -31q-78 0 -156.5 18t-119.5 59q-81 82 -81 288q0 207 81 287q41 41 119 59.5t157 18.5q139 0 234 -44v-116q-116 36 -218 36q-128 0 -171 -42q-49 -50 -49 -198t49 -198q41 -41 171 -44q36 0 80 7
v144h-151v124h300v-368z" />
    <glyph glyph-name="gcircumflex" unicode="&#x11d;" horiz-adv-x="659" 
d="M251 592h-113l110 143h163l110 -143h-113l-79 75zM309 123q59 0 134 45v215q-75 45 -134 45q-62 0 -89 -27q-29 -29 -29 -126q0 -96 29 -125q29 -27 89 -27zM293 -210q-118 0 -200 40v114q109 -35 187 -35q102 0 134 32q29 29 29 122v13q-72 -76 -179 -76q-106 0 -157 52
q-60 59 -60 223q0 168 60 225q49 52 156 52q108 0 180 -76v61h142v-466q0 -148 -67 -217q-63 -64 -225 -64z" />
    <glyph glyph-name="Gbreve" unicode="&#x11e;" horiz-adv-x="761" 
d="M399 807q32 0 46 14q13 13 13 55h102q0 -74 -30 -105q-36 -36 -131 -36t-131 36q-30 31 -30 105h102q0 -42 13 -55q14 -14 46 -14zM669 16q-83 -31 -245 -31q-78 0 -156.5 18t-119.5 59q-81 82 -81 288q0 207 81 287q41 41 119 59.5t157 18.5q139 0 234 -44v-116
q-116 36 -218 36q-128 0 -171 -42q-49 -50 -49 -198t49 -198q41 -41 171 -44q36 0 80 7v144h-151v124h300v-368z" />
    <glyph glyph-name="gbreve" unicode="&#x11f;" horiz-adv-x="659" 
d="M329 653q32 0 46 15q3 3 5 6t3.5 5.5t2.5 7.5l1.5 7.5t0.5 9v9.5v11v11h102q0 -46 -6 -72.5t-24 -44.5q-37 -37 -131 -37t-131 37q-18 18 -24 44.5t-6 72.5h102v-11v-11v-9.5t0.5 -9l1.5 -7.5t2.5 -7.5t3.5 -5.5t5 -6q14 -15 46 -15zM309 123q59 0 134 45v215
q-75 45 -134 45q-62 0 -89 -27q-29 -29 -29 -126q0 -96 29 -125q29 -27 89 -27zM293 -210q-118 0 -200 40v114q109 -35 187 -35q102 0 134 32q29 29 29 122v13q-72 -76 -179 -76q-106 0 -157 52q-60 59 -60 223q0 168 60 225q49 52 156 52q108 0 180 -76v61h142v-466
q0 -148 -67 -217q-63 -64 -225 -64z" />
    <glyph glyph-name="Gdotaccent" unicode="&#x120;" horiz-adv-x="761" 
d="M475 819q0 -38 -16 -55t-59 -17t-60 17.5t-17 54.5t17 54.5t60 17.5t59 -17t16 -55zM669 16q-83 -31 -245 -31q-78 0 -156.5 18t-119.5 59q-81 82 -81 288q0 207 81 287q41 41 119 59.5t157 18.5q139 0 234 -44v-116q-116 36 -218 36q-128 0 -171 -42q-49 -50 -49 -198
t49 -198q41 -41 171 -44q36 0 80 7v144h-151v124h300v-368z" />
    <glyph glyph-name="gdotaccent" unicode="&#x121;" horiz-adv-x="659" 
d="M403 678q0 -38 -16.5 -55t-58.5 -17q-43 0 -60 17t-17 55t17 55t60 17q42 0 58.5 -17t16.5 -55zM309 123q59 0 134 45v215q-75 45 -134 45q-62 0 -89 -27q-29 -29 -29 -126q0 -96 29 -125q29 -27 89 -27zM293 -210q-118 0 -200 40v114q109 -35 187 -35q102 0 134 32
q29 29 29 122v13q-72 -76 -179 -76q-106 0 -157 52q-60 59 -60 223q0 168 60 225q49 52 156 52q108 0 180 -76v61h142v-466q0 -148 -67 -217q-63 -64 -225 -64z" />
    <glyph glyph-name="Gcommaaccent" unicode="&#x122;" horiz-adv-x="761" 
d="M669 16q-83 -31 -245 -31q-78 0 -156.5 18t-119.5 59q-81 82 -81 288q0 207 81 287q41 41 119 59.5t157 18.5q139 0 234 -44v-116q-116 36 -218 36q-128 0 -171 -42q-49 -50 -49 -198t49 -198q41 -41 171 -44q36 0 80 7v144h-151v124h300v-368zM362 -195h-122l103 140
h170z" />
    <glyph glyph-name="gcommaaccent" unicode="&#x123;" horiz-adv-x="659" 
d="M388 735h123l-107 -143h-170zM309 123q59 0 134 45v215q-75 45 -134 45q-62 0 -89 -27q-29 -29 -29 -126q0 -96 29 -125q29 -27 89 -27zM293 -210q-118 0 -200 40v114q109 -35 187 -35q102 0 134 32q29 29 29 122v13q-72 -76 -179 -76q-106 0 -157 52q-60 59 -60 223
q0 168 60 225q49 52 156 52q108 0 180 -76v61h142v-466q0 -148 -67 -217q-63 -64 -225 -64z" />
    <glyph glyph-name="Hcircumflex" unicode="&#x124;" horiz-adv-x="836" 
d="M340 745h-113l110 130h163l110 -130h-113l-78 66zM586 0v293h-336v-293h-150v700h150v-283h336v283h150v-700h-150z" />
    <glyph glyph-name="hcircumflex" unicode="&#x125;" horiz-adv-x="658" 
d="M66 756h-113l110 143h163l110 -143h-113l-79 75zM352 429q-64 0 -136 -47v-382h-142v735h142v-268q70 85 186 85q89 0 141 -50q46 -46 46 -139v-363h-142v301q0 87 -20 106q-21 22 -75 22z" />
    <glyph glyph-name="Hbar" unicode="&#x126;" horiz-adv-x="836" 
d="M586 417v91h-336v-91h336zM586 0v293h-336v-293h-150v508h-80v98h80v94h150v-94h336v94h150v-94h80v-98h-80v-508h-150z" />
    <glyph glyph-name="hbar" unicode="&#x127;" horiz-adv-x="658" 
d="M350 429q-64 0 -136 -47v-382h-142v589h-65v82h65v64h142v-64h175v-82h-175v-122q70 85 186 85q89 0 141 -50q46 -46 46 -139v-363h-142v301q0 87 -20 106q-21 22 -75 22z" />
    <glyph glyph-name="Itilde" unicode="&#x128;" horiz-adv-x="367" 
d="M10 749q0 76 27 105q22 22 63 22q38 0 89 -18t60 -18q15 0 20 8q7 7 7 27h82q0 -78 -27 -105q-22 -22 -63 -22q-37 0 -87.5 18t-59.5 18q-15 0 -22 -8q-7 -7 -7 -27h-82zM109 0v700h149v-700h-149z" />
    <glyph glyph-name="itilde" unicode="&#x129;" horiz-adv-x="291" 
d="M-29 597q0 86 27 113q22 22 63 22q38 0 90 -21.5t60 -21.5q14 0 19 7q7 7 7 35h82q0 -86 -27 -113q-22 -22 -63 -22q-37 0 -89 21.5t-60 21.5q-14 0 -20 -7q-7 -7 -7 -35h-82zM74 0v537h142v-537h-142z" />
    <glyph glyph-name="Imacron" unicode="&#x12a;" horiz-adv-x="367" 
d="M39 861h291v-86h-291v86zM109 0v700h149v-700h-149z" />
    <glyph glyph-name="imacron" unicode="&#x12b;" horiz-adv-x="291" 
d="M0 711h291v-86h-291v86zM74 0v537h142v-537h-142z" />
    <glyph glyph-name="Ibreve" unicode="&#x12c;" horiz-adv-x="367" 
d="M184 807q32 0 46 14q13 13 13 55h102q0 -74 -30 -105q-36 -36 -131 -36t-131 36q-30 31 -30 105h102q0 -42 13 -55q14 -14 46 -14zM109 0v700h149v-700h-149z" />
    <glyph glyph-name="ibreve" unicode="&#x12d;" horiz-adv-x="291" 
d="M145 653q32 0 46 15q3 3 5 6t3.5 5.5t2.5 7.5l1.5 7.5t0.5 9v9.5v11v11h102q0 -46 -6 -72.5t-24 -44.5q-37 -37 -131 -37t-131 37q-18 18 -24 44.5t-6 72.5h102v-11v-11v-9.5t0.5 -9l1.5 -7.5t2.5 -7.5t3.5 -5.5t5 -6q14 -15 46 -15zM74 0v537h142v-537h-142z" />
    <glyph glyph-name="Iogonek" unicode="&#x12e;" horiz-adv-x="367" 
d="M257 -190q-36 -20 -88 -20q-59 0 -80 21q-22 22 -22 61q0 32 13.5 57.5t62.5 70.5h-34v700h149v-700h-22q-47 -50 -59.5 -67.5t-12.5 -34.5q0 -16 7 -23q6 -6 24 -6q27 0 62 19v-78z" />
    <glyph glyph-name="iogonek" unicode="&#x12f;" horiz-adv-x="291" 
d="M221 678q0 -38 -16 -55t-59 -17t-60 17.5t-17 54.5t17 54.5t60 17.5t59 -17t16 -55zM217 -190q-36 -20 -88 -20q-59 0 -80 21q-22 22 -22 61q0 32 13.5 57.5t62.5 70.5h-29v537h142v-537h-20q-47 -50 -59.5 -67.5t-12.5 -34.5q0 -16 7 -23q6 -6 24 -6q27 0 62 19v-78z
" />
    <glyph glyph-name="Idotaccent" unicode="&#x130;" horiz-adv-x="367" 
d="M260 819q0 -38 -16 -55t-59 -17t-60 17.5t-17 54.5t17 54.5t60 17.5t59 -17t16 -55zM109 0v700h149v-700h-149z" />
    <glyph glyph-name="dotlessi" unicode="&#x131;" horiz-adv-x="291" 
d="M74 0v537h142v-537h-142z" />
    <glyph glyph-name="IJ" unicode="&#x132;" horiz-adv-x="934" 
d="M109 0v700h149v-700h-149zM554 110q81 0 113 32q16 15 20.5 38.5t4.5 67.5v452h150v-446q0 -145 -56 -201q-68 -68 -202 -68q-103 0 -187 39v116q87 -30 157 -30z" />
    <glyph glyph-name="ij" unicode="&#x133;" horiz-adv-x="581" 
d="M512 678q0 -38 -16 -55t-59 -17t-60 17.5t-17 54.5t17 54.5t60 17.5t59 -17t16 -55zM221 678q0 -38 -16 -55t-59 -17t-60 17.5t-17 54.5t17 54.5t60 17.5t59 -17t16 -55zM74 0v537h142v-537h-142zM338 -210q-52 0 -105 17v107q37 -13 73 -13q32 0 45 15q9 9 11.5 27.5
t2.5 68.5v525h142v-526q0 -72 -9.5 -111.5t-33.5 -67.5q-35 -42 -126 -42z" />
    <glyph glyph-name="Jcircumflex" unicode="&#x134;" horiz-adv-x="567" 
d="M319 745h-113l110 130h163l110 -130h-113l-78 66zM187 110q81 0 113 32q16 15 20.5 38.5t4.5 67.5v452h150v-446q0 -145 -56 -201q-68 -68 -202 -68q-103 0 -187 39v116q87 -30 157 -30z" />
    <glyph glyph-name="jcircumflex" unicode="&#x135;" horiz-adv-x="291" 
d="M67 592h-113l110 143h163l110 -143h-113l-79 75zM47 -210q-52 0 -105 17v107q37 -13 73 -13q31 0 45 15q9 9 11.5 27.5t2.5 68.5v525h142v-526q0 -72 -9.5 -111.5t-33.5 -67.5q-35 -42 -126 -42z" />
    <glyph glyph-name="Kcommaaccent" unicode="&#x136;" horiz-adv-x="744" 
d="M534 0l-284 299v-299h-150v700h150v-305l289 305h183l-338 -346l336 -354h-186zM329 -195h-122l103 140h170z" />
    <glyph glyph-name="kcommaaccent" unicode="&#x137;" horiz-adv-x="611" 
d="M423 0l-207 238v-238h-142v735h142v-397l203 199h170l-253 -243l261 -294h-174zM251 -195h-122l103 140h170z" />
    <glyph glyph-name="kgreenlandic" unicode="&#x138;" horiz-adv-x="611" 
d="M423 0l-207 238v-238h-142v537h142v-199l203 199h170l-253 -243l261 -294h-174z" />
    <glyph glyph-name="Lacute" unicode="&#x139;" horiz-adv-x="633" 
d="M248 745h-138l132 131h189zM606 124v-124h-506v700h150v-576h356z" />
    <glyph glyph-name="lacute" unicode="&#x13a;" horiz-adv-x="383" 
d="M204 756h-123l107 143h170zM212 216q0 -50 2.5 -67.5t11.5 -27.5q18 -16 47 -16q36 0 83 17v-115q-59 -21 -119 -21q-84 0 -125 40q-25 26 -33.5 70.5t-8.5 124.5v514h142v-519z" />
    <glyph glyph-name="Lcommaaccent" unicode="&#x13b;" horiz-adv-x="633" 
d="M606 124v-124h-506v700h150v-576h356zM320 -195h-122l103 140h170z" />
    <glyph glyph-name="lcommaaccent" unicode="&#x13c;" horiz-adv-x="383" 
d="M212 216q0 -50 2.5 -67.5t11.5 -27.5q18 -16 47 -16q36 0 83 17v-115q-59 -21 -119 -21q-84 0 -125 40q-25 26 -33.5 70.5t-8.5 124.5v514h142v-519zM168 -195h-122l103 140h170z" />
    <glyph glyph-name="Lcaron" unicode="&#x13d;" horiz-adv-x="633" 
d="M606 124v-124h-506v700h150v-576h356zM384 557h-102l68 143h148z" />
    <glyph glyph-name="lcaron" unicode="&#x13e;" horiz-adv-x="383" 
d="M212 216q0 -50 2.5 -67.5t11.5 -27.5q18 -16 47 -16q36 0 83 17v-115q-59 -21 -119 -21q-84 0 -125 40q-25 26 -33.5 70.5t-8.5 124.5v514h142v-519zM352 592h-102l68 143h148z" />
    <glyph glyph-name="Ldot" unicode="&#x13f;" horiz-adv-x="633" 
d="M606 124v-124h-506v700h150v-576h356zM405 410q0 82 81 82t81 -82q0 -81 -81 -81t-81 81z" />
    <glyph glyph-name="ldot" unicode="&#x140;" horiz-adv-x="383" 
d="M212 216q0 -50 2.5 -67.5t11.5 -27.5q18 -16 47 -16q36 0 83 17v-115q-59 -21 -119 -21q-84 0 -125 40q-25 26 -33.5 70.5t-8.5 124.5v514h142v-519zM248 337q0 82 81 82t81 -82q0 -81 -81 -81t-81 81z" />
    <glyph glyph-name="Lslash" unicode="&#x141;" horiz-adv-x="633" 
d="M100 0v249l-81 -46v113l81 46v338h150v-253l145 83v-114l-145 -82v-210h356v-124h-506z" />
    <glyph glyph-name="lslash" unicode="&#x142;" horiz-adv-x="383" 
d="M235 -14q-84 0 -125 40q-25 26 -33.5 70.5t-8.5 124.5v67l-69 -36v93l69 37v353h142v-278l82 43v-94l-82 -43v-147q0 -50 2.5 -67.5t11.5 -27.5q18 -16 47 -16q36 0 83 17v-115q-59 -21 -119 -21z" />
    <glyph glyph-name="Nacute" unicode="&#x143;" horiz-adv-x="836" 
d="M490 745h-138l132 131h189zM613 0l-372 445v-445h-141v700h123l371 -445v445h142v-700h-123z" />
    <glyph glyph-name="nacute" unicode="&#x144;" horiz-adv-x="658" 
d="M399 592h-123l107 143h170zM352 429q-64 0 -136 -47v-382h-142v537h142v-70q70 85 186 85q89 0 141 -50q46 -46 46 -139v-363h-142v301q0 87 -20 106q-21 22 -75 22z" />
    <glyph glyph-name="Ncommaaccent" unicode="&#x145;" horiz-adv-x="836" 
d="M613 0l-372 445v-445h-141v700h123l371 -445v445h142v-700h-123zM377 -195h-122l103 140h170z" />
    <glyph glyph-name="ncommaaccent" unicode="&#x146;" horiz-adv-x="658" 
d="M352 429q-64 0 -136 -47v-382h-142v537h142v-70q70 85 186 85q89 0 141 -50q46 -46 46 -139v-363h-142v301q0 87 -20 106q-21 22 -75 22zM274 -195h-122l103 140h170z" />
    <glyph glyph-name="Ncaron" unicode="&#x147;" horiz-adv-x="836" 
d="M337 745l-110 130h113l79 -66l78 66h113l-110 -130h-163zM613 0l-372 445v-445h-141v700h123l371 -445v445h142v-700h-123z" />
    <glyph glyph-name="ncaron" unicode="&#x148;" horiz-adv-x="658" 
d="M259 592l-109 143h112l78 -76l79 76h113l-110 -143h-163zM352 429q-64 0 -136 -47v-382h-142v537h142v-70q70 85 186 85q89 0 141 -50q46 -46 46 -139v-363h-142v301q0 87 -20 106q-21 22 -75 22z" />
    <glyph glyph-name="Eng" unicode="&#x14a;" horiz-adv-x="869" 
d="M561 -210q-59 0 -107 26v116q46 -18 85 -18q40 0 57 17q13 13 15 72l-354 438v-441h-140v700h123l371 -461v461h141v-700q0 -109 -41 -155q-49 -55 -150 -55z" />
    <glyph glyph-name="eng" unicode="&#x14b;" horiz-adv-x="658" 
d="M420 -210q-52 0 -105 17v107q37 -13 73 -13q32 0 45 15q9 9 11.5 27.5t2.5 68.5v289q0 87 -20 106q-21 22 -75 22q-64 0 -136 -47v-382h-142v537h142v-70q70 85 186 85q89 0 141 -50q46 -46 46 -139v-352q0 -72 -9.5 -111.5t-33.5 -67.5q-35 -42 -126 -42z" />
    <glyph glyph-name="Omacron" unicode="&#x14c;" horiz-adv-x="803" 
d="M257 861h291v-86h-291v86zM402 -15q-72 0 -145 19t-113 59q-77 76 -77 287t77 287q40 40 113 59t145 19t144.5 -19t112.5 -59q78 -77 78 -287t-78 -287q-40 -40 -112.5 -59t-144.5 -19zM402 109q97 0 140 43q41 41 41 198t-41 198q-43 43 -140 43q-98 0 -141 -43
q-41 -41 -41 -198t41 -198q43 -43 141 -43z" />
    <glyph glyph-name="omacron" unicode="&#x14d;" horiz-adv-x="632" 
d="M171 711h291v-86h-291v86zM528 50q-64 -65 -212 -65t-212 65q-59 62 -59 219q0 155 59 217q64 66 212 66t212 -66q59 -62 59 -217q0 -157 -59 -219zM219 133q33 -31 97 -31t97 31q29 29 29 135q0 108 -29 137q-30 30 -97 30t-97 -30t-30 -137q0 -105 30 -135z" />
    <glyph glyph-name="Obreve" unicode="&#x14e;" horiz-adv-x="803" 
d="M402 807q32 0 46 14q13 13 13 55h102q0 -74 -30 -105q-36 -36 -131 -36t-131 36q-30 31 -30 105h102q0 -42 13 -55q14 -14 46 -14zM402 -15q-72 0 -145 19t-113 59q-77 76 -77 287t77 287q40 40 113 59t145 19t144.5 -19t112.5 -59q78 -77 78 -287t-78 -287
q-40 -40 -112.5 -59t-144.5 -19zM402 109q97 0 140 43q41 41 41 198t-41 198q-43 43 -140 43q-98 0 -141 -43q-41 -41 -41 -198t41 -198q43 -43 141 -43z" />
    <glyph glyph-name="obreve" unicode="&#x14f;" horiz-adv-x="632" 
d="M316 653q32 0 46 15q3 3 5 6t3.5 5.5t2.5 7.5l1.5 7.5t0.5 9v9.5v11v11h102q0 -46 -6 -72.5t-24 -44.5q-37 -37 -131 -37t-131 37q-18 18 -24 44.5t-6 72.5h102v-11v-11v-9.5t0.5 -9l1.5 -7.5t2.5 -7.5t3.5 -5.5t5 -6q14 -15 46 -15zM528 50q-64 -65 -212 -65t-212 65
q-59 62 -59 219q0 155 59 217q64 66 212 66t212 -66q59 -62 59 -217q0 -157 -59 -219zM219 133q33 -31 97 -31t97 31q29 29 29 135q0 108 -29 137q-30 30 -97 30t-97 -30t-30 -137q0 -105 30 -135z" />
    <glyph glyph-name="Ohungarumlaut" unicode="&#x150;" horiz-adv-x="803" 
d="M366 745h-122l95 131h152zM564 745h-114l87 131h152zM402 -15q-72 0 -145 19t-113 59q-77 76 -77 287t77 287q40 40 113 59t145 19t144.5 -19t112.5 -59q78 -77 78 -287t-78 -287q-40 -40 -112.5 -59t-144.5 -19zM402 109q97 0 140 43q41 41 41 198t-41 198
q-43 43 -140 43q-98 0 -141 -43q-41 -41 -41 -198t41 -198q43 -43 141 -43z" />
    <glyph glyph-name="ohungarumlaut" unicode="&#x151;" horiz-adv-x="632" 
d="M291 592h-130l103 143h152zM485 592h-121l94 143h152zM528 50q-64 -65 -212 -65t-212 65q-59 62 -59 219q0 155 59 217q64 66 212 66t212 -66q59 -62 59 -217q0 -157 -59 -219zM219 133q33 -31 97 -31t97 31q29 29 29 135q0 108 -29 137q-30 30 -97 30t-97 -30t-30 -137
q0 -105 30 -135z" />
    <glyph glyph-name="OE" unicode="&#x152;" horiz-adv-x="1135" 
d="M421 124h117v452h-117q-67 0 -102.5 -7.5t-55.5 -27.5q-43 -43 -43 -191t43 -191q20 -20 55.5 -27.5t102.5 -7.5zM404 0q-184 0 -264 80q-41 41 -57 106.5t-16 163.5t16 163t57 107q80 80 264 80h658v-124h-374v-159h342v-124h-342v-169h374v-124h-658z" />
    <glyph glyph-name="oe" unicode="&#x153;" horiz-adv-x="989" 
d="M613 416q-20 -21 -24 -76h217q-3 55 -25 76q-25 25 -84 25t-84 -25zM316 102q64 0 97 31q29 29 29 135q0 108 -29 137q-30 30 -97 30t-97 -30t-30 -137q0 -105 30 -135q33 -31 97 -31zM919 15q-63 -30 -202 -30q-138 0 -201 65l-3 3l-2 -3q-64 -65 -195 -65
q-148 0 -212 65q-59 62 -59 219q0 155 59 217q64 66 212 66q132 0 195 -67q2 -2 3 -4l2 2q65 69 184 69q125 0 190 -65q33 -33 44 -91t11 -156h-358q3 -79 30 -105q35 -32 131 -32q91 0 171 26v-114z" />
    <glyph glyph-name="Racute" unicode="&#x154;" horiz-adv-x="754" 
d="M439 745h-138l132 131h189zM370 576h-120v-203h120q102 0 127 25q22 22 22 77t-22 77q-24 24 -127 24zM100 0v700h322q61 0 116.5 -13t82.5 -40q52 -52 52 -172q0 -102 -54 -154q-36 -36 -124 -51l216 -270h-180l-192 259h-89v-259h-150z" />
    <glyph glyph-name="racute" unicode="&#x155;" horiz-adv-x="472" 
d="M323 592h-123l107 143h170zM373 427q-89 0 -157 -69v-358h-142v537h142v-74q71 89 178 89q34 0 57 -9v-126q-32 10 -78 10z" />
    <glyph glyph-name="Rcommaaccent" unicode="&#x156;" horiz-adv-x="754" 
d="M370 576h-120v-203h120q102 0 127 25q22 22 22 77t-22 77q-24 24 -127 24zM100 0v700h322q61 0 116.5 -13t82.5 -40q52 -52 52 -172q0 -102 -54 -154q-36 -36 -124 -51l216 -270h-180l-192 259h-89v-259h-150zM330 -195h-122l103 140h170z" />
    <glyph glyph-name="rcommaaccent" unicode="&#x157;" horiz-adv-x="472" 
d="M373 427q-89 0 -157 -69v-358h-142v537h142v-74q71 89 178 89q34 0 57 -9v-126q-32 10 -78 10zM79 -195h-122l103 140h170z" />
    <glyph glyph-name="Rcaron" unicode="&#x158;" horiz-adv-x="754" 
d="M286 745l-110 130h113l79 -66l78 66h113l-110 -130h-163zM370 576h-120v-203h120q102 0 127 25q22 22 22 77t-22 77q-24 24 -127 24zM100 0v700h322q61 0 116.5 -13t82.5 -40q52 -52 52 -172q0 -102 -54 -154q-36 -36 -124 -51l216 -270h-180l-192 259h-89v-259h-150z
" />
    <glyph glyph-name="rcaron" unicode="&#x159;" horiz-adv-x="472" 
d="M182 592l-109 143h112l78 -76l79 76h113l-110 -143h-163zM373 427q-89 0 -157 -69v-358h-142v537h142v-74q71 89 178 89q34 0 57 -9v-126q-32 10 -78 10z" />
    <glyph glyph-name="Sacute" unicode="&#x15a;" horiz-adv-x="660" 
d="M391 745h-138l132 131h189zM309 -14q-78 0 -145 11.5t-99 27.5v116q130 -32 237 -32q117 0 144 27q11 11 11 56t-11 56q-12 11 -85.5 26.5t-154.5 38.5t-110 52q-39 39 -39 138q0 101 39 140q71 71 239 71q144 0 231 -39v-116q-102 32 -216 32q-110 0 -137 -27
q-13 -13 -13 -51t13 -51q15 -15 168 -53t180 -65q42 -42 42 -141q0 -47 -11.5 -88t-31.5 -61q-68 -68 -251 -68z" />
    <glyph glyph-name="sacute" unicode="&#x15b;" horiz-adv-x="546" 
d="M329 592h-123l107 143h170zM255 -14q-63 0 -117.5 9t-78.5 22v111q97 -28 189 -28q85 0 103 18q10 10 10 35q0 22 -8 30q-7 7 -123 36t-146 59q-29 29 -29 107q0 81 31 114q32 32 77.5 42t112.5 10q129 0 193 -31v-110q-106 27 -182 27q-73 0 -91 -18q-6 -6 -6 -26
q0 -22 6 -29q14 -12 131 -40t139 -50q30 -30 30 -112q0 -90 -33 -123q-53 -53 -208 -53z" />
    <glyph glyph-name="Scircumflex" unicode="&#x15c;" horiz-adv-x="660" 
d="M250 745h-113l110 130h163l110 -130h-113l-78 66zM309 -14q-78 0 -145 11.5t-99 27.5v116q130 -32 237 -32q117 0 144 27q11 11 11 56t-11 56q-12 11 -85.5 26.5t-154.5 38.5t-110 52q-39 39 -39 138q0 101 39 140q71 71 239 71q144 0 231 -39v-116q-102 32 -216 32
q-110 0 -137 -27q-13 -13 -13 -51t13 -51q15 -15 168 -53t180 -65q42 -42 42 -141q0 -47 -11.5 -88t-31.5 -61q-68 -68 -251 -68z" />
    <glyph glyph-name="scircumflex" unicode="&#x15d;" horiz-adv-x="546" 
d="M192 592h-113l110 143h163l110 -143h-113l-79 75zM255 -14q-63 0 -117.5 9t-78.5 22v111q97 -28 189 -28q85 0 103 18q10 10 10 35q0 22 -8 30q-7 7 -123 36t-146 59q-29 29 -29 107q0 81 31 114q32 32 77.5 42t112.5 10q129 0 193 -31v-110q-106 27 -182 27
q-73 0 -91 -18q-6 -6 -6 -26q0 -22 6 -29q14 -12 131 -40t139 -50q30 -30 30 -112q0 -90 -33 -123q-53 -53 -208 -53z" />
    <glyph glyph-name="Scedilla" unicode="&#x15e;" horiz-adv-x="660" 
d="M319 -210q-59 0 -101 14v64q40 -12 85 -12q33 0 43 8q6 5 6 17q0 10 -6 16q-10 8 -43 8q-20 0 -60 -5v28l34 59q-145 5 -212 38v116q130 -32 237 -32q117 0 144 27q11 11 11 56t-11 56q-12 11 -85.5 26.5t-154.5 38.5t-110 52q-39 39 -39 138q0 101 39 140q71 71 239 71
q144 0 231 -39v-116q-102 32 -216 32q-110 0 -137 -27q-13 -13 -13 -51t13 -51q15 -15 168 -53t180 -65q42 -42 42 -141q0 -47 -11.5 -88t-31.5 -61q-62 -62 -207 -67l-16 -27q69 -4 90 -25q19 -19 19 -60q0 -40 -20 -60q-24 -25 -107 -25z" />
    <glyph glyph-name="scedilla" unicode="&#x15f;" horiz-adv-x="546" 
d="M270 -210q-59 0 -101 14v64q41 -12 85 -12q33 0 43 8q6 5 6 17q0 10 -6 16q-10 8 -43 8q-20 0 -60 -5v28l34 58q-118 5 -169 31v111q97 -28 189 -28q85 0 103 18q10 10 10 35q0 22 -8 30q-7 7 -123 36t-146 59q-29 29 -29 107q0 81 31 114q32 32 77.5 42t112.5 10
q129 0 193 -31v-110q-106 27 -182 27q-73 0 -91 -18q-6 -6 -6 -26q0 -22 6 -29q14 -12 131 -40t139 -50q30 -30 30 -112q0 -90 -33 -123q-45 -45 -159 -52l-16 -27q69 -4 90 -25q19 -19 19 -60q0 -40 -20 -60q-24 -25 -107 -25z" />
    <glyph glyph-name="Scaron" unicode="&#x160;" horiz-adv-x="660" 
d="M246 745l-110 130h113l79 -66l78 66h113l-110 -130h-163zM309 -14q-78 0 -145 11.5t-99 27.5v116q130 -32 237 -32q117 0 144 27q11 11 11 56t-11 56q-12 11 -85.5 26.5t-154.5 38.5t-110 52q-39 39 -39 138q0 101 39 140q71 71 239 71q144 0 231 -39v-116
q-102 32 -216 32q-110 0 -137 -27q-13 -13 -13 -51t13 -51q15 -15 168 -53t180 -65q42 -42 42 -141q0 -47 -11.5 -88t-31.5 -61q-68 -68 -251 -68z" />
    <glyph glyph-name="scaron" unicode="&#x161;" horiz-adv-x="546" 
d="M189 592l-109 143h112l78 -76l79 76h113l-110 -143h-163zM255 -14q-63 0 -117.5 9t-78.5 22v111q97 -28 189 -28q85 0 103 18q10 10 10 35q0 22 -8 30q-7 7 -123 36t-146 59q-29 29 -29 107q0 81 31 114q32 32 77.5 42t112.5 10q129 0 193 -31v-110q-106 27 -182 27
q-73 0 -91 -18q-6 -6 -6 -26q0 -22 6 -29q14 -12 131 -40t139 -50q30 -30 30 -112q0 -90 -33 -123q-53 -53 -208 -53z" />
    <glyph glyph-name="Tcommaaccent" unicode="&#x162;" horiz-adv-x="700" 
d="M673 576h-249v-576h-149v576h-248v124h646v-124zM281 -195h-122l103 140h170z" />
    <glyph glyph-name="tcommaaccent" unicode="&#x163;" horiz-adv-x="445" 
d="M423 7q-63 -21 -133 -21q-105 0 -141 43q-23 27 -32 66.5t-9 111.5v214h-80v116h80v134h142v-134h150v-116h-150v-205q0 -77 18 -95q16 -16 58 -16q46 0 97 17v-115zM213 -195h-122l103 140h170z" />
    <glyph glyph-name="Tcaron" unicode="&#x164;" horiz-adv-x="700" 
d="M268 745l-110 130h113l79 -66l78 66h113l-110 -130h-163zM673 576h-249v-576h-149v576h-248v124h646v-124z" />
    <glyph glyph-name="tcaron" unicode="&#x165;" horiz-adv-x="445" 
d="M376 592h-102l68 143h148zM423 7q-63 -21 -133 -21q-105 0 -141 43q-23 27 -32 66.5t-9 111.5v214h-80v116h80v134h142v-134h150v-116h-150v-205q0 -77 18 -95q16 -16 58 -16q46 0 97 17v-115z" />
    <glyph glyph-name="Tbar" unicode="&#x166;" horiz-adv-x="700" 
d="M599 279h-175v-279h-149v279h-173v98h173v199h-248v124h646v-124h-249v-199h175v-98z" />
    <glyph glyph-name="tbar" unicode="&#x167;" horiz-adv-x="469" 
d="M421 7q-63 -21 -133 -21q-105 0 -141 43q-23 27 -32 66.5t-9 111.5v25h-59v82h59v107h-80v116h80v134h142v-134h150v-116h-150v-107h129v-82h-129v-16q0 -77 18 -95q16 -16 58 -16q46 0 97 17v-115z" />
    <glyph glyph-name="Utilde" unicode="&#x168;" horiz-adv-x="798" 
d="M225 749q0 76 27 105q22 22 63 22q38 0 89 -18t60 -18q15 0 20 8q7 7 7 27h82q0 -78 -27 -105q-22 -22 -63 -22q-37 0 -87.5 18t-59.5 18q-15 0 -22 -8q-7 -7 -7 -27h-82zM399 -15q-75 0 -143 18t-103 54q-37 36 -50 105t-13 179v359h150v-359q0 -99 5.5 -136.5
t26.5 -59.5q36 -36 127 -36t127 36q21 22 26.5 59.5t5.5 136.5v359h150v-359q0 -110 -13 -179t-50 -105q-35 -36 -103 -54t-143 -18z" />
    <glyph glyph-name="utilde" unicode="&#x169;" horiz-adv-x="658" 
d="M155 597q0 86 27 113q22 22 63 22q38 0 90 -21.5t60 -21.5q14 0 19 7q7 7 7 35h82q0 -86 -27 -113q-22 -22 -63 -22q-37 0 -89 21.5t-60 21.5q-14 0 -20 -7q-7 -7 -7 -35h-82zM442 0v69q-69 -84 -185 -84q-92 0 -141 49q-47 49 -47 140v363h142v-301q0 -87 20 -107
q22 -22 75 -22q65 0 136 47v383h142v-537h-142z" />
    <glyph glyph-name="Umacron" unicode="&#x16a;" horiz-adv-x="798" 
d="M254 861h291v-86h-291v86zM399 -15q-75 0 -143 18t-103 54q-37 36 -50 105t-13 179v359h150v-359q0 -99 5.5 -136.5t26.5 -59.5q36 -36 127 -36t127 36q21 22 26.5 59.5t5.5 136.5v359h150v-359q0 -110 -13 -179t-50 -105q-35 -36 -103 -54t-143 -18z" />
    <glyph glyph-name="umacron" unicode="&#x16b;" horiz-adv-x="658" 
d="M184 711h291v-86h-291v86zM442 0v69q-69 -84 -185 -84q-92 0 -141 49q-47 49 -47 140v363h142v-301q0 -87 20 -107q22 -22 75 -22q65 0 136 47v383h142v-537h-142z" />
    <glyph glyph-name="Ubreve" unicode="&#x16c;" horiz-adv-x="798" 
d="M399 807q32 0 46 14q13 13 13 55h102q0 -74 -30 -105q-36 -36 -131 -36t-131 36q-30 31 -30 105h102q0 -42 13 -55q14 -14 46 -14zM399 -15q-75 0 -143 18t-103 54q-37 36 -50 105t-13 179v359h150v-359q0 -99 5.5 -136.5t26.5 -59.5q36 -36 127 -36t127 36
q21 22 26.5 59.5t5.5 136.5v359h150v-359q0 -110 -13 -179t-50 -105q-35 -36 -103 -54t-143 -18z" />
    <glyph glyph-name="ubreve" unicode="&#x16d;" horiz-adv-x="658" 
d="M329 653q32 0 46 15q3 3 5 6t3.5 5.5t2.5 7.5l1.5 7.5t0.5 9v9.5v11v11h102q0 -46 -6 -72.5t-24 -44.5q-37 -37 -131 -37t-131 37q-18 18 -24 44.5t-6 72.5h102v-11v-11v-9.5t0.5 -9l1.5 -7.5t2.5 -7.5t3.5 -5.5t5 -6q14 -15 46 -15zM442 0v69q-69 -84 -185 -84
q-92 0 -141 49q-47 49 -47 140v363h142v-301q0 -87 20 -107q22 -22 75 -22q65 0 136 47v383h142v-537h-142z" />
    <glyph glyph-name="Uring" unicode="&#x16e;" horiz-adv-x="798" 
d="M399 911q65 0 89 -25q21 -20 21 -63t-21 -63q-24 -25 -89 -25t-89 25q-20 19 -20 63t20 63q24 25 89 25zM399 786q26 0 34 9q8 7 8 28t-8 28q-8 9 -34 9t-34 -9q-8 -7 -8 -28t8 -28q8 -9 34 -9zM399 -15q-75 0 -143 18t-103 54q-37 36 -50 105t-13 179v359h150v-359
q0 -99 5.5 -136.5t26.5 -59.5q36 -36 127 -36t127 36q21 22 26.5 59.5t5.5 136.5v359h150v-359q0 -110 -13 -179t-50 -105q-35 -36 -103 -54t-143 -18z" />
    <glyph glyph-name="uring" unicode="&#x16f;" horiz-adv-x="658" 
d="M329 758q64 0 89 -25q21 -21 21 -64t-21 -63q-24 -25 -89 -25t-89 25q-20 19 -20 63t20 64q25 25 89 25zM329 631q25 0 34 10q8 7 8 28q0 22 -8 29q-8 9 -34 9t-34 -9q-8 -7 -8 -29q0 -21 8 -28q9 -10 34 -10zM442 0v69q-69 -84 -185 -84q-92 0 -141 49q-47 49 -47 140
v363h142v-301q0 -87 20 -107q22 -22 75 -22q65 0 136 47v383h142v-537h-142z" />
    <glyph glyph-name="Uhungarumlaut" unicode="&#x170;" horiz-adv-x="798" 
d="M355 745h-122l95 131h152zM553 745h-114l87 131h152zM399 -15q-75 0 -143 18t-103 54q-37 36 -50 105t-13 179v359h150v-359q0 -99 5.5 -136.5t26.5 -59.5q36 -36 127 -36t127 36q21 22 26.5 59.5t5.5 136.5v359h150v-359q0 -110 -13 -179t-50 -105q-35 -36 -103 -54
t-143 -18z" />
    <glyph glyph-name="uhungarumlaut" unicode="&#x171;" horiz-adv-x="658" 
d="M305 592h-130l103 143h152zM499 592h-121l94 143h152zM442 0v69q-69 -84 -185 -84q-92 0 -141 49q-47 49 -47 140v363h142v-301q0 -87 20 -107q22 -22 75 -22q65 0 136 47v383h142v-537h-142z" />
    <glyph glyph-name="Uogonek" unicode="&#x172;" horiz-adv-x="798" 
d="M421 -210q-59 0 -80 21q-22 22 -22 61q0 30 10.5 53t49.5 60q-161 6 -226 72q-37 36 -50 105t-13 179v359h150v-359q0 -99 5.5 -136.5t26.5 -59.5q36 -36 127 -36t127 36q21 22 26.5 59.5t5.5 136.5v359h150v-359q0 -110 -13 -179t-50 -105q-51 -51 -166 -67
q-41 -44 -52 -60t-11 -32t7 -23q6 -6 24 -6q27 0 62 19v-78q-36 -20 -88 -20z" />
    <glyph glyph-name="uogonek" unicode="&#x173;" horiz-adv-x="658" 
d="M555 -190q-36 -20 -88 -20q-59 0 -80 21q-22 22 -22 61q0 32 13.5 57.5t63.5 70.5v69q-69 -84 -185 -84q-92 0 -141 49q-47 49 -47 140v363h142v-301q0 -87 20 -107q22 -22 75 -22q65 0 136 47v383h142v-537h-50q-47 -50 -59.5 -67.5t-12.5 -34.5q0 -16 7 -23q6 -6 24 -6
q27 0 62 19v-78z" />
    <glyph glyph-name="Wcircumflex" unicode="&#x174;" horiz-adv-x="1134" 
d="M489 745h-113l110 130h163l110 -130h-113l-78 66zM410 0h-177q-98 232 -201 700h159q54 -284 130 -531l160 531h172l160 -531q76 247 130 531h159q-103 -468 -201 -700h-177l-157 518z" />
    <glyph glyph-name="wcircumflex" unicode="&#x175;" horiz-adv-x="895" 
d="M365 592h-113l110 143h163l110 -143h-113l-79 75zM340 0h-153q-43 100 -90 249t-77 288h150q34 -177 94 -372l112 372h143l112 -372q60 195 94 372h150q-31 -139 -78 -288t-89 -249h-154l-107 336z" />
    <glyph glyph-name="Ycircumflex" unicode="&#x176;" horiz-adv-x="740" 
d="M292 745h-113l110 130h163l110 -130h-113l-78 66zM295 0v237q-197 242 -271 463h158q25 -72 82 -171t112 -162q53 61 109.5 160.5t82.5 172.5h148q-75 -225 -271 -463v-237h-150z" />
    <glyph glyph-name="ycircumflex" unicode="&#x177;" horiz-adv-x="601" 
d="M227 592h-113l110 143h163l110 -143h-113l-79 75zM134 -209q-34 0 -64 9v118q31 -7 59 -7q37 0 61.5 17.5t54.5 72.5q-150 291 -227 536h150q51 -167 149 -378q65 163 124 378h142q-93 -333 -209 -555q-25 -49 -40 -74.5t-36 -52.5t-42 -38t-51 -18.5t-71 -7.5z" />
    <glyph glyph-name="Ydieresis" unicode="&#x178;" horiz-adv-x="740" 
d="M337 819q0 -37 -16.5 -54.5t-54.5 -17.5q-72 0 -72 73q0 37 17 54t55 17t54.5 -17.5t16.5 -54.5zM546 819q0 -37 -16.5 -54.5t-53.5 -17.5q-38 0 -55 18t-17 55q0 36 17 53.5t55 17.5q37 0 53.5 -17.5t16.5 -54.5zM295 0v237q-197 242 -271 463h158q25 -72 82 -171
t112 -162q53 61 109.5 160.5t82.5 172.5h148q-75 -225 -271 -463v-237h-150z" />
    <glyph glyph-name="Zacute" unicode="&#x179;" horiz-adv-x="718" 
d="M417 745h-138l132 131h189zM665 0h-611v101l405 472h-393v127h589v-101l-408 -472h418v-127z" />
    <glyph glyph-name="zacute" unicode="&#x17a;" horiz-adv-x="570" 
d="M345 592h-123l107 143h170zM524 0h-478v90l282 331h-272v116h458v-91h-1l1 -1l-284 -329h294v-116z" />
    <glyph glyph-name="Zdotaccent" unicode="&#x17b;" horiz-adv-x="718" 
d="M438 819q0 -38 -16 -55t-59 -17t-60 17.5t-17 54.5t17 54.5t60 17.5t59 -17t16 -55zM665 0h-611v101l405 472h-393v127h589v-101l-408 -472h418v-127z" />
    <glyph glyph-name="zdotaccent" unicode="&#x17c;" horiz-adv-x="570" 
d="M360 678q0 -38 -16.5 -55t-58.5 -17q-43 0 -60 17t-17 55t17 55t60 17q42 0 58.5 -17t16.5 -55zM524 0h-478v90l282 331h-272v116h458v-91h-1l1 -1l-284 -329h294v-116z" />
    <glyph glyph-name="Zcaron" unicode="&#x17d;" horiz-adv-x="718" 
d="M280 745l-110 130h113l79 -66l78 66h113l-110 -130h-163zM665 0h-611v101l405 472h-393v127h589v-101l-408 -472h418v-127z" />
    <glyph glyph-name="zcaron" unicode="&#x17e;" horiz-adv-x="570" 
d="M205 592l-109 143h112l78 -76l79 76h113l-110 -143h-163zM524 0h-478v90l282 331h-272v116h458v-91h-1l1 -1l-284 -329h294v-116z" />
    <glyph glyph-name="Scommaaccent" unicode="&#x218;" horiz-adv-x="660" 
d="M309 -14q-78 0 -145 11.5t-99 27.5v116q130 -32 237 -32q117 0 144 27q11 11 11 56t-11 56q-12 11 -85.5 26.5t-154.5 38.5t-110 52q-39 39 -39 138q0 101 39 140q71 71 239 71q144 0 231 -39v-116q-102 32 -216 32q-110 0 -137 -27q-13 -13 -13 -51t13 -51
q15 -15 168 -53t180 -65q42 -42 42 -141q0 -47 -11.5 -88t-31.5 -61q-68 -68 -251 -68zM272 -195h-122l103 140h170z" />
    <glyph glyph-name="scommaaccent" unicode="&#x219;" horiz-adv-x="546" 
d="M255 -14q-63 0 -117.5 9t-78.5 22v111q97 -28 189 -28q85 0 103 18q10 10 10 35q0 22 -8 30q-7 7 -123 36t-146 59q-29 29 -29 107q0 81 31 114q32 32 77.5 42t112.5 10q129 0 193 -31v-110q-106 27 -182 27q-73 0 -91 -18q-6 -6 -6 -26q0 -22 6 -29q14 -12 131 -40
t139 -50q30 -30 30 -112q0 -90 -33 -123q-53 -53 -208 -53zM213 -195h-122l103 140h170z" />
    <glyph glyph-name="dotlessj" unicode="&#x237;" horiz-adv-x="291" 
d="M47 -210q-52 0 -105 17v107q37 -13 73 -13q31 0 45 15q9 9 11.5 27.5t2.5 68.5v525h142v-526q0 -72 -9.5 -111.5t-33.5 -67.5q-35 -42 -126 -42z" />
    <glyph glyph-name="circumflex" unicode="&#x2c6;" horiz-adv-x="500" 
d="M172 592h-113l110 143h163l110 -143h-113l-79 75z" />
    <glyph glyph-name="caron" unicode="&#x2c7;" horiz-adv-x="500" 
d="M169 592l-109 143h112l78 -76l79 76h113l-110 -143h-163z" />
    <glyph glyph-name="breve" unicode="&#x2d8;" horiz-adv-x="500" 
d="M250 653q32 0 46 15q3 3 5 6t3.5 5.5t2.5 7.5l1.5 7.5t0.5 9v9.5v11v11h102q0 -46 -6 -72.5t-24 -44.5q-37 -37 -131 -37t-131 37q-18 18 -24 44.5t-6 72.5h102v-11v-11v-9.5t0.5 -9l1.5 -7.5t2.5 -7.5t3.5 -5.5t5 -6q14 -15 46 -15z" />
    <glyph glyph-name="dotaccent" unicode="&#x2d9;" horiz-adv-x="500" 
d="M326 678q0 -38 -16.5 -55t-58.5 -17q-43 0 -60 17t-17 55t17 55t60 17q42 0 58.5 -17t16.5 -55z" />
    <glyph glyph-name="ring" unicode="&#x2da;" horiz-adv-x="500" 
d="M250 758q64 0 89 -25q21 -21 21 -64t-21 -63q-24 -25 -89 -25t-89 25q-20 19 -20 63t20 64q25 25 89 25zM250 631q25 0 34 10q8 7 8 28q0 22 -8 29q-8 9 -34 9t-34 -9q-8 -7 -8 -29q0 -21 8 -28q9 -10 34 -10z" />
    <glyph glyph-name="ogonek" unicode="&#x2db;" horiz-adv-x="500" 
d="M256 -210q-59 0 -80 21q-22 22 -22 61q0 34 15.5 61.5t73.5 77.5h90q-55 -59 -68.5 -77t-13.5 -36q0 -16 7 -23q6 -6 24 -6q27 0 62 19v-78q-36 -20 -88 -20z" />
    <glyph glyph-name="tilde" unicode="&#x2dc;" horiz-adv-x="500" 
d="M76 597q0 86 27 113q22 22 63 22q38 0 90 -21.5t60 -21.5q14 0 19 7q7 7 7 35h82q0 -86 -27 -113q-22 -22 -63 -22q-37 0 -89 21.5t-60 21.5q-14 0 -20 -7q-7 -7 -7 -35h-82z" />
    <glyph glyph-name="hungarumlaut" unicode="&#x2dd;" horiz-adv-x="500" 
d="M156 592h-130l103 143h152zM350 592h-121l94 143h152z" />
    <glyph glyph-name="Delta" unicode="&#x394;" horiz-adv-x="747" 
d="M373 575q-37 -71 -84 -201t-80 -250h326q-33 122 -79.5 251.5t-82.5 199.5zM55 0v104q86 313 233 596h176q149 -284 234 -597v-103h-643z" />
    <glyph glyph-name="Omega" unicode="&#x3a9;" horiz-adv-x="791" 
d="M353 101v-101h-292v127h139q-35 23 -62 53q-78 83 -78 217q0 163 77 240q40 40 113 59t145 19t145 -19t113 -59q77 -77 77 -240q0 -132 -78 -217q-27 -30 -62 -53h139v-127h-292v101q60 42 92 91q47 68 47 192q0 117 -41 161q-44 46 -140 46q-97 0 -140 -46
q-41 -42 -41 -161q0 -123 46 -192q32 -46 93 -91z" />
    <glyph glyph-name="mu" unicode="&#x3bc;" horiz-adv-x="683" 
d="M286 -15q-71 0 -123 36l61 -216h-141v732h141v-301q0 -87 20 -107q22 -22 75 -22q65 0 136 47v383h142v-537h-142v69q-71 -84 -169 -84z" />
    <glyph glyph-name="pi" unicode="&#x3c0;" horiz-adv-x="631" 
d="M566 2q-33 -16 -86 -16q-67 0 -102 41q-17 20 -21.5 52t-4.5 93v232h-80q-6 -188 -53 -404h-151q78 209 86 404h-122v133h550v-133h-105v-223q0 -53 11 -65q9 -10 34 -10q24 0 44 10v-114z" />
    <glyph glyph-name="endash" unicode="&#x2013;" horiz-adv-x="500" 
d="M0 323h500v-99h-500v99z" />
    <glyph glyph-name="emdash" unicode="&#x2014;" horiz-adv-x="1000" 
d="M0 323h1000v-99h-1000v99z" />
    <glyph glyph-name="quoteleft" unicode="&#x2018;" horiz-adv-x="291" 
d="M252 700l-67 -262h-146l101 262h112z" />
    <glyph glyph-name="quoteright" unicode="&#x2019;" horiz-adv-x="291" 
d="M39 438l67 262h146l-101 -262h-112z" />
    <glyph glyph-name="quotesinglbase" unicode="&#x201a;" horiz-adv-x="291" 
d="M45 -122l67 262h129l-101 -262h-95z" />
    <glyph glyph-name="quotedblleft" unicode="&#x201c;" horiz-adv-x="496" 
d="M252 700l-67 -262h-146l101 262h112zM456 700l-67 -262h-146l101 262h112z" />
    <glyph glyph-name="quotedblright" unicode="&#x201d;" horiz-adv-x="496" 
d="M39 438l67 262h146l-101 -262h-112zM243 438l67 262h146l-101 -262h-112z" />
    <glyph glyph-name="quotedblbase" unicode="&#x201e;" horiz-adv-x="496" 
d="M45 -122l67 262h129l-101 -262h-95zM249 -122l67 262h129l-101 -262h-95z" />
    <glyph glyph-name="dagger" unicode="&#x2020;" horiz-adv-x="370" 
d="M345 493h-109v-320h-102v320h-109v89h109v118h102v-118h109v-89z" />
    <glyph glyph-name="daggerdbl" unicode="&#x2021;" horiz-adv-x="370" 
d="M345 291h-109v-118h-102v118h-109v89h109v113h-109v89h109v118h102v-118h109v-89h-109v-113h109v-89z" />
    <glyph glyph-name="bullet" unicode="&#x2022;" horiz-adv-x="291" 
d="M44 273q0 102 102 102t102 -102t-102 -102t-102 102z" />
    <glyph glyph-name="ellipsis" unicode="&#x2026;" horiz-adv-x="738" 
d="M65 69q0 82 81 82t81 -82q0 -81 -81 -81t-81 81zM296 69q0 82 81 82t81 -82q0 -81 -81 -81t-81 81zM528 69q0 82 81 82t81 -82q0 -81 -81 -81t-81 81z" />
    <glyph glyph-name="perthousand" unicode="&#x2030;" horiz-adv-x="1264" 
d="M297 307q-37 -36 -119 -36t-119 36q-44 44 -44 184q0 138 44 182q37 36 119 36t119 -36q44 -44 44 -182q0 -140 -44 -184zM612 700h114l-431 -700h-114zM139 368q13 -13 39 -13q27 0 40 13q20 20 20 123q0 98 -20 116q-13 13 -40 13q-26 0 -39 -13q-20 -18 -20 -116
q0 -103 20 -123zM1204 27q-37 -36 -119 -36t-119 36q-44 44 -44 184q0 138 44 182q37 36 119 36t119 -36q44 -44 44 -182q0 -140 -44 -184zM848 27q-37 -36 -119 -36t-119 36q-44 44 -44 184q0 138 44 182q37 36 119 36t119 -36q44 -44 44 -182q0 -140 -44 -184zM1046 88
q13 -13 39 -13q27 0 40 13q20 20 20 123q0 98 -20 116q-13 13 -40 13q-26 0 -39 -13q-20 -18 -20 -116q0 -103 20 -123zM690 88q13 -13 39 -13q27 0 40 13q20 20 20 123q0 98 -20 116q-13 13 -40 13q-26 0 -39 -13q-20 -18 -20 -116q0 -103 20 -123z" />
    <glyph glyph-name="guilsinglleft" unicode="&#x2039;" horiz-adv-x="291" 
d="M142 65l-118 207l118 206h123l-109 -206l109 -207h-123z" />
    <glyph glyph-name="guilsinglright" unicode="&#x203a;" horiz-adv-x="291" 
d="M148 478l119 -207l-119 -206h-123l109 206l-109 207h123z" />
    <glyph glyph-name="fraction" unicode="&#x2044;" horiz-adv-x="195" 
d="M256 700h114l-431 -700h-114z" />
    <glyph glyph-name="zerosuperior" unicode="&#x2070;" horiz-adv-x="356" 
d="M297 397q-37 -36 -119 -36t-119 36q-44 44 -44 184q0 138 44 182q37 36 119 36t119 -36q44 -44 44 -182q0 -140 -44 -184zM139 458q13 -13 39 -13q27 0 40 13q20 20 20 123q0 98 -20 116q-13 13 -40 13q-26 0 -39 -13q-20 -18 -20 -116q0 -103 20 -123z" />
    <glyph glyph-name="foursuperior" unicode="&#x2074;" horiz-adv-x="356" 
d="M199 550v104l-73 -104h73zM347 467h-47v-97h-101v97h-182v64l189 259h94v-240h47v-83z" />
    <glyph glyph-name="fivesuperior" unicode="&#x2075;" horiz-adv-x="356" 
d="M152 361q-76 0 -117 21v81q56 -17 116 -17q51 0 66 15q11 11 11 35q0 19 -11 30q-16 17 -167 17v247h258v-84h-166v-78q79 -3 111 -12t50 -27q28 -28 28 -93q0 -64 -33 -99q-37 -36 -146 -36z" />
    <glyph glyph-name="sixsuperior" unicode="&#x2076;" horiz-adv-x="357" 
d="M179 361q-86 0 -121 35t-35 111v1q0 45 18.5 90t72.5 104l80 88h118l-130 -139q82 0 117 -36q35 -34 35 -108q0 -76 -35 -111t-120 -35zM179 445q25 0 37 12t12 53q0 39 -12 51q-14 12 -37 12q-24 0 -38 -12q-13 -13 -13 -51q0 -40 13 -53q12 -12 38 -12z" />
    <glyph glyph-name="sevensuperior" unicode="&#x2077;" horiz-adv-x="356" 
d="M139 370h-112l182 336h-187v84h308v-65z" />
    <glyph glyph-name="eightsuperior" unicode="&#x2078;" horiz-adv-x="355" 
d="M178 361q-92 0 -128 36q-31 31 -31 86q0 49 26 77q16 16 44 22q-22 8 -36 22q-25 25 -25 78t30 83q33 33 120 33q86 0 119 -33q30 -30 30 -83t-25 -78q-15 -13 -35 -21q29 -8 44 -23q25 -27 25 -77q0 -56 -30 -86q-36 -36 -128 -36zM220 666q0 31 -9 40q-10 10 -33 10
t-33 -10t-10 -40q0 -31 9 -41q9 -9 34 -9t34 9q8 9 8 41zM229 494q0 28 -11 39q-13 11 -40 11t-40 -11q-12 -12 -12 -39q0 -25 12 -37t40 -12t40 12q11 11 11 37z" />
    <glyph glyph-name="ninesuperior" unicode="&#x2079;" horiz-adv-x="357" 
d="M163 363h-118l131 139q-83 0 -118 35t-35 109q0 76 35 110q35 36 121 36q85 0 120 -36q35 -34 35 -110v-1q0 -45 -18.5 -90t-72.5 -104zM179 708q-26 0 -38 -12t-12 -53q0 -39 12 -51t38 -12q25 0 37 12q13 13 13 51q0 40 -13 53q-12 12 -37 12z" />
    <glyph glyph-name="zeroinferior" unicode="&#x2080;" horiz-adv-x="356" 
d="M297 -63q-37 -36 -119 -36t-119 36q-44 44 -44 184q0 138 44 182q37 36 119 36t119 -36q44 -44 44 -182q0 -140 -44 -184zM139 -2q13 -13 39 -13q27 0 40 13q20 20 20 123q0 98 -20 116q-13 13 -40 13q-26 0 -39 -13q-20 -18 -20 -116q0 -103 20 -123z" />
    <glyph glyph-name="oneinferior" unicode="&#x2081;" horiz-adv-x="356" 
d="M270 -90h-101v293l-117 -87v116l133 98h85v-420z" />
    <glyph glyph-name="twoinferior" unicode="&#x2082;" horiz-adv-x="357" 
d="M321 -90h-291v65l151 137q25 25 32 42.5t7 43.5q0 27 -13 40q-16 16 -61 16q-52 0 -115 -22v84q46 23 128 23q95 0 135 -40q27 -27 27 -95q0 -46 -13.5 -74t-48.5 -61l-82 -75h144v-84z" />
    <glyph glyph-name="threeinferior" unicode="&#x2083;" horiz-adv-x="356" 
d="M152 -99q-78 0 -117 21v81q54 -17 115 -17q54 0 68 14q12 12 12 33q0 19 -11 30q-16 17 -151 17v70l107 96h-146v84h290v-65l-120 -109q75 -8 101 -35q31 -31 31 -88q0 -62 -33 -96q-36 -36 -146 -36z" />
    <glyph glyph-name="fourinferior" unicode="&#x2084;" horiz-adv-x="356" 
d="M199 90v104l-73 -104h73zM347 7h-47v-97h-101v97h-182v64l189 259h94v-240h47v-83z" />
    <glyph glyph-name="fiveinferior" unicode="&#x2085;" horiz-adv-x="356" 
d="M152 -99q-76 0 -117 21v81q56 -17 116 -17q51 0 66 15q11 11 11 35q0 19 -11 30q-16 17 -167 17v247h258v-84h-166v-78q79 -3 111 -12t50 -27q28 -28 28 -93q0 -64 -33 -99q-37 -36 -146 -36z" />
    <glyph glyph-name="sixinferior" unicode="&#x2086;" horiz-adv-x="357" 
d="M179 -99q-86 0 -121 35t-35 111v1q0 45 18.5 90t72.5 104l80 88h118l-130 -139q82 0 117 -36q35 -34 35 -108q0 -76 -35 -111t-120 -35zM179 -15q25 0 37 12t12 53q0 39 -12 51q-14 12 -37 12q-24 0 -38 -12q-13 -13 -13 -51q0 -40 13 -53q12 -12 38 -12z" />
    <glyph glyph-name="seveninferior" unicode="&#x2087;" horiz-adv-x="356" 
d="M139 -90h-112l182 336h-187v84h308v-65z" />
    <glyph glyph-name="eightinferior" unicode="&#x2088;" horiz-adv-x="355" 
d="M178 -99q-92 0 -128 36q-31 31 -31 86q0 49 26 77q16 16 44 22q-22 8 -36 22q-25 25 -25 78t30 83q33 33 120 33q86 0 119 -33q30 -30 30 -83t-25 -78q-15 -13 -35 -21q29 -8 44 -23q25 -27 25 -77q0 -56 -30 -86q-36 -36 -128 -36zM220 206q0 31 -9 40q-10 10 -33 10
t-33 -10t-10 -40q0 -31 9 -41q9 -9 34 -9t34 9q8 9 8 41zM229 34q0 28 -11 39q-13 11 -40 11t-40 -11q-12 -12 -12 -39q0 -25 12 -37t40 -12t40 12q11 11 11 37z" />
    <glyph glyph-name="nineinferior" unicode="&#x2089;" horiz-adv-x="357" 
d="M163 -97h-118l131 139q-83 0 -118 35t-35 109q0 76 35 110q35 36 121 36q85 0 120 -36q35 -34 35 -110v-1q0 -45 -18.5 -90t-72.5 -104zM179 248q-26 0 -38 -12t-12 -53q0 -39 12 -51t38 -12q25 0 37 12q13 13 13 51q0 40 -13 53q-12 12 -37 12z" />
    <glyph glyph-name="Euro" unicode="&#x20ac;" 
d="M540 12q-53 -27 -159 -27q-140 0 -200 59q-51 52 -66 174h-84v103h78v35v23h-78v104h84q13 119 66 172q60 60 200 60q107 0 157 -27v-114q-67 21 -134 21q-80 0 -108 -28q-20 -19 -30 -84h246v-104h-253v-23v-35h253v-103h-245q9 -65 29 -85q29 -29 108 -29q63 0 136 21
v-113z" />
    <glyph glyph-name="trademark" unicode="&#x2122;" horiz-adv-x="998" 
d="M414 616h-147v-336h-100v336h-146v84h393v-84zM695 382l-131 158v-260h-94v420h83l144 -173l139 173h82v-420h-100v255z" />
    <glyph glyph-name="estimated" unicode="&#x212e;" horiz-adv-x="828" 
d="M416 631q-108 0 -183 -70v-143h365v143q-76 70 -182 70zM747 215q-40 -101 -130.5 -165t-200.5 -64q-148 0 -253 107.5t-105 258.5t104.5 257t253.5 106q147 0 251.5 -106.5t104.5 -256.5q0 -10 -1 -16h-538v-192q77 -74 183 -74q79 0 141 38.5t90 106.5h100z" />
    <glyph glyph-name="partialdiff" unicode="&#x2202;" 
d="M291 -15q-138 0 -195 58q-58 58 -58 182q0 125 58 183t181 58q59 0 106 -24q9 -5 21 -17q-13 100 -57 139q-38 34 -114 34q-61 0 -145 -29v107q89 39 166 39q131 0 196 -65q48 -49 71 -122.5t23 -212.5q0 -109 -16 -169.5t-50 -94.5q-66 -66 -187 -66zM291 105
q53 0 77 24t24 96q0 77 -24 101q-26 24 -77 24q-52 0 -76 -24t-24 -101q0 -74 24 -96q23 -24 76 -24z" />
    <glyph glyph-name="product" unicode="&#x220f;" horiz-adv-x="869" 
d="M603 -195v771h-337v-771h-149v895h635v-895h-149z" />
    <glyph glyph-name="summation" unicode="&#x2211;" horiz-adv-x="670" 
d="M656 -68v-127h-611v101l301 353l-291 340v101h573v-127h-372l267 -314l-280 -327h413z" />
    <glyph glyph-name="minus" unicode="&#x2212;" horiz-adv-x="584" 
d="M499 219h-416v99h416v-99z" />
    <glyph glyph-name="radical" unicode="&#x221a;" 
d="M230 0l-102 308h-83v99h160l74 -241l143 534h116l-208 -700h-100z" />
    <glyph glyph-name="infinity" unicode="&#x221e;" 
d="M417 115q-79 0 -126 76q-49 -76 -124 -76q-67 0 -96 30q-42 42 -42 122q0 83 42 123q30 31 95 31q79 0 126 -76q49 76 124 76q66 0 96 -30q41 -41 41 -123q0 -83 -41 -122q-31 -31 -95 -31zM414 199q24 0 34 10q16 16 16 59q-1 43 -17 60q-11 10 -34 10q-25 0 -43 -18
t-37 -53q19 -34 36.5 -51t44.5 -17zM169 198q25 0 43.5 18t36.5 52q-35 69 -81 69q-23 0 -33 -10q-17 -17 -17 -60q3 -42 18 -59q10 -10 33 -10z" />
    <glyph glyph-name="integral" unicode="&#x222b;" 
d="M201 -210q-73 0 -112 12v117q29 -7 71 -7q33 0 46 13t13 69v552q0 128 35 163q41 41 128 41q74 0 111 -12v-117q-28 7 -70 7q-33 0 -46 -13q-13 -12 -13 -69v-552q0 -127 -35 -162q-41 -42 -128 -42z" />
    <glyph glyph-name="approxequal" unicode="&#x2248;" 
d="M396 277q-48 0 -107.5 28.5t-100.5 28.5q-56 0 -104 -48v102q47 44 104 44q43 0 101.5 -28t105.5 -28q58 0 104 47v-101q-45 -45 -103 -45zM396 106q-48 0 -107.5 28t-100.5 28q-56 0 -104 -47v102q47 44 104 44q43 0 101.5 -28t105.5 -28q58 0 104 47v-102
q-45 -44 -103 -44z" />
    <glyph glyph-name="notequal" unicode="&#x2260;" horiz-adv-x="584" 
d="M499 131h-244l-70 -99l-82 55l31 44h-51v99h121l54 78h-175v99h245l69 98l82 -55l-30 -43h50v-99h-120l-55 -78h175v-99z" />
    <glyph glyph-name="lessequal" unicode="&#x2264;" 
d="M499 177l-416 117v107l416 118v-99l-282 -72l282 -72v-99zM499 61h-416v99h416v-99z" />
    <glyph glyph-name="greaterequal" unicode="&#x2265;" 
d="M82 177v99l282 72l-282 72v99l416 -118v-107zM82 61v99h415v-99h-415z" />
    <glyph glyph-name="lozenge" unicode="&#x25ca;" 
d="M243 0l-166 349l167 350h96l166 -349l-167 -350h-96zM395 349l-105 225l-102 -224l104 -225z" />
    <glyph glyph-name="commaaccent" unicode="&#xf6c3;" horiz-adv-x="500" 
d="M244 -195h-122l103 140h170z" />
    <glyph glyph-name="grave.case" horiz-adv-x="500" 
d="M283 876l132 -131h-138l-183 131h189z" />
    <glyph glyph-name="acute.case" horiz-adv-x="500" 
d="M227 745h-138l132 131h189z" />
    <glyph glyph-name="hungarumlaut.case" horiz-adv-x="500" 
d="M150 745h-122l95 131h152zM348 745h-114l87 131h152z" />
    <glyph glyph-name="circumflex.case" horiz-adv-x="500" 
d="M172 745h-113l110 130h163l110 -130h-113l-78 66z" />
    <glyph glyph-name="caron.case" horiz-adv-x="500" 
d="M169 745l-110 130h113l79 -66l78 66h113l-110 -130h-163z" />
    <glyph glyph-name="breve.case" horiz-adv-x="500" 
d="M250 807q32 0 46 14q13 13 13 55h102q0 -74 -30 -105q-36 -36 -131 -36t-131 36q-30 31 -30 105h102q0 -42 13 -55q14 -14 46 -14z" />
    <glyph glyph-name="ring.case" horiz-adv-x="500" 
d="M250 911q65 0 89 -25q21 -20 21 -63t-21 -63q-24 -25 -89 -25t-89 25q-20 19 -20 63t20 63q24 25 89 25zM250 786q26 0 34 9q8 7 8 28t-8 28q-8 9 -34 9t-34 -9q-8 -7 -8 -28t8 -28q8 -9 34 -9z" />
    <glyph glyph-name="tilde.case" horiz-adv-x="500" 
d="M76 749q0 76 27 105q22 22 63 22q38 0 89 -18t60 -18q15 0 20 8q7 7 7 27h82q0 -78 -27 -105q-22 -22 -63 -22q-37 0 -87.5 18t-59.5 18q-15 0 -22 -8q-7 -7 -7 -27h-82z" />
    <glyph glyph-name="dotaccent.case" horiz-adv-x="500" 
d="M326 819q0 -38 -16 -55t-59 -17t-60 17.5t-17 54.5t17 54.5t60 17.5t59 -17t16 -55z" />
    <glyph glyph-name="dieresis.case" horiz-adv-x="500" 
d="M217 819q0 -37 -16.5 -54.5t-54.5 -17.5q-72 0 -72 73q0 37 17 54t55 17t54.5 -17.5t16.5 -54.5zM426 819q0 -37 -16.5 -54.5t-53.5 -17.5q-38 0 -55 18t-17 55q0 36 17 53.5t55 17.5q37 0 53.5 -17.5t16.5 -54.5z" />
    <glyph glyph-name="macron.case" horiz-adv-x="500" 
d="M105 861h291v-86h-291v86z" />
    <glyph glyph-name="caron.alt" horiz-adv-x="500" 
d="M248 592h-102l68 143h148z" />
    <glyph glyph-name="commaaccent.alt" horiz-adv-x="500" 
d="M266 735h123l-107 -143h-170z" />
    <glyph glyph-name="germandbls.cap" horiz-adv-x="1320" 
d="M969 -14q-78 0 -145 11.5t-99 27.5v116q130 -32 237 -32q117 0 144 27q11 11 11 56t-11 56q-12 11 -85.5 26.5t-154.5 38.5t-110 52q-39 39 -39 138q0 101 39 140q71 71 239 71q144 0 231 -39v-116q-102 32 -216 32q-110 0 -137 -27q-13 -13 -13 -51t13 -51
q15 -15 168 -53t180 -65q42 -42 42 -141q0 -47 -11.5 -88t-31.5 -61q-68 -68 -251 -68zM309 -14q-78 0 -145 11.5t-99 27.5v116q130 -32 237 -32q117 0 144 27q11 11 11 56t-11 56q-12 11 -85.5 26.5t-154.5 38.5t-110 52q-39 39 -39 138q0 101 39 140q71 71 239 71
q144 0 231 -39v-116q-102 32 -216 32q-110 0 -137 -27q-13 -13 -13 -51t13 -51q15 -15 168 -53t180 -65q42 -42 42 -141q0 -47 -11.5 -88t-31.5 -61q-68 -68 -251 -68z" />
    <glyph glyph-name="i.trk" horiz-adv-x="291" 
d="M221 678q0 -38 -16 -55t-59 -17t-60 17.5t-17 54.5t17 54.5t60 17.5t59 -17t16 -55zM74 0v537h142v-537h-142z" />
    <glyph glyph-name="exclamdown.case" horiz-adv-x="291" 
d="M225 631q0 -82 -80 -82q-81 0 -81 82t81 82q80 0 80 -82zM203 467l17 -467h-149l17 467h115z" />
    <glyph glyph-name="questiondown.case" horiz-adv-x="480" 
d="M390 631q0 -82 -80 -82q-82 0 -82 82t82 82q80 0 80 -82zM248 483h123v-156q-73 -18 -115 -32.5t-55.5 -22t-23.5 -17.5q-22 -22 -22 -67q0 -43 22 -65q24 -22 106 -22q63 0 160 19v-115q-72 -21 -175 -21q-138 0 -194 56q-47 47 -47 146q0 98 47 144q14 15 25.5 23.5
t49 24.5t99.5 33v72z" />
    <glyph glyph-name="hyphen.case" horiz-adv-x="291" 
d="M19 405h253v-99h-253v99z" />
    <glyph glyph-name="guilsinglleft.case" horiz-adv-x="291" 
d="M142 147l-118 207l118 206h123l-109 -206l109 -207h-123z" />
    <glyph glyph-name="guilsinglright.case" horiz-adv-x="291" 
d="M148 560l119 -207l-119 -206h-123l109 206l-109 207h123z" />
    <glyph glyph-name="guillemotleft.case" horiz-adv-x="503" 
d="M142 147l-118 207l118 206h123l-109 -206l109 -207h-123zM353 147l-118 207l118 206h123l-109 -206l109 -207h-123z" />
    <glyph glyph-name="guillemotright.case" horiz-adv-x="501" 
d="M148 560l119 -207l-119 -206h-123l109 206l-109 207h123zM358 560l119 -207l-119 -206h-123l109 206l-109 207h123z" />
    <glyph glyph-name="parenleft.case" horiz-adv-x="389" 
d="M76 367q0 241 144 412h122q-143 -191 -143 -412q0 -232 143 -423h-122q-66 79 -105 187.5t-39 235.5z" />
    <glyph glyph-name="parenright.case" horiz-adv-x="389" 
d="M313 359q0 -242 -143 -414h-123q143 191 143 414q0 230 -143 421h123q143 -172 143 -421z" />
    <glyph glyph-name="braceleft.case" horiz-adv-x="389" 
d="M14 313v98q65 0 79 14q16 16 16 98v33q0 71 11 111t37 67q46 46 202 46v-98q-95 0 -116 -20q-19 -19 -19 -106v-32q0 -76 -19 -109q-12 -24 -59 -52q47 -30 60 -54q18 -34 18 -107v-33q0 -85 20 -105q22 -22 115 -20v-98q-152 -3 -201 46t-49 177v34q0 82 -16 98
q-12 12 -79 12z" />
    <glyph glyph-name="braceright.case" horiz-adv-x="389" 
d="M375 411v-98q-65 0 -79 -14q-16 -16 -16 -97v-34q0 -71 -11 -111t-37 -67q-46 -46 -202 -46v99q96 0 116 20q19 19 19 105v33q0 75 19 108q12 24 59 52q-47 30 -60 54q-18 34 -18 107v33q0 85 -20 105q-23 23 -115 20v98q152 3 201 -46t49 -177v-34q0 -82 16 -98
q12 -12 79 -12z" />
    <glyph glyph-name="bracketleft.case" horiz-adv-x="381" 
d="M79 -55v835h272v-98h-157v-639h157v-98h-272z" />
    <glyph glyph-name="bracketright.case" horiz-adv-x="381" 
d="M30 -55v98h157v639h-157v98h273v-835h-273z" />
    <glyph glyph-name="endash.case" horiz-adv-x="500" 
d="M0 405h500v-99h-500v99z" />
    <glyph glyph-name="emdash.case" horiz-adv-x="1000" 
d="M0 405h1000v-99h-1000v99z" />
    <glyph glyph-name="bullet.case" horiz-adv-x="291" 
d="M44 355q0 102 102 102t102 -102t-102 -102t-102 102z" />
    <glyph glyph-name="periodcentered.case" horiz-adv-x="291" 
d="M65 360q0 82 81 82t81 -82q0 -81 -81 -81t-81 81z" />
    <glyph glyph-name="at.case" horiz-adv-x="964" 
d="M494 -75q-225 0 -325 100q-110 110 -111 335q0 214 120 334q101 101 306 101t305 -101q52 -52 81 -116t29 -163q0 -158 -79 -239q-48 -50 -129 -50q-110 0 -141 69q-72 -69 -157 -69q-39 0 -72 15.5t-49 44.5q-32 62 -10 178q9 50 29 98t41 68q48 48 126 48t130 -55l9 43
h118l-57 -268q-10 -53 0 -73.5t41 -20.5q43 0 71 31q18 23 30 74.5t12 105.5q0 145 -83 228q-74 74 -245 74t-245 -74q-39 -38 -66.5 -114t-27.5 -169q0 -94 23.5 -168.5t60.5 -111.5q77 -77 260 -77q158 0 277 40v-69q-121 -49 -272 -49zM432 227q39 0 106 37q1 19 6 44
l29 139q-45 28 -89 28q-41 0 -61 -20q-26 -24 -41 -91q-21 -97 -2 -119q16 -18 52 -18z" />
    <glyph glyph-name="zeroslash" horiz-adv-x="582" 
d="M482 45q-60 -60 -191 -60t-191 60q-43 43 -57.5 119.5t-14.5 191.5q0 109 15 183t57 117q60 59 191 59t191 -59q42 -43 57 -117t15 -183q0 -116 -14.5 -192.5t-57.5 -118.5zM215 131q25 -25 76 -25t76 25q37 37 37 225q0 178 -37 213q-25 25 -76 25q-53 0 -76 -25
q-38 -36 -38 -213q0 -189 38 -225zM222 346q0 76 69 76q71 0 71 -76t-71 -76q-69 0 -69 76z" />
    <glyph glyph-name="currency.lp" 
d="M425 145l-48 48q-38 -13 -85 -13q-50 0 -87 14l-48 -48l-70 70l50 50q-11 33 -11 84t11 84l-50 50l69 70l48 -48q38 14 88 14q48 0 86 -13l47 47l70 -70l-48 -48q11 -34 11 -86q0 -53 -11 -87l48 -48zM292 258q35 0 51 18q18 17 18 74q0 59 -18 76q-14 16 -51 16t-51 -16
q-18 -17 -18 -76q0 -57 18 -74q16 -18 51 -18z" />
    <glyph glyph-name="dollar.lp" 
d="M183 459q10 -10 57 -25v152q-43 -6 -57 -22q-12 -12 -12 -52t12 -53zM388 252q-8 8 -55 22v-160q41 8 54 21t13 60q0 45 -12 57zM223 -87v76q-126 8 -177 38v116q90 -25 177 -31v189q-124 30 -158 66q-36 37 -36 141q0 106 36 142q54 54 175 62v78h111v-80
q108 -9 156 -36v-116q-73 25 -156 30v-184q130 -35 154 -61q37 -41 37 -142q0 -112 -41 -153q-49 -50 -168 -59v-76h-110z" />
    <glyph glyph-name="Euro.lp" 
d="M540 12q-53 -27 -159 -27q-140 0 -200 59q-51 52 -66 174h-84v103h78v35v23h-78v104h84q13 119 66 172q60 60 200 60q107 0 157 -27v-114q-67 21 -134 21q-80 0 -108 -28q-20 -19 -30 -84h246v-104h-253v-23v-35h253v-103h-245q9 -65 29 -85q29 -29 108 -29q63 0 136 21
v-113z" />
    <glyph glyph-name="cent.lp" 
d="M526 101q-42 -23 -123 -29v-159h-110v157q-139 10 -190 64q-59 60 -59 219q0 156 59 219q51 52 190 62v156h110v-156q76 -6 120 -28v-119q-57 19 -120 23v-314q59 4 123 25v-120zM221 225q20 -20 72 -27v310q-51 -5 -72 -26q-31 -31 -31 -129t31 -128z" />
    <glyph glyph-name="sterling.lp" 
d="M537 0h-503v120h105v178h-102v104h102v69q0 137 46 183q61 61 182 61q91 0 156 -28v-119q-66 19 -127 19q-70 0 -91 -21q-20 -20 -20 -97v-67h209v-104h-209v-178h252v-120z" />
    <glyph glyph-name="yen.lp" 
d="M218 0v218h-175v103h175v58h-175v104h100q-56 85 -126 217h157q70 -141 123 -212q56 74 121 212h147q-69 -132 -126 -217h101v-104h-176v-58h176v-103h-176v-218h-146z" />
    <glyph glyph-name="zeroslash.lp" horiz-adv-x="602" 
d="M492 45q-60 -60 -191 -60t-191 60q-43 43 -57.5 119.5t-14.5 191.5q0 109 15 183t57 117q60 59 191 59t191 -59q42 -43 57 -117t15 -183q0 -116 -14.5 -192.5t-57.5 -118.5zM225 131q25 -25 76 -25t76 25q37 37 37 225q0 178 -37 213q-25 25 -76 25q-53 0 -76 -25
q-38 -36 -38 -213q0 -189 38 -225zM232 346q0 76 69 76q71 0 71 -76t-71 -76q-69 0 -69 76z" />
    <glyph glyph-name="zero.lp" horiz-adv-x="602" 
d="M492 45q-60 -60 -191 -60t-191 60q-43 43 -57.5 119.5t-14.5 191.5q0 109 15 183t57 117q60 59 191 59t191 -59q42 -43 57 -117t15 -183q0 -116 -14.5 -192.5t-57.5 -118.5zM225 131q25 -25 76 -25t76 25q37 37 37 225q0 178 -37 213q-25 25 -76 25q-53 0 -76 -25
q-38 -36 -38 -213q0 -189 38 -225z" />
    <glyph glyph-name="one.lp" horiz-adv-x="476" 
d="M381 0h-146v515l-196 -147v169l221 163h121v-700z" />
    <glyph glyph-name="two.lp" horiz-adv-x="584" 
d="M524 0h-474v96l246 231q52 51 66 82.5t14 78.5q0 53 -25 78q-25 27 -112 27q-77 0 -186 -35v120q79 37 206 37q156 0 219 -63q28 -28 36 -61t8 -93q0 -78 -23.5 -125t-90.5 -111l-154 -142h270v-120z" />
    <glyph glyph-name="three.lp" 
d="M248 -15q-124 0 -192 33v117q87 -28 189 -28q98 0 126 28q22 22 22 68q0 38 -21 59q-17 17 -72 24t-185 7v100l204 187h-271v120h473v-96l-213 -202q136 -9 180 -53q52 -52 52 -146q0 -54 -11.5 -90.5t-42.5 -68.5q-59 -59 -238 -59z" />
    <glyph glyph-name="four.lp" 
d="M335 286v204l-147 -204h147zM568 166h-87v-166h-146v166h-311v96l328 438h129v-414h87v-120z" />
    <glyph glyph-name="five.lp" 
d="M250 -15q-124 0 -192 33v117q87 -28 190 -28q93 0 122 29q23 23 23 69q0 40 -21 61q-17 18 -78 24.5t-211 6.5v403h420v-120h-282v-160q129 -4 185 -19t87 -45q47 -48 47 -152q0 -55 -11.5 -91t-43.5 -68q-59 -60 -235 -60z" />
    <glyph glyph-name="six.lp" 
d="M291 -15q-138 0 -195 58q-58 58 -58 182v2q0 73 29.5 145t115.5 167l143 161h178l-218 -239h5q138 0 195 -57q58 -58 58 -179q0 -124 -58 -182q-57 -58 -195 -58zM291 105q53 0 77 24t24 100q0 72 -26 98q-23 23 -75 23q-53 0 -74 -23q-26 -24 -26 -98q0 -76 24 -100
t76 -24z" />
    <glyph glyph-name="seven.lp" 
d="M209 0h-163l319 580h-325v120h498v-96z" />
    <glyph glyph-name="eight.lp" horiz-adv-x="603" 
d="M301 -15q-147 0 -206 59q-51 51 -51 142q0 86 44 130q26 26 75 39q-37 12 -62 37q-42 42 -42 129q0 89 49 138q56 56 193 56q138 0 194 -56q49 -49 49 -138q0 -86 -43 -129q-23 -24 -61 -37q49 -13 75 -39q44 -42 44 -130q0 -90 -51 -142q-59 -59 -207 -59zM390 499
q0 56 -21 77q-20 20 -68 20t-68 -20q-21 -21 -21 -77q0 -53 21 -74q19 -19 68 -19t68 19q21 21 21 74zM405 202q0 52 -23 73q-22 22 -81 22t-81 -22q-23 -23 -23 -73t23 -75q22 -22 81 -22t81 22q23 23 23 75z" />
    <glyph glyph-name="nine.lp" 
d="M257 0h-179l219 239h-6q-138 0 -195 57q-58 59 -58 179q0 124 58 182q57 58 195 58t195 -58q58 -58 58 -182v-2q0 -73 -29.5 -145t-114.5 -167zM291 595q-52 0 -76 -24t-24 -100q0 -74 26 -98q21 -23 74 -23q52 0 75 23q26 26 26 98q0 76 -24 100t-77 24z" />
    <glyph glyph-name="currency.ot" 
d="M425 98l-48 48q-38 -13 -85 -13q-50 0 -87 14l-48 -48l-70 70l50 50q-11 33 -11 84t11 84l-50 50l69 70l48 -48q38 14 88 14q48 0 86 -13l47 47l70 -70l-48 -48q11 -34 11 -86q0 -53 -11 -87l48 -48zM292 211q35 0 51 18q18 17 18 74q0 59 -18 76q-14 16 -51 16t-51 -16
q-18 -17 -18 -76q0 -57 18 -74q16 -18 51 -18z" />
    <glyph glyph-name="dollar.ot" 
d="M175 398q9 -7 65 -21v120q-49 -5 -65 -16q-12 -9 -12 -42q0 -32 12 -41zM396 219q-7 5 -63 18v-123q50 5 63 15q12 9 12 45t-12 45zM223 -76v66q-121 6 -177 33v116q96 -22 177 -27v146q-126 27 -158 56q-36 33 -36 126q0 96 36 127q54 47 175 55v65h111v-67
q104 -9 156 -32v-116q-69 21 -156 26v-145q131 -29 154 -51q37 -36 37 -124q0 -100 -41 -136q-49 -45 -168 -52v-66h-110z" />
    <glyph glyph-name="Euro.ot" 
d="M538 10q-49 -24 -157 -24q-141 0 -200 53q-51 47 -66 148h-84v94h78v18v28h-78v96h85q15 102 65 148q59 54 200 54q101 0 159 -25v-115q-69 20 -136 20q-85 0 -111 -24q-18 -18 -26 -58h245v-96h-253v-28v-18h253v-94h-246q8 -41 27 -58q23 -24 111 -24q69 0 134 19v-114
z" />
    <glyph glyph-name="cent.ot" 
d="M526 88q-47 -22 -134 -27v-138h-110v138q-128 8 -179 56q-59 56 -59 190q0 133 60 190q51 49 178 56v135h110v-135q81 -5 131 -25v-119q-65 18 -131 21v-245q65 3 134 23v-120zM221 208q20 -15 61 -20v239q-43 -5 -61 -19q-31 -24 -31 -101q0 -76 31 -99z" />
    <glyph glyph-name="sterling.ot" 
d="M537 0h-503v119h105v139h-102v94h102v58q0 117 46 158q63 55 182 55q92 0 156 -26v-119q-61 16 -127 16q-72 0 -91 -15q-20 -15 -20 -72v-55h209v-94h-209v-139h252v-119z" />
    <glyph glyph-name="yen.ot" 
d="M218 0v187h-175v94h175v46h-175v96h99q-60 78 -125 187h157q85 -140 123 -179q45 47 121 179h147q-61 -103 -126 -187h101v-96h-176v-46h176v-94h-176v-187h-146z" />
    <glyph glyph-name="zeroslash.ot" horiz-adv-x="582" 
d="M482 39q-54 -54 -191 -54q-136 0 -191 54q-72 71 -72 266q0 95 14.5 159.5t57.5 106.5q55 54 191 54t191 -54q43 -42 57.5 -106.5t14.5 -159.5q0 -94 -15 -159.5t-57 -106.5zM215 129q25 -23 76 -23q50 0 75 23q38 36 38 176q0 139 -38 175q-24 24 -75 24q-50 0 -76 -24
q-38 -36 -38 -175q0 -142 38 -176zM222 304q0 76 69 76q71 0 71 -76t-71 -76q-69 0 -69 76z" />
    <glyph glyph-name="zero.ot" horiz-adv-x="582" 
d="M482 39q-54 -54 -191 -54q-136 0 -191 54q-72 71 -72 266q0 95 14.5 159.5t57.5 106.5q55 54 191 54t191 -54q43 -42 57.5 -106.5t14.5 -159.5q0 -94 -15 -159.5t-57 -106.5zM215 129q25 -23 76 -23q50 0 75 23q38 36 38 176q0 139 -38 175q-24 24 -75 24q-50 0 -76 -24
q-38 -36 -38 -175q0 -142 38 -176z" />
    <glyph glyph-name="one.ot" 
d="M429 0h-146v432l-196 -133v169l221 142h121v-610z" />
    <glyph glyph-name="two.ot" horiz-adv-x="584" 
d="M524 0h-474v96l240 196q48 40 62.5 64.5t14.5 62.5q0 41 -20 59q-24 24 -108 24q-76 0 -186 -32v120q79 34 206 34q152 0 209 -57q26 -26 36 -55t10 -82q0 -62 -25 -101.5t-90 -93.5l-140 -115h265v-120z" />
    <glyph glyph-name="three.ot" 
d="M248 -105q-124 0 -192 33v117q87 -28 189 -28q98 0 126 28q22 22 22 68q0 38 -21 59q-17 17 -72 24t-185 7v100l204 187h-271v120h473v-96l-213 -202q136 -9 180 -53q52 -52 52 -146q0 -54 -11.5 -90.5t-42.5 -68.5q-59 -59 -238 -59z" />
    <glyph glyph-name="four.ot" 
d="M335 196v204l-147 -204h147zM568 76h-87v-166h-146v166h-311v96l328 438h129v-414h87v-120z" />
    <glyph glyph-name="five.ot" 
d="M250 -105q-124 0 -192 33v117q87 -28 190 -28q93 0 122 29q23 23 23 69q0 40 -21 61q-17 18 -78 24.5t-211 6.5v403h420v-120h-282v-160q129 -4 185 -19t87 -45q47 -48 47 -152q0 -55 -11.5 -91t-43.5 -68q-59 -60 -235 -60z" />
    <glyph glyph-name="six.ot" 
d="M291 -15q-138 0 -195 58q-58 58 -58 182v2q0 73 29.5 145t115.5 167l143 161h178l-218 -239h5q138 0 195 -57q58 -58 58 -179q0 -124 -58 -182q-57 -58 -195 -58zM291 105q53 0 77 24t24 100q0 72 -26 98q-23 23 -75 23q-53 0 -74 -23q-26 -24 -26 -98q0 -76 24 -100
t76 -24z" />
    <glyph glyph-name="seven.ot" 
d="M209 -90h-163l319 580h-325v120h498v-96z" />
    <glyph glyph-name="eight.ot" 
d="M291 -15q-147 0 -206 59q-51 51 -51 142q0 86 44 130q26 26 75 39q-37 12 -62 37q-42 42 -42 129q0 89 49 138q56 56 193 56q138 0 194 -56q49 -49 49 -138q0 -86 -43 -129q-23 -24 -61 -37q49 -13 75 -39q44 -42 44 -130q0 -90 -51 -142q-59 -59 -207 -59zM380 499
q0 56 -21 77q-20 20 -68 20t-68 -20q-21 -21 -21 -77q0 -53 21 -74q19 -19 68 -19t68 19q21 21 21 74zM395 202q0 52 -23 73q-22 22 -81 22t-81 -22q-23 -23 -23 -73t23 -75q22 -22 81 -22t81 22q23 23 23 75z" />
    <glyph glyph-name="nine.ot" 
d="M257 -90h-179l219 239h-6q-138 0 -195 57q-58 59 -58 179q0 124 58 182q57 58 195 58t195 -58q58 -58 58 -182v-2q0 -73 -29.5 -145t-114.5 -167zM291 505q-52 0 -76 -24t-24 -100q0 -74 26 -98q21 -23 74 -23q52 0 75 23q26 26 26 98q0 76 -24 100t-77 24z" />
    <glyph glyph-name="currency.op" 
d="M425 98l-48 48q-38 -13 -85 -13q-50 0 -87 14l-48 -48l-70 70l50 50q-11 33 -11 84t11 84l-50 50l69 70l48 -48q38 14 88 14q48 0 86 -13l47 47l70 -70l-48 -48q11 -34 11 -86q0 -53 -11 -87l48 -48zM292 211q35 0 51 18q18 17 18 74q0 59 -18 76q-14 16 -51 16t-51 -16
q-18 -17 -18 -76q0 -57 18 -74q16 -18 51 -18z" />
    <glyph glyph-name="dollar.op" 
d="M175 398q9 -7 65 -21v120q-49 -5 -65 -16q-12 -9 -12 -42q0 -32 12 -41zM396 219q-7 5 -63 18v-123q50 5 63 15q12 9 12 45t-12 45zM223 -76v66q-121 6 -177 33v116q96 -22 177 -27v146q-126 27 -158 56q-36 33 -36 126q0 96 36 127q54 47 175 55v65h111v-67
q104 -9 156 -32v-116q-69 21 -156 26v-145q131 -29 154 -51q37 -36 37 -124q0 -100 -41 -136q-49 -45 -168 -52v-66h-110z" />
    <glyph glyph-name="Euro.op" 
d="M538 10q-49 -24 -157 -24q-141 0 -200 53q-51 47 -66 148h-84v94h78v18v28h-78v96h85q15 102 65 148q59 54 200 54q101 0 159 -25v-115q-69 20 -136 20q-85 0 -111 -24q-18 -18 -26 -58h245v-96h-253v-28v-18h253v-94h-246q8 -41 27 -58q23 -24 111 -24q69 0 134 19v-114
z" />
    <glyph glyph-name="cent.op" 
d="M526 88q-47 -22 -134 -27v-138h-110v138q-128 8 -179 56q-59 56 -59 190q0 133 60 190q51 49 178 56v135h110v-135q81 -5 131 -25v-119q-65 18 -131 21v-245q65 3 134 23v-120zM221 208q20 -15 61 -20v239q-43 -5 -61 -19q-31 -24 -31 -101q0 -76 31 -99z" />
    <glyph glyph-name="sterling.op" 
d="M537 0h-503v119h105v139h-102v94h102v58q0 117 46 158q63 55 182 55q92 0 156 -26v-119q-61 16 -127 16q-72 0 -91 -15q-20 -15 -20 -72v-55h209v-94h-209v-139h252v-119z" />
    <glyph glyph-name="yen.op" 
d="M218 0v187h-175v94h175v46h-175v96h99q-60 78 -125 187h157q85 -140 123 -179q45 47 121 179h147q-61 -103 -126 -187h101v-96h-176v-46h176v-94h-176v-187h-146z" />
    <glyph glyph-name="zeroslash.op" horiz-adv-x="599" 
d="M490 39q-54 -54 -191 -54q-136 0 -191 54q-72 71 -72 266q0 95 14.5 159.5t57.5 106.5q55 54 191 54t191 -54q43 -42 57.5 -106.5t14.5 -159.5q0 -94 -15 -159.5t-57 -106.5zM223 129q25 -23 76 -23q50 0 75 23q38 36 38 176q0 139 -38 175q-24 24 -75 24q-50 0 -76 -24
q-38 -36 -38 -175q0 -142 38 -176zM230 304q0 76 69 76q71 0 71 -76t-71 -76q-69 0 -69 76z" />
    <glyph glyph-name="zero.op" horiz-adv-x="602" 
d="M492 39q-54 -54 -191 -54q-136 0 -191 54q-72 71 -72 266q0 95 14.5 159.5t57.5 106.5q55 54 191 54t191 -54q43 -42 57.5 -106.5t14.5 -159.5q0 -94 -15 -159.5t-57 -106.5zM225 129q25 -23 76 -23q50 0 75 23q38 36 38 176q0 139 -38 175q-24 24 -75 24q-50 0 -76 -24
q-38 -36 -38 -175q0 -142 38 -176z" />
    <glyph glyph-name="one.op" horiz-adv-x="476" 
d="M381 0h-146v432l-196 -133v169l221 142h121v-610z" />
    <glyph glyph-name="two.op" horiz-adv-x="584" 
d="M524 0h-474v96l240 196q48 40 62.5 64.5t14.5 62.5q0 41 -20 59q-24 24 -108 24q-76 0 -186 -32v120q79 34 206 34q152 0 209 -57q26 -26 36 -55t10 -82q0 -62 -25 -101.5t-90 -93.5l-140 -115h265v-120z" />
    <glyph glyph-name="three.op" 
d="M248 -105q-124 0 -192 33v117q87 -28 189 -28q98 0 126 28q22 22 22 68q0 38 -21 59q-17 17 -72 24t-185 7v100l204 187h-271v120h473v-96l-213 -202q136 -9 180 -53q52 -52 52 -146q0 -54 -11.5 -90.5t-42.5 -68.5q-59 -59 -238 -59z" />
    <glyph glyph-name="four.op" 
d="M335 195v204l-147 -204h147zM568 75h-87v-166h-146v166h-311v96l328 438h129v-414h87v-120z" />
    <glyph glyph-name="five.op" 
d="M250 -105q-124 0 -192 33v117q87 -28 190 -28q93 0 122 29q23 23 23 69q0 40 -21 61q-17 18 -78 24.5t-211 6.5v403h420v-120h-282v-160q129 -4 185 -19t87 -45q47 -48 47 -152q0 -55 -11.5 -91t-43.5 -68q-59 -60 -235 -60z" />
    <glyph glyph-name="six.op" 
d="M291 -15q-138 0 -195 58q-58 58 -58 182v2q0 73 29.5 145t115.5 167l143 161h178l-218 -239h5q138 0 195 -57q58 -58 58 -179q0 -124 -58 -182q-57 -58 -195 -58zM291 105q53 0 77 24t24 100q0 72 -26 98q-23 23 -75 23q-53 0 -74 -23q-26 -24 -26 -98q0 -76 24 -100
t76 -24z" />
    <glyph glyph-name="seven.op" 
d="M209 -90h-163l319 580h-325v120h498v-96z" />
    <glyph glyph-name="eight.op" horiz-adv-x="603" 
d="M301 -15q-147 0 -206 59q-51 51 -51 142q0 86 44 130q26 26 75 39q-37 12 -62 37q-42 42 -42 129q0 89 49 138q56 56 193 56q138 0 194 -56q49 -49 49 -138q0 -86 -43 -129q-23 -24 -61 -37q49 -13 75 -39q44 -42 44 -130q0 -90 -51 -142q-59 -59 -207 -59zM390 499
q0 56 -21 77q-20 20 -68 20t-68 -20q-21 -21 -21 -77q0 -53 21 -74q19 -19 68 -19t68 19q21 21 21 74zM405 202q0 52 -23 73q-22 22 -81 22t-81 -22q-23 -23 -23 -73t23 -75q22 -22 81 -22t81 22q23 23 23 75z" />
    <glyph glyph-name="nine.op" 
d="M257 -90h-179l219 239h-6q-138 0 -195 57q-58 59 -58 179q0 124 58 182q57 58 195 58t195 -58q58 -58 58 -182v-2q0 -73 -29.5 -145t-114.5 -167zM291 505q-52 0 -76 -24t-24 -100q0 -74 26 -98q21 -23 74 -23q52 0 75 23q26 26 26 98q0 76 -24 100t-77 24z" />
    <glyph glyph-name="zero.numr" horiz-adv-x="356" 
d="M297 307q-37 -36 -119 -36t-119 36q-44 44 -44 184q0 138 44 182q37 36 119 36t119 -36q44 -44 44 -182q0 -140 -44 -184zM139 368q13 -13 39 -13q27 0 40 13q20 20 20 123q0 98 -20 116q-13 13 -40 13q-26 0 -39 -13q-20 -18 -20 -116q0 -103 20 -123z" />
    <glyph glyph-name="one.numr" horiz-adv-x="356" 
d="M270 280h-101v293l-117 -87v116l133 98h85v-420z" />
    <glyph glyph-name="two.numr" horiz-adv-x="357" 
d="M321 280h-291v65l151 137q25 25 32 42.5t7 43.5q0 27 -13 40q-16 16 -61 16q-52 0 -115 -22v84q46 23 128 23q95 0 135 -40q27 -27 27 -95q0 -46 -13.5 -74t-48.5 -61l-82 -75h144v-84z" />
    <glyph glyph-name="three.numr" horiz-adv-x="356" 
d="M152 271q-78 0 -117 21v81q54 -17 115 -17q54 0 68 14q12 12 12 33q0 19 -11 30q-16 17 -151 17v70l107 96h-146v84h290v-65l-120 -109q75 -8 101 -35q31 -31 31 -88q0 -62 -33 -96q-36 -36 -146 -36z" />
    <glyph glyph-name="four.numr" horiz-adv-x="356" 
d="M199 460v104l-73 -104h73zM347 377h-47v-97h-101v97h-182v64l189 259h94v-240h47v-83z" />
    <glyph glyph-name="five.numr" horiz-adv-x="356" 
d="M152 271q-76 0 -117 21v81q56 -17 116 -17q51 0 66 15q11 11 11 35q0 19 -11 30q-16 17 -167 17v247h258v-84h-166v-78q79 -3 111 -12t50 -27q28 -28 28 -93q0 -64 -33 -99q-37 -36 -146 -36z" />
    <glyph glyph-name="six.numr" horiz-adv-x="357" 
d="M179 271q-86 0 -121 35t-35 111v1q0 45 18.5 90t72.5 104l80 88h118l-130 -139q82 0 117 -36q35 -34 35 -108q0 -76 -35 -111t-120 -35zM179 355q25 0 37 12t12 53q0 39 -12 51q-14 12 -37 12q-24 0 -38 -12q-13 -13 -13 -51q0 -40 13 -53q12 -12 38 -12z" />
    <glyph glyph-name="seven.numr" horiz-adv-x="356" 
d="M139 280h-112l182 336h-187v84h308v-65z" />
    <glyph glyph-name="eight.numr" horiz-adv-x="355" 
d="M178 271q-92 0 -128 36q-31 31 -31 86q0 49 26 77q16 16 44 22q-22 8 -36 22q-25 25 -25 78t30 83q33 33 120 33q86 0 119 -33q30 -30 30 -83t-25 -78q-15 -13 -35 -21q29 -8 44 -23q25 -27 25 -77q0 -56 -30 -86q-36 -36 -128 -36zM220 576q0 31 -9 40q-10 10 -33 10
t-33 -10t-10 -40q0 -31 9 -41q9 -9 34 -9t34 9q8 9 8 41zM229 404q0 28 -11 39q-13 11 -40 11t-40 -11q-12 -12 -12 -39q0 -25 12 -37t40 -12t40 12q11 11 11 37z" />
    <glyph glyph-name="nine.numr" horiz-adv-x="357" 
d="M163 273h-118l131 139q-83 0 -118 35t-35 109q0 76 35 110q35 36 121 36q85 0 120 -36q35 -34 35 -110v-1q0 -45 -18.5 -90t-72.5 -104zM179 618q-26 0 -38 -12t-12 -53q0 -39 12 -51t38 -12q25 0 37 12q13 13 13 51q0 40 -13 53q-12 12 -37 12z" />
    <glyph glyph-name="zero.dnom" horiz-adv-x="356" 
d="M297 27q-37 -36 -119 -36t-119 36q-44 44 -44 184q0 138 44 182q37 36 119 36t119 -36q44 -44 44 -182q0 -140 -44 -184zM139 88q13 -13 39 -13q27 0 40 13q20 20 20 123q0 98 -20 116q-13 13 -40 13q-26 0 -39 -13q-20 -18 -20 -116q0 -103 20 -123z" />
    <glyph glyph-name="one.dnom" horiz-adv-x="356" 
d="M270 0h-101v293l-117 -87v116l133 98h85v-420z" />
    <glyph glyph-name="two.dnom" horiz-adv-x="357" 
d="M321 0h-291v65l151 137q25 25 32 42.5t7 43.5q0 27 -13 40q-16 16 -61 16q-52 0 -115 -22v84q46 23 128 23q95 0 135 -40q27 -27 27 -95q0 -46 -13.5 -74t-48.5 -61l-82 -75h144v-84z" />
    <glyph glyph-name="three.dnom" horiz-adv-x="356" 
d="M152 -9q-78 0 -117 21v81q54 -17 115 -17q54 0 68 14q12 12 12 33q0 19 -11 30q-16 17 -151 17v70l107 96h-146v84h290v-65l-120 -109q75 -8 101 -35q31 -31 31 -88q0 -62 -33 -96q-36 -36 -146 -36z" />
    <glyph glyph-name="four.dnom" horiz-adv-x="356" 
d="M199 180v104l-73 -104h73zM347 97h-47v-97h-101v97h-182v64l189 259h94v-240h47v-83z" />
    <glyph glyph-name="five.dnom" horiz-adv-x="356" 
d="M152 -9q-76 0 -117 21v81q56 -17 116 -17q51 0 66 15q11 11 11 35q0 19 -11 30q-16 17 -167 17v247h258v-84h-166v-78q79 -3 111 -12t50 -27q28 -28 28 -93q0 -64 -33 -99q-37 -36 -146 -36z" />
    <glyph glyph-name="six.dnom" horiz-adv-x="357" 
d="M179 -9q-86 0 -121 35t-35 111v1q0 45 18.5 90t72.5 104l80 88h118l-130 -139q82 0 117 -36q35 -34 35 -108q0 -76 -35 -111t-120 -35zM179 75q25 0 37 12t12 53q0 39 -12 51q-14 12 -37 12q-24 0 -38 -12q-13 -13 -13 -51q0 -40 13 -53q12 -12 38 -12z" />
    <glyph glyph-name="seven.dnom" horiz-adv-x="356" 
d="M139 0h-112l182 336h-187v84h308v-65z" />
    <glyph glyph-name="eight.dnom" horiz-adv-x="355" 
d="M178 -9q-92 0 -128 36q-31 31 -31 86q0 49 26 77q16 16 44 22q-22 8 -36 22q-25 25 -25 78t30 83q33 33 120 33q86 0 119 -33q30 -30 30 -83t-25 -78q-15 -13 -35 -21q29 -8 44 -23q25 -27 25 -77q0 -56 -30 -86q-36 -36 -128 -36zM220 296q0 31 -9 40q-10 10 -33 10
t-33 -10t-10 -40q0 -31 9 -41q9 -9 34 -9t34 9q8 9 8 41zM229 124q0 28 -11 39q-13 11 -40 11t-40 -11q-12 -12 -12 -39q0 -25 12 -37t40 -12t40 12q11 11 11 37z" />
    <glyph glyph-name="nine.dnom" horiz-adv-x="357" 
d="M163 -7h-118l131 139q-83 0 -118 35t-35 109q0 76 35 110q35 36 121 36q85 0 120 -36q35 -34 35 -110v-1q0 -45 -18.5 -90t-72.5 -104zM179 338q-26 0 -38 -12t-12 -53q0 -39 12 -51t38 -12q25 0 37 12q13 13 13 51q0 40 -13 53q-12 12 -37 12z" />
    <glyph glyph-name="litre" 
d="M346 -15q-76 0 -124 35.5t-69 132.5q-35 -12 -72 -21l1 104q25 6 58 17q-2 44 -2 72q0 102 10.5 175t26.5 114t42 64.5t49.5 30t55.5 6.5q33 0 58 -6.5t51 -25t40.5 -58t14.5 -98.5q0 -101 -56.5 -187t-175.5 -146q11 -61 37 -84.5t71 -23.5q60 0 103 24v-102
q-43 -23 -119 -23zM245 325v-26q134 77 134 228q0 57 -15 76.5t-42 19.5q-13 0 -22.5 -4.5t-20.5 -22t-18 -48t-11.5 -87.5t-4.5 -136z" />
    <glyph glyph-name="numero" horiz-adv-x="1153" 
d="M1064 401q-39 -40 -130 -40t-130 40q-36 37 -36 131q0 93 36 130q39 40 130 40t130 -40q36 -37 36 -130q0 -94 -36 -131zM883 457q15 -17 51 -17t51 17q18 17 18 75t-18 76q-16 16 -51 16t-51 -16q-18 -18 -18 -76t18 -75zM564 0l-325 382v-382h-137v610h117l325 -380
v380h136v-610h-116zM783 308h302v-82h-302v82z" />
    <glyph glyph-name="zero.circle" horiz-adv-x="840" 
d="M420 -15q-179 0 -272 93q-88 86 -88 272q0 185 88 273q93 92 272 92q180 0 272 -92q88 -88 88 -273q0 -186 -88 -272q-92 -93 -272 -93zM420 636q-145 0 -213 -65q-28 -29 -46.5 -88t-18.5 -133q0 -76 18 -135t47 -86q65 -65 213 -65t213 65q28 29 46.5 88t18.5 133
t-18.5 133t-46.5 88q-68 65 -213 65zM540 169q-37 -36 -119 -36t-119 36q-44 44 -44 184q0 138 44 182q37 36 119 36t119 -36q44 -44 44 -182q0 -140 -44 -184zM382 230q13 -13 39 -13q27 0 40 13q20 20 20 123q0 98 -20 116q-13 13 -40 13q-26 0 -39 -13q-20 -18 -20 -116
q0 -103 20 -123z" />
    <glyph glyph-name="one.circle" horiz-adv-x="840" 
d="M420 -15q-179 0 -272 93q-88 86 -88 272q0 185 88 273q93 92 272 92q180 0 272 -92q88 -88 88 -273q0 -186 -88 -272q-92 -93 -272 -93zM420 636q-145 0 -213 -65q-28 -29 -46.5 -88t-18.5 -133q0 -76 18 -135t47 -86q65 -65 213 -65t213 65q28 29 46.5 88t18.5 133
t-18.5 133t-46.5 88q-68 65 -213 65zM509 142h-101v293l-117 -87v116l133 98h85v-420z" />
    <glyph glyph-name="two.circle" horiz-adv-x="840" 
d="M420 -15q-179 0 -272 93q-88 86 -88 272q0 185 88 273q93 92 272 92q180 0 272 -92q88 -88 88 -273q0 -186 -88 -272q-92 -93 -272 -93zM420 636q-145 0 -213 -65q-28 -29 -46.5 -88t-18.5 -133q0 -76 18 -135t47 -86q65 -65 213 -65t213 65q28 29 46.5 88t18.5 133
t-18.5 133t-46.5 88q-68 65 -213 65zM564 142h-291v65l151 137q25 25 32 42.5t7 43.5q0 27 -13 40q-16 16 -61 16q-52 0 -115 -22v84q46 23 128 23q95 0 135 -40q27 -27 27 -95q0 -46 -13.5 -74t-48.5 -61l-82 -75h144v-84z" />
    <glyph glyph-name="three.circle" horiz-adv-x="840" 
d="M420 -15q-179 0 -272 93q-88 86 -88 272q0 185 88 273q93 92 272 92q180 0 272 -92q88 -88 88 -273q0 -186 -88 -272q-92 -93 -272 -93zM420 636q-145 0 -213 -65q-28 -29 -46.5 -88t-18.5 -133q0 -76 18 -135t47 -86q65 -65 213 -65t213 65q28 29 46.5 88t18.5 133
t-18.5 133t-46.5 88q-68 65 -213 65zM395 133q-78 0 -117 21v81q54 -17 115 -17q54 0 68 14q12 12 12 33q0 19 -11 30q-16 17 -151 17v70l107 96h-146v84h290v-65l-120 -109q75 -8 101 -35q31 -31 31 -88q0 -62 -33 -96q-36 -36 -146 -36z" />
    <glyph glyph-name="four.circle" horiz-adv-x="840" 
d="M420 -15q-179 0 -272 93q-88 86 -88 272q0 185 88 273q93 92 272 92q180 0 272 -92q88 -88 88 -273q0 -186 -88 -272q-92 -93 -272 -93zM420 636q-145 0 -213 -65q-28 -29 -46.5 -88t-18.5 -133q0 -76 18 -135t47 -86q65 -65 213 -65t213 65q28 29 46.5 88t18.5 133
t-18.5 133t-46.5 88q-68 65 -213 65zM422 322v104l-73 -104h73zM570 239h-47v-97h-101v97h-182v64l189 259h94v-240h47v-83z" />
    <glyph glyph-name="five.circle" horiz-adv-x="840" 
d="M420 -15q-179 0 -272 93q-88 86 -88 272q0 185 88 273q93 92 272 92q180 0 272 -92q88 -88 88 -273q0 -186 -88 -272q-92 -93 -272 -93zM420 636q-145 0 -213 -65q-28 -29 -46.5 -88t-18.5 -133q0 -76 18 -135t47 -86q65 -65 213 -65t213 65q28 29 46.5 88t18.5 133
t-18.5 133t-46.5 88q-68 65 -213 65zM395 133q-77 0 -117 21v81q56 -17 116 -17q51 0 66 15q11 11 11 35q0 19 -11 30q-16 17 -167 17v247h258v-84h-166v-78q79 -3 111 -12t50 -27q28 -28 28 -93q0 -64 -33 -99q-37 -36 -146 -36z" />
    <glyph glyph-name="six.circle" horiz-adv-x="840" 
d="M420 -15q-179 0 -272 93q-88 86 -88 272q0 185 88 273q93 92 272 92q180 0 272 -92q88 -88 88 -273q0 -186 -88 -272q-92 -93 -272 -93zM420 636q-145 0 -213 -65q-28 -29 -46.5 -88t-18.5 -133q0 -76 18 -135t47 -86q65 -65 213 -65t213 65q28 29 46.5 88t18.5 133
t-18.5 133t-46.5 88q-68 65 -213 65zM412 133q-86 0 -121 35t-35 111v1q0 45 18.5 90t72.5 104l80 88h118l-130 -139q82 0 117 -36q35 -34 35 -108q0 -76 -35 -111t-120 -35zM412 217q25 0 37 12t12 53q0 39 -12 51q-14 12 -37 12q-24 0 -38 -12q-13 -13 -13 -51
q0 -40 13 -53q12 -12 38 -12z" />
    <glyph glyph-name="seven.circle" horiz-adv-x="840" 
d="M420 -15q-179 0 -272 93q-88 86 -88 272q0 185 88 273q93 92 272 92q180 0 272 -92q88 -88 88 -273q0 -186 -88 -272q-92 -93 -272 -93zM420 636q-145 0 -213 -65q-28 -29 -46.5 -88t-18.5 -133q0 -76 18 -135t47 -86q65 -65 213 -65t213 65q28 29 46.5 88t18.5 133
t-18.5 133t-46.5 88q-68 65 -213 65zM383 142h-112l182 336h-187v84h308v-65z" />
    <glyph glyph-name="eight.circle" horiz-adv-x="840" 
d="M420 -15q-179 0 -272 93q-88 86 -88 272q0 185 88 273q93 92 272 92q180 0 272 -92q88 -88 88 -273q0 -186 -88 -272q-92 -93 -272 -93zM420 636q-145 0 -213 -65q-28 -29 -46.5 -88t-18.5 -133q0 -76 18 -135t47 -86q65 -65 213 -65t213 65q28 29 46.5 88t18.5 133
t-18.5 133t-46.5 88q-68 65 -213 65zM421 133q-92 0 -128 36q-31 31 -31 86q0 49 26 77q16 16 44 22q-22 8 -36 22q-25 25 -25 78t30 83q33 33 120 33q86 0 119 -33q30 -30 30 -83t-25 -78q-15 -13 -35 -21q29 -8 44 -23q25 -27 25 -77q0 -56 -30 -86q-36 -36 -128 -36z
M463 438q0 31 -9 40q-10 10 -33 10t-33 -10t-10 -40q0 -31 9 -41q9 -9 34 -9t34 9q8 9 8 41zM472 266q0 28 -11 39q-13 11 -40 11t-40 -11q-12 -12 -12 -39q0 -25 12 -37t40 -12t40 12q11 11 11 37z" />
    <glyph glyph-name="nine.circle" horiz-adv-x="840" 
d="M420 -15q-179 0 -272 93q-88 86 -88 272q0 185 88 273q93 92 272 92q180 0 272 -92q88 -88 88 -273q0 -186 -88 -272q-92 -93 -272 -93zM420 636q-145 0 -213 -65q-28 -29 -46.5 -88t-18.5 -133q0 -76 18 -135t47 -86q65 -65 213 -65t213 65q28 29 46.5 88t18.5 133
t-18.5 133t-46.5 88q-68 65 -213 65zM414 135h-118l131 139q-83 0 -118 35t-35 109q0 76 35 110q35 36 121 36q85 0 120 -36q35 -34 35 -110v-1q0 -45 -18.5 -90t-72.5 -104zM430 480q-26 0 -38 -12t-12 -53q0 -39 12 -51t38 -12q25 0 37 12q13 13 13 51q0 40 -13 53
q-12 12 -37 12z" />
    <glyph glyph-name="logotype" horiz-adv-x="3193" 
d="M2953 756q8 50 27 73.5t62 23.5h96q-5 -62 -9.5 -92.5t-21.5 -72t-47 -73.5q-50 -52 -152 -52h-96q59 19 95 70.5t46 122.5zM55 0v656q15 9 63 9q57 0 86.5 -21.5t62.5 -79.5l202 -358v449h2357q-31 -91 -141 -91h-2103v-565q-14 -9 -62 -9q-57 0 -86 21t-63 80l-202 359
v-450h-114zM3092 199h-187v-2q0 -69 15 -90q11 -16 32.5 -21.5t62.5 -5.5q55 0 109 16v-86q-45 -21 -122 -21q-136 0 -186 49q-40 40 -40 159v289h346v-93h-217v-103h187v-91zM2699 199h-198v-199q-62 0 -95.5 16t-33.5 64v406h346v-93h-217v-103h198v-91zM980 199h-187v-2
q0 -68 14 -90q19 -27 95 -27q58 0 109 16v-86q-43 -21 -122 -21q-135 0 -185 49q-40 40 -40 159v289h345v-93h-216v-103h187v-91zM1645 379q-19 -28 -19 -137q0 -108 19 -136q16 -26 84 -26q59 0 107 16l-20 -90q-35 -17 -97 -17q-132 0 -182 52q-50 50 -50 201
q0 153 50 204t182 51q67 0 107 -21v-87q-45 16 -97 16q-67 0 -84 -26zM2079 370q-35 -86 -62 -193h130q-33 122 -68 193zM1099 450q50 48 156 48q101 0 146 -28v-88q-80 23 -139 23q-49 0 -66 -13q-10 -8 -10 -32q0 -21 10 -28q14 -9 98.5 -39t107.5 -56q31 -34 31 -96
q0 -81 -43 -113q-52 -39 -157 -39q-106 0 -152 27v88q89 -24 150 -24q49 0 65 14q10 8 10 33q0 21 -10 28q-15 10 -95.5 37t-105.5 52q-28 31 -28 97q0 79 32 109zM2325 0h-141q-9 54 -18 95h-167q-9 -42 -16 -95h-115q65 330 153 490h148q87 -176 156 -490z" />
    </font>
</defs>
</svg>
